<svg xmlns="http://www.w3.org/2000/svg" fill="none" viewBox="11.18 11.6 193.64 56.9">
<path d="M194.828 11.5977H21.1753C15.6549 11.5977 11.1797 16.3094 11.1797 22.1217V57.9751C11.1797 63.7874 15.6549 68.4991 21.1753 68.4991H194.828C200.348 68.4991 204.823 63.7874 204.823 57.9751V22.1217C204.823 16.3094 200.348 11.5977 194.828 11.5977Z" fill="#1A1A1A"/>
<path d="M95.1026 47.3333H103.33V51.2136H91.2539V30.6523H103.194V34.5326H95.1026V38.9141H102.501V42.7371H95.1026V47.3476V47.3333Z" fill="#F9F9F9"/>
<path d="M113.327 30.6562C115.203 30.6562 116.781 31.3292 118.073 32.6608C119.351 33.9924 120.004 35.6247 120.004 37.5721C120.004 39.5194 119.365 41.1517 118.073 42.4833C116.794 43.8149 115.203 44.4879 113.327 44.4879H109.899V51.2462H106.051V30.6849H113.327V30.6562ZM113.327 40.6792C114.143 40.6792 114.822 40.3785 115.366 39.7771C115.91 39.1757 116.169 38.4455 116.169 37.5577C116.169 36.67 115.897 35.9111 115.366 35.3241C114.836 34.737 114.143 34.4363 113.327 34.4363H109.899V40.6648H113.327V40.6792Z" fill="#F9F9F9"/>
<path d="M137.506 39.0039C138.825 39.4191 139.899 40.1351 140.729 41.166C141.558 42.1969 141.966 43.4283 141.966 44.8745C141.966 46.9936 141.286 48.6402 139.94 49.843C138.594 51.0314 136.935 51.6328 134.99 51.6328C133.467 51.6328 132.107 51.2605 130.91 50.5302C129.713 49.8 128.843 48.7118 128.299 47.28L131.59 45.2897C132.08 46.879 133.208 47.6666 134.99 47.6666C135.969 47.6666 136.744 47.4231 137.288 46.922C137.832 46.4209 138.118 45.7479 138.118 44.8745C138.118 44.001 137.846 43.3567 137.288 42.8412C136.744 42.3258 135.969 42.0824 134.99 42.0824H134.147L132.664 39.7341L136.513 34.4506H128.87V30.6562H141.15V34.0068L137.492 39.0039H137.506Z" fill="#F9F9F9"/>
<path d="M150.807 37.3274C152.833 37.3846 154.479 38.0719 155.743 39.4035C157.008 40.7208 157.647 42.4104 157.647 44.4723C157.647 46.5341 156.981 48.281 155.662 49.6269C154.343 50.9728 152.643 51.6458 150.562 51.6458C148.481 51.6458 146.781 50.9871 145.476 49.6555C144.17 48.3239 143.504 46.6057 143.504 44.4866C143.504 42.9259 143.885 41.537 144.646 40.3485L150.725 30.6836H155.132L150.807 37.356V37.3274ZM148.25 46.8921C148.862 47.4934 149.637 47.8084 150.562 47.8084C151.487 47.8084 152.262 47.5078 152.888 46.8921C153.513 46.2764 153.826 45.4745 153.826 44.4579C153.826 43.4413 153.513 42.6538 152.888 42.0524C152.262 41.4511 151.487 41.1361 150.562 41.1361C149.637 41.1361 148.862 41.4367 148.25 42.0381C147.638 42.6395 147.325 43.4413 147.325 44.4579C147.325 45.4745 147.638 46.2907 148.25 46.8921Z" fill="#F9F9F9"/>
<path d="M165.82 38.1435C167.696 38.1435 169.274 38.7305 170.566 39.919C171.844 41.1074 172.497 42.754 172.497 44.8732C172.497 46.9923 171.817 48.6389 170.471 49.8417C169.124 51.0301 167.465 51.6315 165.52 51.6315C163.943 51.6315 162.542 51.2592 161.332 50.5146C160.121 49.7701 159.251 48.6675 158.707 47.2214L161.998 45.1882C162.488 46.8348 163.657 47.6509 165.507 47.6509C166.486 47.6509 167.261 47.4075 167.805 46.9064C168.349 46.4052 168.635 45.7323 168.635 44.8588C168.635 43.9854 168.363 43.3411 167.832 42.8256C167.288 42.3102 166.554 42.0667 165.629 42.0667H159.713L160.489 30.6406H171.559V34.435H164.052L163.807 38.1292H165.82V38.1435Z" fill="#F9F9F9"/>
<path d="M76.8506 53.6246C74.6883 55.529 71.7236 57.4047 68.5141 58.0633C67.6981 58.2352 66.8822 58.3211 66.0934 58.3211C63.6319 58.3211 61.3336 57.5192 59.3616 55.9299C57.9337 54.7844 56.6961 53.2094 55.7169 51.2191C54.5338 48.8709 53.813 46.4797 53.541 44.0742H60.232C60.4768 45.3629 60.912 46.6659 61.5647 47.9688C62.0951 49.0284 62.7071 49.8589 63.3735 50.3886C64.4614 51.2478 65.6446 51.5341 67.0862 51.2621C69.2213 50.8755 71.3836 49.3577 72.8252 48.0834L76.8642 53.6103L76.8506 53.6246Z" fill="#F9F9F9"/>
<path d="M81.3525 31.9304C81.2573 34.3932 80.2373 37.9156 75.8447 40.722C73.2064 42.4115 70.0785 43.2993 66.7738 43.2993H51.0527V36.3405H67.073C67.1682 36.3405 66.9778 36.3405 67.073 36.3405C67.889 35.4385 68.9361 34.7082 69.8065 34.2071L70.6361 35.6532L70.9217 36.1544L71.2072 35.4241L74.0903 28.852L74.1311 28.7518C74.1311 28.7518 74.0767 28.7518 74.0087 28.7374C73.9543 28.7374 73.8864 28.7231 73.8864 28.7231L69.9969 28.222L65.9714 27.6063L67.1002 29.5679L67.277 29.8686C66.1482 30.5272 64.9515 31.4007 63.8907 32.4889C63.7955 32.5748 63.7275 32.6607 63.6459 32.7466C62.9387 33.5914 62.2588 34.5364 61.6876 35.5816C61.6876 35.5816 61.6876 35.5816 61.6876 35.596H54.4254C54.6566 34.923 54.9286 34.2357 55.2414 33.5627C58.1925 27.0622 64.2443 22.2941 68.4057 21.4493C72.1728 20.6761 75.7359 21.4923 78.1838 23.683C79.6934 25.0576 81.4749 27.6063 81.3253 31.9448L81.3525 31.9304Z" fill="#F9F9F9"/>
<path d="M51.0668 32.8164V46.5192L46.8509 43.3118L46.2117 42.825L42.6895 40.1331L46.2117 37.0547L47.0277 36.3531L51.0668 32.8164Z" fill="#F9F9F9"/>
<path d="M81.3668 45.3477L78.9461 56.5017L76.8518 53.6237L72.8127 48.0968L71.0176 45.634L81.3668 45.3477Z" fill="#F9F9F9"/>
</svg>