<svg width="62" height="145" viewBox="0 0 62 145" fill="none" xmlns="http://www.w3.org/2000/svg">
<g clip-path="url(#clip0_2743_14731)">
<mask id="mask0_2743_14731" style="mask-type:luminance" maskUnits="userSpaceOnUse" x="0" y="0" width="62" height="145">
<path d="M61.5929 0H0V145H61.5929V0Z" fill="white"/>
</mask>
<g mask="url(#mask0_2743_14731)">
<path fill-rule="evenodd" clip-rule="evenodd" d="M-78.4747 162.511H37.4135C53.8337 162.511 63.976 144.579 55.5279 130.486L-2.41606 33.8183C-10.621 20.13 -30.4399 20.13 -38.6449 33.8183L-96.5888 130.486C-105.037 144.579 -94.8943 162.511 -78.4747 162.511ZM0.171707 32.2641C-9.2054 16.6203 -31.8556 16.6203 -41.2327 32.2641L-99.1763 128.932C-108.832 145.039 -97.2406 165.531 -78.4747 165.531H37.4135C56.1794 165.531 67.7707 145.039 58.1156 128.932L0.171707 32.2641Z" fill="url(#paint0_linear_2743_14731)"/>
</g>
</g>
<defs>
<linearGradient id="paint0_linear_2743_14731" x1="-20.5305" y1="20.5313" x2="-32.4734" y2="164.541" gradientUnits="userSpaceOnUse">
<stop stop-color="#F58220" stop-opacity="0.1"/>
<stop offset="1" stop-color="#F58220"/>
</linearGradient>
<clipPath id="clip0_2743_14731">
<rect width="61.5929" height="145" fill="white"/>
</clipPath>
</defs>
</svg>
