<svg width="160" height="45" viewBox="0 0 160 45" fill="none" xmlns="http://www.w3.org/2000/svg">
<g clip-path="url(#clip0_2743_14720)">
<mask id="mask0_2743_14720" style="mask-type:luminance" maskUnits="userSpaceOnUse" x="0" y="0" width="160" height="47">
<path d="M160 0H0V46.08H160V0Z" fill="white"/>
</mask>
<g mask="url(#mask0_2743_14720)">
<path fill-rule="evenodd" clip-rule="evenodd" d="M52.0868 141.627H107.913C115.47 141.627 122.453 137.606 126.231 131.08L154.145 82.8666C157.923 76.3405 157.923 68.2995 154.145 61.7733L126.231 13.56C122.453 7.03373 115.47 3.01333 107.913 3.01333L52.0868 3.01334C44.5299 3.01334 37.5471 7.03373 33.7688 13.56L5.85551 61.7734C2.07709 68.2995 2.07709 76.3405 5.8555 82.8666L33.7687 131.08C37.5471 137.606 44.5299 141.627 52.0868 141.627ZM107.913 144.64C116.55 144.64 124.53 140.045 128.848 132.587L156.762 84.3731C161.08 76.9146 161.08 67.7254 156.762 60.2667L128.848 12.0533C124.53 4.59471 116.55 -7.55014e-07 107.913 0L52.0868 4.8805e-06C43.4504 5.63552e-06 35.4701 4.5947 31.1519 12.0533L3.23865 60.2667C-1.07954 67.7254 -1.07955 76.9146 3.23864 84.3731L31.1519 132.587C35.4701 140.045 43.4504 144.64 52.0868 144.64H107.913Z" fill="url(#paint0_linear_2743_14720)"/>
</g>
</g>
<defs>
<linearGradient id="paint0_linear_2743_14720" x1="80" y1="144.64" x2="80" y2="0" gradientUnits="userSpaceOnUse">
<stop stop-color="#4AA147" stop-opacity="0.1"/>
<stop offset="1" stop-color="#4AA147"/>
</linearGradient>
<clipPath id="clip0_2743_14720">
<rect width="160" height="46.08" fill="white"/>
</clipPath>
</defs>
</svg>
