<svg width="166" height="43" viewBox="0 0 166 43" fill="none" xmlns="http://www.w3.org/2000/svg">
<g clip-path="url(#clip0_2743_14634)">
<g clip-path="url(#clip1_2743_14634)">
<g clip-path="url(#clip2_2743_14634)">
<mask id="mask0_2743_14634" style="mask-type:luminance" maskUnits="userSpaceOnUse" x="0" y="0" width="165" height="43">
<path d="M165 0H0V43H165V0Z" fill="white"/>
</mask>
<g mask="url(#mask0_2743_14634)">
<path d="M82.4255 0.000436119C95.1597 -0.0748265 105.653 9.60059 105.533 21.6948C105.414 33.488 95.2403 42.9502 82.5599 43.0004C69.7206 43.0506 59.2225 33.3772 59.3927 21.1345C59.5515 9.66121 69.6265 -0.0371952 82.4255 0.000436119ZM76.4446 26.3088C76.5722 26.2357 76.6371 26.2127 76.6819 26.1709C77.7339 25.205 78.7949 24.2475 79.8201 23.2586C79.979 23.1039 80.0394 22.8049 80.0394 22.5729C80.0574 19.784 80.091 16.9972 80.0394 14.2083C80.0238 13.3762 80.2141 12.7302 80.9057 12.1971C81.3713 11.8375 81.7877 11.4194 82.3003 10.9615V31.1026C80.2677 31.0483 76.3909 29.0685 74.6449 25.9701C70.9651 19.4369 72.7535 14.0243 78.7659 9.62777C73.7227 10.7671 68.8811 15.7972 69.1251 22.1088C69.3736 28.5312 74.9919 33.9752 82.1346 34.2219C88.2543 34.433 93.1788 30.626 94.6091 27.166C94.3472 27.4524 94.1793 27.6573 93.9845 27.8434C91.2045 30.5026 87.8716 31.7967 83.8537 31.4622C83.3008 31.4162 83.1464 31.2636 83.1464 30.7493C83.1642 24.4377 83.1575 18.1282 83.1575 11.8166C83.1575 11.6556 83.1732 11.4967 83.1843 11.2417C83.3881 11.3629 83.5179 11.434 83.641 11.5135C85.4429 12.6591 87.4194 13.3783 89.5929 13.5727C89.8861 13.5999 90.2733 13.4807 90.495 13.301C91.1485 12.7678 91.7462 12.172 92.3595 11.595C92.8116 11.1685 93.2504 10.7295 93.7115 10.28C93.6018 10.2215 93.5727 10.1943 93.5436 10.1922C93.3646 10.188 93.1854 10.1797 93.0064 10.188C89.8838 10.3197 87.1351 9.4187 84.7356 7.57268C84.4356 7.34271 84.2834 7.39916 84.0327 7.63331C81.6108 9.90373 79.1777 12.1616 76.7424 14.4194C76.4849 14.6578 76.3909 14.9149 76.3931 15.2578C76.4065 18.7638 76.3999 22.2697 76.4021 25.7757C76.4021 25.9325 76.4267 26.0893 76.4446 26.3067V26.3088Z" fill="black"/>
<path d="M29.3165 21.5533C29.3165 20.5038 29.3165 19.4543 29.3165 18.4048C29.3165 16.9853 29.3277 15.5678 29.3121 14.1483C29.3076 13.7615 29.4418 13.6005 29.8672 13.6235C30.3305 13.6465 30.7983 13.6528 31.2616 13.6214C31.7049 13.5901 31.8056 13.7699 31.8033 14.1462C31.7899 16.4333 31.7967 18.7184 31.7967 21.0055C31.7967 23.5749 31.7877 26.1464 31.8123 28.7158C31.8167 29.1799 31.7026 29.3952 31.1632 29.3492C30.7199 29.3116 30.2656 29.3743 29.8246 29.3283C29.641 29.3095 29.3746 29.1569 29.321 29.0084C28.6025 27.0035 27.9175 24.9882 27.2214 22.9749C26.9013 22.0488 26.5767 21.1226 26.1402 20.1944C26.1291 20.3742 26.1066 20.554 26.1066 20.7337C26.1066 23.4035 26.0955 26.0732 26.1157 28.745C26.1178 29.1924 26.0037 29.3889 25.4911 29.3513C24.9942 29.3137 24.4906 29.3367 23.9891 29.3471C23.622 29.3555 23.4855 29.2091 23.4878 28.8642C23.4989 27.545 23.4878 26.2279 23.4878 24.9087C23.4878 21.3379 23.4944 17.7651 23.4766 14.1943C23.4766 13.7573 23.6086 13.5963 24.0854 13.6193C24.7279 13.6507 25.3725 13.634 26.0171 13.6256C26.3305 13.6214 26.5141 13.6779 26.626 14.0228C27.1945 15.7601 27.8146 17.4849 28.4077 19.216C28.6763 19.9958 28.927 20.7818 29.1867 21.5637C29.2292 21.5595 29.2717 21.5554 29.3142 21.5491L29.3165 21.5533Z" fill="black"/>
<path d="M116.013 21.0265C116.55 21.3192 117.06 21.5492 117.515 21.8523C118.387 22.4356 118.716 23.32 118.824 24.2586C118.976 25.6008 118.728 26.8531 117.736 27.9298C116.952 28.7828 115.95 29.18 114.801 29.2364C113.57 29.2971 112.332 29.2448 111.099 29.2552C110.739 29.2594 110.598 29.1549 110.598 28.7953C110.605 23.9221 110.598 19.0488 110.598 14.1756C110.598 13.9958 110.626 13.816 110.642 13.6299C112.205 13.6299 113.729 13.5337 115.236 13.655C116.829 13.7846 118.094 14.9491 118.403 16.4042C118.618 17.4202 118.587 18.43 118.141 19.3917C117.74 20.2551 116.97 20.7422 116.011 21.0244L116.013 21.0265ZM113.676 26.8824C115.005 27.0371 115.691 26.5144 115.735 25.3541C115.753 24.8879 115.723 24.4217 115.735 23.9555C115.755 23.1423 114.992 22.4293 114.04 22.4649C113.915 22.4691 113.694 22.6551 113.692 22.7597C113.667 24.1228 113.676 25.4858 113.676 26.8803V26.8824ZM113.694 19.9896C114.855 20.0147 115.534 19.5255 115.534 18.5512C115.534 18.085 115.547 17.6188 115.529 17.1547C115.493 16.1617 114.717 15.685 113.692 16.0216V19.9896H113.694Z" fill="black"/>
<path d="M137.314 22.5614C137.314 23.9141 137.314 25.2291 137.314 26.5462C137.314 27.3134 137.3 28.0807 137.316 28.8479C137.323 29.1448 137.227 29.2682 136.893 29.2598C136.161 29.2431 135.427 29.2472 134.692 29.2577C134.395 29.2619 134.261 29.1469 134.272 28.8751C134.274 28.7915 134.272 28.7079 134.272 28.6242C134.272 23.8513 134.272 19.0805 134.272 14.3076C134.272 13.6135 134.274 13.6115 134.992 13.6115C136.173 13.6115 137.354 13.5822 138.533 13.624C139.505 13.6595 140.389 13.9418 141.179 14.5292C141.979 15.1251 142.375 15.9279 142.494 16.7913C142.671 18.0729 142.689 19.3899 141.999 20.5858C141.775 20.9725 141.462 21.33 141.122 21.6353C140.859 21.8715 140.826 22.0827 140.902 22.3858C141.287 23.9329 141.649 25.4841 142.033 27.0312C142.167 27.5747 142.346 28.1079 142.491 28.6472C142.537 28.8166 142.534 28.9985 142.56 29.2472C141.596 29.2472 140.69 29.2682 139.785 29.2263C139.642 29.2201 139.427 28.9546 139.391 28.781C139.028 27.1085 138.699 25.4298 138.36 23.7531C138.301 23.4625 138.216 23.1761 138.162 22.8834C138.075 22.413 137.731 22.4924 137.316 22.5572L137.314 22.5614ZM137.314 20.1614C138.383 20.3642 138.878 20.0673 139.165 19.5133C139.664 18.5453 139.714 17.5272 139.178 16.5383C138.923 16.0659 138.088 15.7585 137.563 15.9321C137.459 15.9655 137.325 16.1035 137.325 16.1934C137.309 17.5063 137.314 18.8213 137.314 20.1593V20.1614Z" fill="black"/>
<path d="M152.484 28.4136C151.952 28.7564 151.496 29.1474 150.958 29.3794C149.77 29.8916 148.028 29.4045 147.242 28.3989C146.638 27.6254 146.197 26.7891 146.099 25.817C145.947 24.2992 145.636 22.7793 145.659 21.2636C145.686 19.6998 145.942 18.1214 146.276 16.5848C146.511 15.5019 147.077 14.4858 148.125 13.8273C149.825 12.761 152.805 13.1938 153.617 15.4789C153.992 16.5325 154.101 17.6197 154.117 18.7193C154.121 19.0559 153.985 19.2106 153.613 19.2023C153.004 19.1897 152.395 19.1855 151.789 19.2023C151.383 19.2127 151.289 19.0413 151.28 18.6859C151.265 18.0064 151.217 17.3249 151.117 16.6517C151.057 16.2608 150.851 15.8865 150.385 15.7632C149.861 15.6252 149.384 16.0308 149.23 16.6663C148.863 18.1925 148.884 19.7416 148.886 21.2887C148.886 22.2734 148.836 23.2623 148.93 24.2407C149.009 25.0539 149.199 25.8693 149.459 26.6491C149.698 27.362 150.705 27.2449 151.046 26.7431C151.511 26.0553 151.516 25.2588 151.565 24.4853C151.569 24.4142 151.242 24.249 151.083 24.2616C150.562 24.3013 150.383 24.1194 150.428 23.6386C150.468 23.2079 150.447 22.771 150.433 22.3382C150.421 22.0455 150.515 21.9159 150.855 21.9222C151.82 21.9389 152.787 21.9389 153.754 21.9263C154.085 21.9222 154.199 22.0581 154.199 22.3445C154.195 24.5459 154.197 26.7473 154.186 28.9488C154.186 29.0428 154.108 29.1808 154.024 29.2205C153.526 29.4568 152.852 29.2038 152.646 28.7272C152.597 28.6101 152.53 28.5014 152.484 28.4156V28.4136Z" fill="black"/>
<path d="M16.4184 25.8292H13.9763C13.8823 26.6048 13.786 27.3888 13.6942 28.1728C13.6786 28.3045 13.6876 28.4404 13.6786 28.5721C13.6271 29.2557 13.5309 29.3414 12.819 29.3414C12.2483 29.3414 11.6797 29.3414 10.9902 29.3414C11.0754 28.6641 11.1403 28.0432 11.2321 27.4285C11.3708 26.5066 11.5364 25.5909 11.6752 24.6689C11.8789 23.3225 12.067 21.9741 12.2639 20.6256C12.4631 19.2751 12.6646 17.9266 12.8638 16.5761C12.9847 15.7524 13.0989 14.9266 13.2242 14.105C13.2756 13.76 13.4659 13.6074 13.8778 13.6178C14.9857 13.645 16.0961 13.6471 17.2063 13.6178C17.7076 13.6053 17.8375 13.7997 17.8845 14.2283C18.0881 16.0994 18.3209 17.9684 18.556 19.8375C18.762 21.487 18.9746 23.1365 19.2029 24.786C19.3932 26.1679 19.5946 27.5477 19.8184 28.9233C19.8677 29.2306 19.7401 29.3331 19.467 29.3373C18.7329 29.3477 17.9986 29.3582 17.2667 29.3289C17.1346 29.3247 16.9175 29.1512 16.8951 29.0299C16.7496 28.2627 16.6467 27.4871 16.5347 26.7156C16.4945 26.4376 16.4631 26.1574 16.4206 25.8313L16.4184 25.8292ZM15.3305 16.4548L15.2499 16.4695C15.1694 16.8416 15.0641 17.2116 15.0149 17.5859C14.8537 18.8235 14.7149 20.0632 14.5672 21.303C14.4933 21.9302 14.4038 22.5553 14.3568 23.1846C14.3479 23.2933 14.5112 23.5065 14.6052 23.5128C15.0977 23.5462 15.5924 23.5274 16.1677 23.5274C15.8833 21.1148 15.6058 18.7859 15.3305 16.4548Z" fill="black"/>
<path d="M42.6349 29.339C41.6874 29.3418 41.1599 28.9084 41.0524 28.0387C40.9786 27.4616 40.8891 26.8867 40.8062 26.3118C40.7524 25.9355 40.551 25.7661 40.119 25.8017C39.6937 25.8372 39.2572 25.8372 38.832 25.8017C38.3485 25.7641 38.2208 25.9815 38.1851 26.3808C38.1045 27.24 37.9724 28.0951 37.8874 28.9544C37.8605 29.222 37.771 29.3453 37.4688 29.339C36.8778 29.3265 36.2869 29.3307 35.6982 29.339C35.396 29.3432 35.2774 29.2345 35.3244 28.946C35.4834 27.9592 35.6333 26.9724 35.781 25.9857C35.9198 25.0491 36.0407 24.1104 36.1839 23.1738C36.3317 22.2058 36.5062 21.242 36.654 20.2741C36.7883 19.4023 36.898 18.5242 37.0301 17.6524C37.1823 16.6677 37.3479 15.6831 37.509 14.6984C37.5135 14.6649 37.5292 14.6336 37.536 14.6022C37.6642 13.9499 38.0813 13.6238 38.7872 13.6238C39.7183 13.6238 40.6495 13.6384 41.5785 13.6175C41.968 13.6092 42.1268 13.7513 42.1649 14.0984C42.2835 15.1918 42.4022 16.2852 42.5522 17.3744C42.7514 18.8232 42.9819 20.2678 43.19 21.7145C43.2506 22.1264 43.2729 22.5424 43.3244 22.9563C43.5124 24.4909 43.7026 26.0233 43.8974 27.5578C43.9556 28.0178 44.0183 28.4798 44.1167 28.9355C44.1817 29.2366 44.0608 29.339 43.7653 29.3411C43.3893 29.3411 43.0133 29.3411 42.6372 29.3411L42.6349 29.339ZM39.6579 16.5967C39.6109 16.5925 39.5639 16.5862 39.5169 16.582C39.405 17.2782 39.2751 17.9723 39.1834 18.6706C39.0178 19.9228 38.8297 21.1751 38.738 22.4337C38.6439 23.7382 38.4245 23.5062 39.7385 23.5292C39.8101 23.5292 39.8818 23.5229 39.9534 23.5292C40.3204 23.5626 40.4637 23.4539 40.4101 23.0734C40.2623 22.0197 40.1571 20.9598 40.0362 19.9019C39.9086 18.7981 39.7832 17.6963 39.6579 16.5925V16.5967Z" fill="black"/>
<path d="M124.106 13.6367H128.57C129.258 18.8194 129.944 23.9853 130.642 29.2453C129.695 29.2453 128.791 29.2579 127.889 29.2265C127.797 29.2244 127.663 28.9756 127.641 28.8272C127.495 27.8425 127.374 26.8536 127.239 25.8271H124.773C124.65 26.8014 124.507 27.7672 124.42 28.7394C124.386 29.1157 124.27 29.2767 123.846 29.262C123.173 29.2391 122.494 29.2558 121.756 29.2558C122.544 24.0167 123.318 18.8528 124.104 13.6367H124.106ZM126.123 16.4298C126.074 16.4319 126.026 16.4361 125.978 16.4381C125.679 18.7692 125.384 21.1002 125.084 23.4627H126.964C126.68 21.0877 126.403 18.7587 126.123 16.4277V16.4298Z" fill="black"/>
<path d="M5.79097 23.5788H8.3002C8.4233 25.038 8.3069 26.4053 7.68017 27.6785C7.04894 28.958 5.97675 29.627 4.39646 29.6207C2.88555 29.6165 1.8268 29.0479 1.12842 27.8123C0.658365 26.9823 0.342753 26.121 0.282317 25.1802C0.18159 23.675 0.00923453 22.1655 0.000281013 20.6582C-0.00867251 19.0986 0.19502 17.5431 0.799383 16.0672C1.24482 14.9759 1.90291 14.0372 3.12506 13.5626C4.6382 12.9772 6.67961 13.5375 7.33769 14.6915C7.65778 15.2539 7.93534 15.8623 8.07636 16.4811C8.24648 17.2212 8.242 17.9947 8.32929 18.7515C8.36958 19.1153 8.23976 19.2575 7.83013 19.2554C7.22577 19.2533 6.61917 19.3097 6.01481 19.3474C5.70367 19.3662 5.5828 19.2616 5.56265 18.9501C5.51565 18.2038 5.42164 17.4595 5.33434 16.7173C5.31868 16.5919 5.26271 16.4665 5.20003 16.3515C5.02768 16.0358 4.80384 15.6637 4.38079 15.8184C4.08084 15.9271 3.7339 16.2281 3.65556 16.5062C3.45634 17.2086 3.31532 17.9425 3.29966 18.6679C3.25489 20.7188 3.2616 22.7718 3.29966 24.8227C3.30861 25.3955 3.47873 25.9663 3.59736 26.5349C3.6869 26.9614 3.99132 27.2165 4.45242 27.2123C4.90905 27.2081 5.23809 26.9405 5.33434 26.5391C5.49326 25.8806 5.58952 25.2053 5.69472 24.5363C5.74621 24.2102 5.76411 23.8819 5.79321 23.5767L5.79097 23.5788Z" fill="black"/>
<path d="M161.012 16.0765V20.0319C161.764 20.0319 162.51 20.0549 163.251 20.0236C163.7 20.0048 163.848 20.1427 163.821 20.5609C163.785 21.0919 163.794 21.6292 163.821 22.1623C163.837 22.4968 163.678 22.6159 163.353 22.618C162.726 22.618 162.1 22.6348 161.475 22.6222C161.12 22.6159 160.972 22.7079 160.981 23.078C161.007 24.1944 161 25.3129 160.981 26.4313C160.974 26.7951 161.122 26.8955 161.482 26.8892C162.483 26.8745 163.485 26.8913 164.486 26.8725C164.886 26.8641 165.018 27 165.001 27.37C164.972 27.9679 164.995 28.5659 164.995 29.216H157.847C157.847 29.0237 157.847 28.846 157.847 28.6662C157.847 23.8431 157.849 19.0201 157.836 14.197C157.836 13.7789 157.932 13.6033 158.427 13.6095C160.376 13.6325 162.326 13.6283 164.275 13.6095C164.707 13.6053 164.9 13.7161 164.868 14.1447C164.838 14.5754 164.836 15.0144 164.873 15.4451C164.918 15.9238 164.737 16.1036 164.213 16.0827C163.356 16.0514 162.496 16.0723 161.636 16.0723C161.445 16.0723 161.25 16.0723 161.012 16.0723V16.0765Z" fill="black"/>
<path d="M0.015625 37.1899V36.0547H54.838V37.1899H0.015625Z" fill="black"/>
<path d="M164.666 36.0508V37.1798H109.863V36.0508H164.666Z" fill="black"/>
<path d="M54.8876 26.9209C54.8876 27.6756 54.9122 28.3739 54.8607 29.0659C54.854 29.1704 54.5003 29.3293 54.3055 29.3314C52.6604 29.3523 51.0152 29.346 49.3699 29.3377C48.9088 29.3356 48.291 29.461 48.0337 29.2373C47.7941 29.0303 47.9195 28.4366 47.9195 28.0122C47.915 23.7243 47.9172 19.4365 47.915 15.1486C47.915 14.7681 47.9262 14.3834 47.8926 14.005C47.8613 13.6642 48.0493 13.6182 48.3426 13.6224C49.041 13.6308 49.7393 13.6433 50.4354 13.6182C50.8428 13.6036 50.9548 13.7458 50.9525 14.1116C50.9391 16.38 50.9458 18.6504 50.9458 20.9187C50.9458 22.7208 50.9569 24.523 50.9368 26.3251C50.9323 26.7704 51.0532 26.9481 51.5681 26.9314C52.6515 26.8958 53.7393 26.9209 54.8876 26.9209Z" fill="black"/>
</g>
</g>
</g>
</g>
<defs>
<clipPath id="clip0_2743_14634">
<rect width="165" height="43" fill="white" transform="translate(0.203125)"/>
</clipPath>
<clipPath id="clip1_2743_14634">
<rect width="165" height="43" fill="white" transform="translate(0.203125)"/>
</clipPath>
<clipPath id="clip2_2743_14634">
<rect width="165" height="43" fill="white"/>
</clipPath>
</defs>
</svg>
