<svg width="24" height="24" viewBox="0 0 24 24" fill="none" xmlns="http://www.w3.org/2000/svg">
<path fill-rule="evenodd" clip-rule="evenodd" d="M13.2518 2.30621C13.5683 2.43611 13.7568 2.76377 13.7099 3.10269L12.8607 9.25005H19.25C19.5338 9.25005 19.7933 9.41025 19.9205 9.66398C20.0477 9.9177 20.0207 10.2215 19.8509 10.4489L11.6339 21.4489C11.4291 21.723 11.0648 21.8238 10.7483 21.6939C10.4318 21.564 10.2432 21.2363 10.2901 20.8974L11.1393 14.75H4.75C4.46619 14.75 4.20668 14.5898 4.07951 14.3361C3.95233 14.0824 3.97929 13.7786 4.14914 13.5512L12.3662 2.55122C12.5709 2.2771 12.9353 2.17631 13.2518 2.30621ZM6.24641 13.25H12C12.2168 13.25 12.423 13.3439 12.5654 13.5074C12.7079 13.6708 12.7727 13.8879 12.743 14.1027L12.1743 18.219L17.7536 10.7501H12C11.7832 10.7501 11.577 10.6562 11.4346 10.4928C11.2921 10.3293 11.2274 10.1122 11.2571 9.89745L11.8257 5.78113L6.24641 13.25Z" fill="black"/>
</svg>
