<svg width="24" height="24" viewBox="0 0 24 24" fill="none" xmlns="http://www.w3.org/2000/svg">
<path d="M20.122 14.879C21.294 16.051 21.294 17.95 20.122 19.122C18.95 20.294 17.051 20.294 15.879 19.122C14.707 17.95 14.707 16.051 15.879 14.879C17.051 13.707 18.951 13.707 20.122 14.879Z" stroke="black" stroke-width="1.5" stroke-linecap="round" stroke-linejoin="round"/>
<path d="M22.0001 21.0001L20.1211 19.1221" stroke="black" stroke-width="1.5" stroke-linecap="round" stroke-linejoin="round"/>
<path d="M13.4138 7.58624C14.1948 8.36724 14.1948 9.63324 13.4138 10.4142C12.6328 11.1952 11.3668 11.1952 10.5858 10.4142C9.80475 9.63324 9.80475 8.36724 10.5858 7.58624C11.3668 6.80524 12.6328 6.80524 13.4138 7.58624Z" stroke="black" stroke-width="1.5" stroke-linecap="round" stroke-linejoin="round"/>
<path d="M6.5 7.5V10.5" stroke="black" stroke-width="1.5" stroke-linecap="round" stroke-linejoin="round"/>
<path d="M17.5 7.5V10.5" stroke="black" stroke-width="1.5" stroke-linecap="round" stroke-linejoin="round"/>
<path d="M11 15H5C3.895 15 3 14.105 3 13V5C3 3.895 3.895 3 5 3H19C20.105 3 21 3.895 21 5V11" stroke="black" stroke-width="1.5" stroke-linecap="round" stroke-linejoin="round"/>
</svg>
