<svg width="24" height="24" viewBox="0 0 24 24" fill="none" xmlns="http://www.w3.org/2000/svg">
<path fill-rule="evenodd" clip-rule="evenodd" d="M18.1744 19.8316L20.1252 17.8808C20.6875 17.3182 21.0036 16.5553 21.0036 15.7599V7.99867C21.0036 5.23609 18.7641 2.99658 16.0015 2.99658H7.99817C5.23559 2.99658 2.99609 5.23609 2.99609 7.99867V16.002C2.99609 18.7646 5.23559 21.0041 7.99817 21.0041H15.3443C16.4058 21.0041 17.4239 20.5823 18.1744 19.8316Z" stroke="black" stroke-width="1.5" stroke-linecap="round" stroke-linejoin="round"/>
<path d="M12 7.59607V8.40393" stroke="black" stroke-width="1.5" stroke-linecap="round" stroke-linejoin="round"/>
<path d="M10 10.0196C10.1168 9.02699 11.005 8.30945 12 8.40385" stroke="black" stroke-width="1.5" stroke-linecap="round" stroke-linejoin="round"/>
<path d="M12 15.5963V14.7885" stroke="black" stroke-width="1.5" stroke-linecap="round" stroke-linejoin="round"/>
<path d="M14 13.1729C13.8832 14.1654 12.995 14.883 12 14.7886" stroke="black" stroke-width="1.5" stroke-linecap="round" stroke-linejoin="round"/>
<path d="M13.9491 9.66746C13.6482 8.86336 12.8569 8.35053 12 8.40424" stroke="black" stroke-width="1.5" stroke-linecap="round" stroke-linejoin="round"/>
<path d="M10.0508 13.5249C10.3517 14.329 11.143 14.8418 11.9999 14.7881" stroke="black" stroke-width="1.5" stroke-linecap="round" stroke-linejoin="round"/>
<path d="M10 10.0195C10 10.7036 10.4828 11.2925 11.1536 11.4267L12.8464 11.7652C13.5172 11.8994 14 12.4883 14 13.1724" stroke="black" stroke-width="1.5" stroke-linecap="round" stroke-linejoin="round"/>
<path d="M15 21.004V17.0023C15 15.8973 15.8958 15.0015 17.0009 15.0015H21.0025" stroke="black" stroke-width="1.5" stroke-linecap="round" stroke-linejoin="round"/>
</svg>
