<svg width="144" height="56" viewBox="0 0 144 56" fill="none" xmlns="http://www.w3.org/2000/svg">
<path fill-rule="evenodd" clip-rule="evenodd" d="M94.445 34.2001C91.471 34.2001 89.967 32.6341 89.967 30.3511V25.4821C89.967 23.1621 91.471 21.6341 94.444 21.6341C95.858 21.6341 97.31 21.8201 98.356 22.0291L98.025 24.5011C96.96 24.3311 95.326 24.1991 94.445 24.1991C93.069 24.1991 92.719 24.9341 92.719 25.9161V29.8601C92.719 30.8421 93.069 31.6531 94.444 31.6531C94.994 31.6531 95.363 31.6341 96.08 31.5391V26.7851H98.667V33.5971C97.327 33.9931 95.858 34.2001 94.445 34.2001ZM53.233 21.6341V30.3511C53.233 32.2571 52.02 34.2011 48.399 34.2011C44.779 34.2011 43.566 32.2571 43.566 30.3511V21.6341H46.454V30.0851C46.454 31.1051 46.956 31.6891 48.399 31.6891C49.845 31.6891 50.344 31.1041 50.344 30.0851V21.6341H53.233ZM131.533 21.6341V30.3511C131.533 32.2571 130.441 34.2011 127.182 34.2011C123.924 34.2011 122.833 32.2571 122.833 30.3511V21.6341H125.432V30.0851C125.432 31.1051 125.882 31.6891 127.182 31.6891C128.482 31.6891 128.932 31.1041 128.932 30.0851V21.6341H131.533ZM76.427 21.6341V23.9151H71.479V26.7841H76.434V28.9931H71.479V31.9161H76.427V34.2001H68.719V21.6331H76.427V21.6341ZM41.607 21.6341V23.9151H36.659V26.7841H41.614V28.9931H36.66V31.9161H41.608V34.2001H33.9V21.6331H41.607V21.6341ZM120.898 30.3501C120.898 32.2571 119.587 34.2001 116.066 34.2001C112.543 34.2001 111.232 32.2571 111.232 30.3501V25.4851C111.232 23.5771 112.543 21.6341 116.066 21.6341C119.587 21.6341 120.899 23.5771 120.899 25.4841L120.898 30.3501ZM118.089 25.7301C118.089 24.7481 117.47 24.1431 116.066 24.1431C114.66 24.1431 114.042 24.7481 114.042 25.7301V30.1051C114.042 31.0861 114.66 31.6901 116.066 31.6901C117.47 31.6901 118.089 31.0861 118.089 30.1051V25.7301ZM141.995 24.1321V24.1031H141.993C141.88 22.5991 140.893 21.6781 138.468 21.6781H133.575V34.1471H136.366V29.0551H138.468C141.055 29.0551 142 28.0071 142 26.3221C142 26.3221 142 24.2241 141.995 24.1321ZM136.366 23.9431H138.096C138.879 23.9431 139.213 24.2811 139.213 24.8251V25.9091C139.213 26.4531 138.877 26.7901 138.096 26.7901H136.366V23.9431ZM31.967 25.3271V24.6341C31.967 22.8611 30.872 21.6341 28.447 21.6341H23.267V34.2001H28.447C30.872 34.2001 31.967 32.9741 31.967 31.2001V29.9731C31.967 28.8031 31.182 27.8981 30.18 27.6531H30.186L30.182 27.6511C30.189 27.6481 30.192 27.6451 30.197 27.6441C30.7089 27.5119 31.1617 27.2117 31.4826 26.7916C31.8036 26.3715 31.9741 25.8557 31.967 25.3271ZM29.23 30.8231C29.23 31.7291 28.556 31.9171 27.697 31.9171H26.002V28.9931H28.082C28.812 28.9931 29.23 29.3511 29.23 30.0491V30.8231ZM26.002 23.9161H27.7C28.557 23.9161 29.232 24.1051 29.232 25.0111V25.7281C29.232 26.4261 28.812 26.7841 28.082 26.7841H26.003L26.002 23.9161ZM103.335 31.9161V28.9921H105.414C106.144 28.9921 106.563 29.3511 106.563 30.0481V34.2001H109.3V29.9731C109.307 29.4413 109.134 28.9228 108.81 28.5015C108.485 28.0802 108.028 27.7809 107.512 27.6521H107.518L107.515 27.6501C107.521 27.6471 107.524 27.6441 107.53 27.6431C108.042 27.5113 108.495 27.2113 108.816 26.7913C109.137 26.3713 109.307 25.8556 109.3 25.3271V24.6341C109.3 22.8601 108.204 21.6341 105.779 21.6341H100.599V34.2001H103.335V31.9161ZM103.335 23.9161H105.03C105.888 23.9161 106.563 24.1041 106.563 25.0101V25.7271C106.563 26.4261 106.144 26.7831 105.414 26.7831H103.335V23.9161ZM81.405 31.9161V28.9921H83.717C84.528 28.9921 84.993 29.3511 84.993 30.0481V34.2001H88.033V29.9731C88.033 28.8031 87.161 27.8971 86.046 27.6521H86.053L86.051 27.6501C86.056 27.6471 86.0614 27.6447 86.067 27.6431C87.171 27.3911 88.032 26.4891 88.032 25.3271V24.6341C88.032 22.8601 86.816 21.6341 84.122 21.6341H78.366V34.2001H81.405V31.9161ZM81.405 23.9161H83.29C84.242 23.9161 84.992 24.1041 84.992 25.0101V25.7271C84.992 26.4261 84.529 26.7831 83.716 26.7831H81.405V23.9161ZM9.29 34.0461C7.85482 33.7846 6.55713 33.0273 5.62365 31.9062C4.69017 30.7852 4.18025 29.3718 4.183 27.9131C4.17978 26.4539 4.68948 25.0401 5.623 23.9186C6.55653 22.7972 7.85448 22.0395 9.29 21.7781V19.5601C5.183 20.1001 2 23.6351 2 27.9131C2 32.1891 5.183 35.7251 9.29 36.2661V34.0461ZM11.667 19.7001V21.8831C14.36 22.3941 16.407 24.8981 16.407 27.9171C16.407 30.9361 14.36 33.4401 11.667 33.9511V36.1331C15.479 35.6011 18.434 32.1241 18.434 27.9171C18.434 23.7101 15.478 20.2321 11.667 19.7001Z" fill="#555B7D"/>
<path fill-rule="evenodd" clip-rule="evenodd" d="M11.4717 36.265C11.1099 36.3156 10.7451 36.3423 10.3797 36.345C10.0147 36.3423 9.65024 36.3156 9.28872 36.265V38.551H7.76172L10.3797 44.833L12.9987 38.55H11.4727V36.264L11.4717 36.265ZM9.64372 19.578C10.0007 19.527 10.3597 19.5 10.7197 19.498C11.0857 19.498 11.4427 19.53 11.7967 19.578V17.296L12.6757 16.403V11L10.7207 13L8.76572 11V16.403L9.64372 17.296V19.578ZM10.7197 21.698C10.3517 21.698 9.99272 21.738 9.64372 21.801V34.097C9.99372 34.161 10.3517 34.2 10.7197 34.2C11.0808 34.1984 11.4409 34.1639 11.7957 34.097V21.802C11.4408 21.7358 11.0807 21.7017 10.7197 21.7V21.698ZM63.6007 21.701L60.6077 30.769L57.6137 21.7H54.4497V34.196H57.0317V26.713L59.5197 34.193H61.6957L64.1827 26.713V34.196H66.7647V21.701H63.6007Z" fill="#555B7D"/>
</svg>
