<svg width="144" height="56" viewBox="0 0 144 56" fill="none" xmlns="http://www.w3.org/2000/svg">
<path d="M85.2355 31.2771C84.8466 31.8017 84.3382 32.2261 83.7525 32.5151C82.2575 33.2221 80.5845 32.7871 79.6725 32.1201C79.3875 31.9161 79.1975 31.6851 79.1565 31.6451C78.7625 31.1951 78.4905 30.6251 78.3545 29.9451H87.9145C87.9825 29.4821 88.0095 29.1151 88.0095 28.8291C88.0095 27.0211 87.4525 25.4701 86.3095 24.2061C85.1805 22.9411 83.7395 22.3021 81.9715 22.3021C80.1085 22.3021 78.5985 22.9271 77.4015 24.1651C76.2195 25.4161 75.6215 26.9531 75.6215 28.8021C75.6215 30.6791 76.2195 32.2421 77.4155 33.4671C77.7695 33.8201 78.1505 34.1331 78.5715 34.3921C80.1495 35.3571 81.8495 35.3301 82.1485 35.3161C82.6925 35.3031 84.5285 35.2081 86.0785 33.8061C86.5555 33.3791 86.9556 32.8734 87.2615 32.3111C86.6225 31.9711 85.9285 31.6171 85.2355 31.2771ZM79.5645 25.5381C80.2045 24.9941 81.0055 24.7221 81.9715 24.7221C82.8145 24.7221 83.5625 24.9811 84.1885 25.4841C84.8275 26.0011 85.2215 26.7491 85.3985 27.7551H78.3415C78.5185 26.8301 78.9255 26.0821 79.5645 25.5381ZM109.797 22.7101H112.38V34.9361H109.797V33.5221C108.674 34.6084 107.183 35.23 105.622 35.2621C103.976 35.2621 102.575 34.6371 101.406 33.3851C100.236 32.1351 99.6655 30.6251 99.6655 28.8301C99.6655 27.0211 100.25 25.4981 101.406 24.2601C102.045 23.5801 102.766 23.0771 103.568 22.7781C104.222 22.5257 104.92 22.4011 105.622 22.4111C106.152 22.4111 107.349 22.4111 108.586 23.1311C109.157 23.4711 109.552 23.8521 109.81 24.1241C109.797 23.6341 109.797 23.1721 109.797 22.7101ZM103.31 31.6181C104.031 32.3661 104.928 32.7331 106.016 32.7331C107.104 32.7331 108.002 32.3661 108.722 31.6181C109.443 30.8701 109.797 29.9451 109.797 28.8161C109.797 27.6871 109.443 26.7631 108.722 26.0151C108.002 25.2671 107.104 24.9001 106.016 24.9001C104.928 24.9001 104.031 25.2671 103.31 26.0151C102.589 26.7631 102.235 27.6871 102.235 28.8161C102.235 29.9451 102.589 30.8701 103.31 31.6181ZM68.6575 28.0001C68.6445 28.2301 68.6445 28.5571 68.6575 28.9381C68.7255 30.5701 68.7935 31.9701 69.7325 33.2211C71.0645 34.9891 73.2405 35.2611 73.4315 35.2891C73.7435 35.3161 74.0015 35.3161 74.1925 35.3161H74.8585V32.7181H74.2475C73.4445 32.7051 72.9415 32.4191 72.7235 32.2691C71.6225 31.5351 71.4315 30.1481 71.3775 29.8221C71.3405 29.5743 71.3177 29.3245 71.3095 29.0741C71.2825 28.6241 71.2825 28.2581 71.2825 27.9991V24.8581H74.8585V22.3281H71.2825V18.6431C70.3715 18.8881 69.4875 19.2141 68.6445 19.6231V27.9991L68.6575 28.0001ZM97.1885 22.4521C96.1555 25.4441 95.1215 28.4491 94.0885 31.4421C93.2669 29.6995 92.4913 27.9355 91.7625 26.1521C91.2455 24.8861 90.7825 23.6621 90.3345 22.4521H87.4245C88.6615 25.4031 89.6415 27.7561 90.3745 29.4691C90.8925 30.6121 91.4085 31.7681 91.9255 32.9091C92.0075 33.0591 92.1025 33.3181 92.1845 33.6171C92.2795 33.9571 92.3885 34.3921 92.3065 34.8951C92.1565 35.7391 91.5045 36.2421 91.2325 36.4451C90.7893 36.79 90.2649 37.0152 89.7095 37.0991V39.8321C90.2986 39.7625 90.8751 39.6114 91.4225 39.3831C92.0755 39.1111 92.9595 38.6081 93.9245 37.4931C94.8635 36.4181 95.4205 35.3171 96.3595 32.9231C97.3655 30.3401 97.8415 28.7081 98.9565 25.4431C99.2973 24.4385 99.6463 23.4368 100.004 22.4381L97.1885 22.4521Z" fill="#555B7D"/>
<path fill-rule="evenodd" clip-rule="evenodd" d="M54.73 13H37.257C35.5977 13 34.0064 13.6591 32.833 14.8323C31.6596 16.0055 31.0003 17.5967 31 19.256V36.744C31.0003 38.4031 31.6595 39.9942 32.8326 41.1674C34.0058 42.3405 35.5969 42.9997 37.256 43H54.744C56.4031 42.9997 57.9942 42.3405 59.1674 41.1674C60.3405 39.9942 60.9997 38.4031 61 36.744V19.256C60.986 15.802 58.185 13 54.73 13ZM37.216 25.783V20.588C40.167 20.588 42.86 21.717 44.886 23.552C43.6765 24.9664 42.7902 26.6287 42.289 28.421C41.7164 27.6073 40.9567 26.9429 40.0739 26.4838C39.1911 26.0248 38.211 25.7844 37.216 25.783ZM54.772 25.783C53.135 25.7846 51.5656 26.4356 50.4081 27.5931C49.2506 28.7506 48.5996 30.32 48.598 31.957V35.398H43.39V31.958C43.3902 30.9513 43.523 29.949 43.785 28.977C44.2089 27.4146 44.9594 25.9599 45.987 24.709C47.0553 23.4139 48.3972 22.3714 49.9164 21.6566C51.4355 20.9419 53.0941 20.5725 54.773 20.575L54.772 25.783Z" fill="#555B7D"/>
</svg>
