<svg width="24" height="24" viewBox="0 0 24 24" fill="none" xmlns="http://www.w3.org/2000/svg">
<g clip-path="url(#clip0_4222_35771)">
<mask id="mask0_4222_35771" style="mask-type:luminance" maskUnits="userSpaceOnUse" x="0" y="0" width="24" height="24">
<path d="M0 0H24V24H0V0Z" fill="white"/>
</mask>
<g mask="url(#mask0_4222_35771)">
<path fill-rule="evenodd" clip-rule="evenodd" d="M9.39881 16.341C8.91734 16.3375 8.43998 16.4298 7.99449 16.6125C7.549 16.7951 7.14426 17.0645 6.8038 17.405C6.46334 17.7454 6.19395 18.1502 6.01129 18.5957C5.82864 19.0412 5.73635 19.5185 5.73981 20C5.73981 20.1965 5.66174 20.385 5.52278 20.524C5.38381 20.6629 5.19534 20.741 4.99881 20.741C4.80229 20.741 4.61381 20.6629 4.47485 20.524C4.33588 20.385 4.25781 20.1965 4.25781 20C4.25781 17.08 6.60081 14.859 9.39881 14.859H14.4988C17.4188 14.859 19.6398 17.202 19.6398 20C19.6398 20.1965 19.5617 20.385 19.4228 20.524C19.2838 20.6629 19.0953 20.741 18.8988 20.741C18.7023 20.741 18.5138 20.6629 18.3748 20.524C18.2359 20.385 18.1578 20.1965 18.1578 20C18.1613 19.5185 18.069 19.0412 17.8863 18.5957C17.7037 18.1502 17.4343 17.7454 17.0938 17.405C16.7534 17.0645 16.3486 16.7951 15.9031 16.6125C15.4576 16.4298 14.9803 16.3375 14.4988 16.341H9.39881ZM14.4768 5.73799C13.8065 5.102 12.9172 4.74812 11.9932 4.74961C11.0692 4.7511 10.1811 5.10784 9.51281 5.74599C8.15681 7.02299 8.18781 9.24399 9.54481 10.686C10.8218 12.042 13.0428 12.011 14.4848 10.654C15.8588 9.36099 15.8848 7.15499 14.4768 5.73799ZM15.5098 4.65099C14.5616 3.75103 13.304 3.24955 11.9967 3.25011C10.6894 3.25067 9.43225 3.75322 8.48481 4.65399C6.44081 6.57699 6.60981 9.75599 8.45281 11.714C10.3758 13.758 13.5548 13.589 15.5128 11.746C17.5358 9.84199 17.5128 6.65599 15.5328 4.67199C15.5289 4.66862 15.5249 4.66528 15.5208 4.66199L15.5108 4.65199L15.5098 4.65099Z" fill="black"/>
</g>
</g>
<defs>
<clipPath id="clip0_4222_35771">
<rect width="24" height="24" fill="white"/>
</clipPath>
</defs>
</svg>
