<svg width="24" height="24" viewBox="0 0 24 24" fill="none" xmlns="http://www.w3.org/2000/svg">
<path d="M10 15.9H3.9C2.85 15.9 2 15.05 2 14V4.9C2 3.85 2.85 3 3.9 3H19.1C20.15 3 21 3.85 21 4.9V12" stroke="black" stroke-width="1.5" stroke-linecap="round" stroke-linejoin="round"/>
<path d="M13.1793 7.9709C14.1063 8.8979 14.1063 10.4019 13.1793 11.3299C12.2523 12.2569 10.7483 12.2569 9.82025 11.3299C8.89325 10.4029 8.89325 8.8989 9.82025 7.9709C10.7483 7.0429 12.2523 7.0429 13.1793 7.9709Z" stroke="black" stroke-width="1.5" stroke-linecap="round" stroke-linejoin="round"/>
<path fill-rule="evenodd" clip-rule="evenodd" d="M13.5603 18.306C13.2403 17.821 13.2403 17.181 13.5603 16.696C14.5503 15.199 16.1043 14 17.6593 14C19.2143 14 20.7673 15.199 21.7583 16.695C22.0793 17.18 22.0793 17.821 21.7583 18.305C20.7663 19.801 19.2133 21 17.6593 21C16.1043 21.001 14.5503 19.802 13.5603 18.306Z" stroke="black" stroke-width="1.5" stroke-linecap="round" stroke-linejoin="round"/>
<path d="M17.7749 17.384C17.8399 17.449 17.8399 17.553 17.7749 17.618C17.7099 17.683 17.6059 17.683 17.5409 17.618C17.4759 17.553 17.4759 17.449 17.5409 17.384C17.6059 17.319 17.7109 17.319 17.7749 17.384Z" stroke="black" stroke-width="1.5" stroke-linecap="round" stroke-linejoin="round"/>
<path d="M6 13H5" stroke="black" stroke-width="1.5" stroke-linecap="round" stroke-linejoin="round"/>
<path d="M18 6H17" stroke="black" stroke-width="1.5" stroke-linecap="round" stroke-linejoin="round"/>
</svg>
