<svg width="144" height="56" viewBox="0 0 144 56" fill="none" xmlns="http://www.w3.org/2000/svg">
<path fill-rule="evenodd" clip-rule="evenodd" d="M20.42 25.075C20.414 27.461 19.237 28.595 17.702 28.816L17.672 28.818L17.682 21.515C17.722 21.514 17.762 21.512 17.803 21.512C19.403 21.475 20.427 22.52 20.421 25.018L20.42 25.075ZM17.294 18.265L14 18.27V39C15.218 38.792 16.437 38.59 17.658 38.394L17.667 32.068L17.697 32.065C21.425 31.377 24.085 29.082 24.101 24.777V24.722C24.118 20.26 21.314 18.286 17.294 18.266V18.265ZM29.941 33.07C29.937 33.967 29.347 34.481 28.761 34.549C28.144 34.621 27.677 34.246 27.683 32.822L27.685 32.446C27.691 31.076 28.163 30.5 28.867 30.44C29.161 30.413 29.689 30.53 29.953 30.639L29.941 33.07ZM28.316 22.524C27.2309 22.5696 26.1637 22.8168 25.169 23.253L25.157 26.314C25.921 25.912 26.863 25.539 27.773 25.492C29.213 25.422 29.973 26.15 29.967 27.6L29.963 28.446C29.289 28.149 28.614 28.006 27.88 28.059C25.794 28.197 24.382 29.677 24.37 32.986L24.368 33.453C24.358 36.156 25.583 37.622 27.312 37.379C28.426 37.226 29.279 36.525 29.901 35.293L29.894 36.799C31.048 36.653 32.202 36.513 33.358 36.379L33.406 27.182C33.415 25.555 32.951 24.337 32.014 23.538C31.166 22.812 30.02 22.472 28.316 22.524ZM40.721 27.943C39.121 26.697 38.861 26.353 38.863 25.833C38.866 25.288 39.336 24.895 40.183 24.866C41.001 24.836 41.818 25.078 42.547 25.367L42.563 22.543C41.7252 22.3212 40.8591 22.2248 39.993 22.257C37.335 22.308 35.543 23.771 35.533 26.036V26.086C35.524 27.813 36.596 28.965 38.167 30.176C39.65 31.317 39.911 31.711 39.907 32.256C39.904 32.921 39.434 33.356 38.617 33.427C37.827 33.497 36.837 33.237 35.672 32.81L35.655 35.745C36.645 36.02 37.813 36.144 38.835 36.039C41.319 35.781 43.229 34.186 43.241 31.938V31.889C43.249 30.409 42.641 29.412 40.721 27.943ZM49.755 27.484C48.155 26.262 47.895 25.928 47.898 25.428C47.901 24.902 48.369 24.53 49.215 24.508C50.032 24.488 50.849 24.727 51.577 25.015L51.591 22.281C50.7536 22.062 49.8892 21.9637 49.024 21.989C46.369 22.023 44.581 23.42 44.57 25.59V25.639C44.561 27.293 45.634 28.411 47.204 29.601C48.688 30.723 48.948 31.108 48.946 31.634C48.943 32.277 48.472 32.686 47.655 32.738C46.865 32.788 45.875 32.52 44.71 32.089L44.695 34.905C45.685 35.188 46.853 35.335 47.876 35.259C50.359 35.07 52.268 33.57 52.278 31.39V31.343C52.284 29.909 51.675 28.928 49.755 27.484ZM60.428 28.83C60.422 31.024 59.997 32.237 59.095 32.268C58.192 32.298 57.686 31.11 57.695 28.898C57.695 28.618 57.695 28.339 57.697 28.06C57.705 25.826 58.22 24.631 59.12 24.618C60.021 24.606 60.438 25.78 60.43 27.998C60.43 28.274 60.43 28.553 60.428 28.83ZM60.569 21.987C59.009 21.999 58.255 23.051 57.743 23.803L57.748 22.244L54.208 22.284C54.187 27.502 54.163 32.719 54.141 37.937C55.324 37.862 56.508 37.796 57.692 37.736L57.709 33.2C58.246 33.926 58.965 34.89 60.53 34.834C62.457 34.767 63.964 33.282 63.974 28.899L63.976 27.797C63.984 23.367 62.489 21.974 60.569 21.987ZM71.644 28.779C71.644 31.172 71.11 32.325 70.221 32.329C69.331 32.333 68.798 31.186 68.801 28.789V27.959C68.803 25.516 69.338 24.408 70.225 24.406C71.112 24.404 71.646 25.51 71.645 27.95L71.644 28.779ZM70.225 21.988C67.388 21.988 65.315 24.058 65.306 28.037L65.305 28.777C65.297 32.759 67.371 34.764 70.22 34.747C73.07 34.732 75.143 32.707 75.14 28.742V28.005C75.136 24.04 73.065 21.983 70.225 21.988ZM80.535 23.625L80.532 22.112C79.354 22.105 78.177 22.1 77 22.096L77.016 34.147C78.197 34.164 79.378 34.187 80.559 34.216C80.555 32.063 80.549 29.91 80.544 27.758C80.541 26.039 81.378 25.192 83.054 25.214H83.114L83.104 21.994C81.758 21.916 81.011 22.591 80.535 23.625ZM89.947 32.577C89.32 32.549 88.96 32.321 88.957 31.76L88.927 24.535C89.554 24.547 90.181 24.559 90.807 24.573C90.805 23.818 90.801 23.063 90.797 22.308C90.171 22.298 89.544 22.291 88.918 22.284L88.905 19.07L85.387 19.063L85.397 22.246L84.443 22.237L84.45 24.462L85.406 24.476L85.433 32.56C85.439 34.44 87.056 34.924 88.733 35.007C89.45 35.042 90.287 34.899 90.823 34.694L90.813 32.476C90.514 32.556 90.216 32.59 89.947 32.577ZM98.375 32.398C96.724 32.284 95.568 31.301 95.545 26.854L95.543 26.229C95.521 22.024 96.665 20.879 98.254 20.898C98.932 20.908 99.521 21.108 100.26 21.492C100.255 20.459 100.25 19.426 100.243 18.393C99.477 18.097 98.887 17.999 97.886 18C94.53 18.013 91.861 20.32 91.886 26.135L91.89 26.705C91.915 32.478 94.437 34.973 97.742 35.245C98.774 35.327 99.57 35.27 100.393 34.948L100.377 31.996C99.642 32.314 98.936 32.436 98.375 32.398ZM106.138 33.37C105.522 33.315 105.05 32.884 105.043 31.59L105.04 31.249C105.033 30.007 105.501 29.549 106.205 29.592C106.499 29.612 107.028 29.793 107.294 29.937L107.306 32.213C107.311 33.055 106.726 33.421 106.138 33.37ZM109.283 23.421C108.427 22.668 107.279 22.293 105.576 22.255C104.51 22.2414 103.449 22.4053 102.436 22.74L102.452 25.436C103.213 25.153 104.152 24.895 105.063 24.929C106.503 24.982 107.27 25.73 107.278 27.093L107.282 27.884C106.605 27.524 105.928 27.317 105.194 27.279C103.108 27.178 101.704 28.315 101.721 31.185L101.723 31.592C101.737 33.937 102.98 35.482 104.713 35.657C105.829 35.768 106.677 35.316 107.288 34.287L107.296 35.697C108.451 35.817 109.605 35.944 110.759 36.077L110.711 27.081C110.702 25.489 110.227 24.251 109.283 23.421ZM116.423 24.406L116.415 22.626C115.239 22.588 114.063 22.553 112.886 22.519L112.956 36.43C114.13 36.572 115.305 36.72 116.478 36.873C116.466 34.3387 116.455 31.8043 116.444 29.27C116.435 27.256 117.268 26.29 118.94 26.386L119 26.389L118.985 22.545C117.64 22.422 116.896 23.207 116.423 24.406ZM125.231 35.022C124.328 34.902 123.903 33.42 123.896 30.735L123.893 29.727C123.887 27.07 124.306 25.639 125.213 25.691C126.119 25.74 126.636 27.258 126.639 29.98L126.64 31.009C126.643 33.758 126.134 35.146 125.231 35.022ZM126.591 18L126.601 24.688C126.056 23.741 125.328 22.494 123.755 22.446C121.819 22.391 120.311 24.066 120.33 29.256L120.334 30.564C120.353 35.808 121.866 37.69 123.793 37.994C125.357 38.24 126.106 37.08 126.617 36.237L126.62 38.152C127.803 38.34 128.985 38.534 130.166 38.734V18H126.591Z" fill="#555B7D"/>
</svg>
