<svg width="144" height="56" viewBox="0 0 144 56" fill="none" xmlns="http://www.w3.org/2000/svg">
<path d="M88.4219 3C88.4219 3 112.651 8.896 120.657 35.202C120.657 35.202 118.997 8.364 88.4219 3ZM115.777 5.545L112.748 10.91L117.935 7.688L115.777 5.545Z" fill="#555B7D"/>
<path d="M101.613 21.7502H103.176L105.608 19.5442C105.608 19.5442 106.317 18.9642 105.608 18.2392C104.9 17.5302 103.772 19.1092 103.772 19.1092L101.613 21.7502ZM73.487 42.8702V38.2002H74.518V41.9052H77.048V42.8712H73.488L73.487 42.8702ZM78.53 39.5042C78.272 39.7622 78.143 40.1002 78.143 40.5192C78.143 40.9392 78.272 41.2762 78.529 41.5342C78.6528 41.6598 78.8009 41.7589 78.9642 41.8254C79.1275 41.8919 79.3027 41.9245 79.479 41.9212C79.6555 41.9247 79.8308 41.8921 79.9943 41.8256C80.1578 41.7591 80.3061 41.6599 80.43 41.5342C80.688 41.2762 80.817 40.9382 80.817 40.5042C80.817 40.0842 80.688 39.7462 80.414 39.4882C80.2923 39.3643 80.1469 39.2663 79.9864 39.2C79.8259 39.1336 79.6537 39.1004 79.48 39.1022C79.11 39.1182 78.787 39.2472 78.53 39.5042ZM77.064 40.5352C77.064 39.8592 77.289 39.2952 77.756 38.8282C78.223 38.3612 78.787 38.1352 79.464 38.1352C80.14 38.1352 80.704 38.3612 81.171 38.8282C81.638 39.2952 81.864 39.8582 81.864 40.5512C81.864 41.2442 81.638 41.8082 81.171 42.2752C80.704 42.7422 80.141 42.9682 79.464 42.9682C78.787 42.9682 78.224 42.7422 77.756 42.2752C77.3064 41.8082 77.0579 41.1835 77.064 40.5352ZM84.506 41.1802V40.2452H86.68V42.1302C86.4471 42.3867 86.1616 42.59 85.843 42.7262C85.521 42.8712 85.166 42.9362 84.796 42.9362C84.055 42.9362 83.459 42.7102 82.976 42.2762C82.508 41.8242 82.266 41.2442 82.266 40.5362C82.266 39.8592 82.492 39.2792 82.943 38.8122C83.394 38.3442 83.974 38.1192 84.683 38.1192C85.086 38.1192 85.456 38.1992 85.811 38.3442C86.165 38.5052 86.407 38.6992 86.584 38.9572L85.875 39.6012C85.585 39.2792 85.215 39.1182 84.747 39.1182C84.329 39.1182 83.99 39.2462 83.733 39.4882C83.491 39.7462 83.362 40.0842 83.362 40.5192C83.362 40.9702 83.491 41.3092 83.765 41.5662C84.039 41.8082 84.393 41.9362 84.828 41.9362C85.166 41.9362 85.456 41.8402 85.714 41.6632V41.1632H84.506V41.1802ZM88.453 38.1992H87.422V42.8712H88.452L88.453 38.1992ZM91.595 41.8882C91.708 41.8082 91.772 41.7112 91.772 41.5822C91.772 41.4532 91.708 41.3572 91.579 41.2602C91.4301 41.1652 91.2671 41.0943 91.096 41.0502C90.902 41.0022 90.693 40.9382 90.467 40.8742C90.2506 40.8131 90.0404 40.7321 89.839 40.6322C89.6466 40.5335 89.4809 40.3898 89.356 40.2132C89.2246 40.0122 89.157 39.7763 89.162 39.5362C89.162 39.1502 89.324 38.8122 89.662 38.5382C90 38.2642 90.435 38.1182 90.967 38.1182C91.757 38.1182 92.368 38.4082 92.787 38.9732L92.094 39.6332C91.756 39.2632 91.37 39.0692 90.918 39.0692C90.451 39.0692 90.226 39.2142 90.226 39.5042C90.226 39.6172 90.29 39.6982 90.419 39.7782C90.548 39.8582 90.709 39.9072 90.902 39.9722C91.096 40.0202 91.305 40.0842 91.531 40.1492C91.756 40.2132 91.965 40.2942 92.159 40.3902C92.352 40.4872 92.513 40.6322 92.642 40.8252C92.771 41.0192 92.835 41.2452 92.835 41.5182C92.835 41.9372 92.675 42.2912 92.336 42.5812C91.998 42.8712 91.579 43.0002 91.079 43.0002C90.548 43.0002 90.097 42.8872 89.726 42.6782C89.356 42.4682 89.082 42.1952 88.921 41.8562L89.678 41.2282C89.839 41.4702 90.032 41.6792 90.274 41.8082C90.516 41.9532 90.774 42.0182 91.064 42.0182C91.289 42.0012 91.482 41.9692 91.595 41.8882ZM93.045 39.1652V38.2002H97.072V39.1662H95.574V42.8722H94.544V39.1662H93.044L93.045 39.1652ZM98.568 38.1992H97.538V42.8712H98.568V38.1992ZM103 41.3232L103.612 41.9832C103.404 42.2931 103.114 42.5389 102.774 42.6932C102.416 42.8615 102.026 42.9492 101.63 42.9502C100.905 42.9502 100.325 42.7242 99.89 42.2902C99.456 41.8552 99.246 41.2592 99.246 40.5342C99.246 39.8572 99.472 39.2772 99.923 38.8102C100.373 38.3432 100.953 38.1172 101.663 38.1172C102.081 38.1172 102.452 38.1972 102.79 38.3592C103.128 38.5202 103.37 38.7292 103.547 39.0032L102.855 39.6482C102.727 39.4759 102.554 39.342 102.355 39.2612C102.163 39.1724 101.954 39.1283 101.743 39.1322C101.324 39.1322 100.986 39.2622 100.712 39.5192C100.454 39.7772 100.325 40.1152 100.325 40.5492C100.325 40.9692 100.455 41.3072 100.728 41.5652C100.986 41.8222 101.324 41.9512 101.727 41.9512C102.242 41.9352 102.677 41.7412 103 41.3232ZM106.367 41.8872C106.479 41.8072 106.544 41.7102 106.544 41.5812C106.544 41.4512 106.479 41.3552 106.35 41.2592C106.201 41.1641 106.038 41.0932 105.867 41.0492C105.674 41.0012 105.464 40.9362 105.239 40.8722C105.023 40.8113 104.812 40.7303 104.611 40.6302C104.418 40.5317 104.252 40.388 104.127 40.2112C103.996 40.0105 103.929 39.7749 103.934 39.5352C103.934 39.1482 104.095 38.8102 104.433 38.5362C104.772 38.2622 105.207 38.1172 105.738 38.1172C106.528 38.1172 107.14 38.4072 107.559 38.9712L106.866 39.6312C106.528 39.2612 106.141 39.0682 105.69 39.0682C105.223 39.0682 104.997 39.2132 104.997 39.5032C104.997 39.6152 105.062 39.6962 105.191 39.7772C105.319 39.8572 105.481 39.9052 105.674 39.9702C105.867 40.0182 106.077 40.0832 106.302 40.1472C106.528 40.2122 106.737 40.2922 106.93 40.3892C107.124 40.4852 107.285 40.6302 107.414 40.8242C107.542 41.0172 107.607 41.2432 107.607 41.5162C107.607 41.9362 107.446 42.2902 107.108 42.5802C106.769 42.8702 106.35 42.9982 105.851 42.9982C105.319 42.9982 104.868 42.8862 104.498 42.6762C104.127 42.4662 103.853 42.1932 103.692 41.8552L104.45 41.2262C104.611 41.4682 104.804 41.6772 105.046 41.8062C105.287 41.9512 105.545 42.0162 105.835 42.0162C106.06 42.0002 106.238 41.9682 106.367 41.8872ZM29.348 30.0632H26.787V32.5922H29.203C30.025 32.5922 30.621 32.4952 30.959 32.3022C31.314 32.1092 31.475 31.7702 31.475 31.3032C31.475 30.8682 31.314 30.5462 30.991 30.3532C30.685 30.1592 30.138 30.0632 29.348 30.0632ZM29.171 25.2632H26.803V27.5502H29.413C29.96 27.5502 30.379 27.4532 30.669 27.2762C30.8042 27.1982 30.9159 27.0853 30.9924 26.9493C31.0689 26.8133 31.1075 26.6592 31.104 26.5032C31.104 26.0682 30.959 25.7622 30.685 25.5682C30.412 25.3752 29.896 25.2622 29.171 25.2622V25.2632ZM24 35.1842V22.6842H29.622C32.522 22.6842 33.972 23.7472 33.972 25.8902C33.972 26.9692 33.569 27.8712 32.747 28.5642C33.843 29.0792 34.39 30.0462 34.39 31.4792C34.39 32.7362 33.94 33.6702 33.053 34.2822C32.167 34.8952 30.975 35.2012 29.477 35.2012H24V35.1842ZM39.53 26.1972C38.82 26.9052 38.482 27.8072 38.482 28.9352C38.482 30.0472 38.837 30.9652 39.529 31.6742C40.239 32.3832 41.076 32.7212 42.074 32.7212C43.089 32.7212 43.944 32.3662 44.636 31.6742C45.312 30.9812 45.666 30.0632 45.666 28.9352C45.666 27.8242 45.313 26.9052 44.604 26.1972C43.894 25.4872 43.057 25.1502 42.091 25.1502C41.076 25.1502 40.223 25.4882 39.53 26.1972ZM35.566 28.9352C35.566 27.1312 36.195 25.6012 37.451 24.3442C38.708 23.0872 40.238 22.4752 42.058 22.4752C43.863 22.4752 45.409 23.0872 46.65 24.3282C47.906 25.5682 48.534 27.0982 48.534 28.9512C48.534 30.7882 47.906 32.3182 46.65 33.5592C45.393 34.7992 43.863 35.4112 42.058 35.4112C40.254 35.4112 38.708 34.7992 37.451 33.5592C36.211 32.3192 35.566 30.7722 35.566 28.9352ZM50.258 35.1862V22.6852H53.045V32.5922H59.843V35.1862H50.258ZM61.195 35.1862V22.6852H63.982V32.5922H70.78V35.1862H61.195ZM74.793 26.1972C74.083 26.9052 73.745 27.8072 73.745 28.9352C73.745 30.0472 74.1 30.9652 74.792 31.6742C75.502 32.3832 76.339 32.7212 77.338 32.7212C78.353 32.7212 79.206 32.3662 79.899 31.6742C80.576 30.9812 80.93 30.0632 80.93 28.9352C80.93 27.8242 80.576 26.9052 79.867 26.1972C79.158 25.4872 78.32 25.1502 77.354 25.1502C76.339 25.1502 75.501 25.4882 74.793 26.1972ZM70.846 28.9352C70.846 27.1312 71.474 25.6012 72.731 24.3442C73.987 23.0872 75.517 22.4752 77.338 22.4752C79.142 22.4752 80.688 23.0872 81.928 24.3282C83.185 25.5682 83.814 27.0982 83.814 28.9512C83.814 30.7882 83.185 32.3182 81.929 33.5592C80.672 34.7992 79.142 35.4112 77.338 35.4112C75.534 35.4112 73.987 34.7992 72.731 33.5592C71.474 32.3192 70.846 30.7722 70.846 28.9352ZM90.563 25.2622H88.307V28.3232H90.659C91.336 28.3232 91.868 28.1782 92.238 27.9202C92.608 27.6462 92.802 27.2602 92.802 26.7602C92.802 26.2772 92.641 25.9072 92.302 25.6492C91.98 25.3912 91.4 25.2622 90.562 25.2622H90.563ZM88.307 35.1852H85.52V22.6852H90.611C91.578 22.6852 92.399 22.7982 93.091 23.0232C93.785 23.2492 94.316 23.5552 94.671 23.9572C95.025 24.3602 95.299 24.7792 95.46 25.2302C95.621 25.6812 95.702 26.1972 95.702 26.7442C95.702 27.5502 95.476 28.2912 95.041 28.9672C94.6001 29.6218 93.9711 30.1274 93.237 30.4172L96.749 35.1852H93.382L90.305 30.9172H88.307V35.1852ZM97.925 35.1862V22.6852H107.542V25.2622H100.712V27.5982H107.091V30.0952H100.711V32.5922H107.703V35.1862H97.925Z" fill="#555B7D"/>
</svg>
