<svg width="144" height="56" viewBox="0 0 144 56" fill="none" xmlns="http://www.w3.org/2000/svg">
<path d="M44.3337 16.654C45.4017 16.413 46.4687 16.167 47.5357 15.93C47.9827 15.823 47.9827 15.832 47.9827 16.328V24.74C47.9827 24.86 47.9067 25.04 48.0577 25.102C48.2097 25.165 48.2637 25.004 48.3527 24.928C49.4334 23.9289 50.7633 23.2394 52.2027 22.932C54.7967 22.414 57.1767 23.405 57.7877 26.553C58.0477 27.893 57.9217 29.282 57.9357 30.648C57.9577 33.408 57.9357 36.172 57.9357 38.936C57.9357 39.311 57.8557 39.454 57.4447 39.445C56.0364 39.4227 54.6279 39.4227 53.2197 39.445C52.8627 39.445 52.7737 39.337 52.7737 38.998V28.067C52.7917 27.7432 52.7648 27.4184 52.6937 27.102C52.2867 25.696 50.9967 24.982 49.4197 25.316C49.0497 25.392 48.6927 25.517 48.3217 25.606C48.0537 25.674 47.9687 25.826 47.9737 26.102V39.061C47.9737 39.369 47.8707 39.458 47.5717 39.454H43.2267C42.8787 39.454 42.8027 39.337 42.8027 39.007V17.435C42.8027 17.042 42.9327 16.885 43.3027 16.885C43.6687 16.779 44.0077 16.756 44.3337 16.654ZM111.512 39.413H104.702C104.523 39.413 104.255 39.507 104.171 39.333C104.086 39.159 104.264 38.989 104.358 38.833C107.122 34.171 109.891 29.509 112.668 24.847C112.74 24.722 112.905 24.588 112.842 24.459C112.78 24.329 112.552 24.374 112.396 24.374C111.73 24.374 111.056 24.374 110.404 24.343C109.557 24.2842 108.721 24.5616 108.078 25.115C107.118 25.928 106.167 26.754 105.207 27.567C105.104 27.656 105.01 27.852 104.845 27.745C104.68 27.638 104.791 27.495 104.809 27.365C104.961 26.08 105.126 24.789 105.256 23.499C105.287 23.222 105.403 23.137 105.671 23.137H118.745C119.156 23.137 119.192 23.204 118.96 23.584L113.825 32.331L110.565 37.851C110.337 38.239 110.36 38.297 110.788 38.297H113.914C114.65 38.3072 115.369 38.0733 115.959 37.632C117 36.8568 117.976 35.9965 118.875 35.06C118.991 34.943 119.103 34.823 119.214 34.707C119.326 34.591 119.353 34.559 119.455 34.604C119.558 34.649 119.527 34.764 119.518 34.854C119.42 35.636 119.326 36.413 119.223 37.189C119.147 37.792 119.054 38.395 118.987 39.002C118.951 39.332 118.817 39.449 118.469 39.449C116.156 39.404 113.838 39.413 111.512 39.413ZM34.1757 17.225C31.9927 18.752 30.9927 20.994 30.4117 23.477C30.3627 23.687 30.3177 23.897 30.2687 24.107C30.1461 24.591 30.0701 25.0856 30.0417 25.584C29.8936 26.8886 29.8591 28.2035 29.9387 29.514C30.0637 31.984 30.7737 34.385 32.0187 36.524C32.8079 37.9829 34.0951 39.1097 35.6457 39.699C35.0128 39.7709 34.3724 39.7347 33.7517 39.592C30.5367 39.042 27.8177 37.6 25.8077 34.984C24.0937 32.7824 23.284 30.01 23.5437 27.232C23.9237 22.32 27.5857 18.154 32.6667 16.997C33.072 16.8925 33.4861 16.8255 33.9037 16.797C34.1847 16.797 34.4837 16.64 34.7337 16.89L34.6047 16.984C34.4478 17.0366 34.3022 17.1183 34.1757 17.225ZM95.2827 23.24L97.1447 22.833C97.6187 22.726 97.6187 22.722 97.6187 23.2V39.029C97.6187 39.301 97.5557 39.417 97.2567 39.417H92.7917C92.4297 39.417 92.4517 39.221 92.4517 38.971V24.16C92.4517 23.94 92.5277 23.856 92.7417 23.811C93.2607 23.709 93.7697 23.579 94.2827 23.459C94.6177 23.36 94.9567 23.33 95.2827 23.24Z" fill="#555B7D"/>
<path d="M37.7217 39.4C36.8658 39.4005 36.0446 39.0613 35.4386 38.4568C34.8326 37.8523 34.4913 37.0319 34.4897 36.176C34.4737 35.7506 34.5417 35.3262 34.6899 34.9271C34.8381 34.528 35.0635 34.1621 35.3533 33.8503C35.6432 33.5384 35.9916 33.2868 36.3788 33.1099C36.766 32.9329 37.1843 32.8341 37.6097 32.819C38.0557 32.8018 38.5004 32.877 38.9159 33.04C39.3314 33.2029 39.7087 33.45 40.0241 33.7657C40.3396 34.0814 40.5863 34.459 40.7489 34.8746C40.9114 35.2902 40.9863 35.735 40.9687 36.181C40.9723 36.6008 40.8931 37.0172 40.7357 37.4065C40.5783 37.7957 40.3458 38.1502 40.0515 38.4495C39.7571 38.7489 39.4066 38.9874 39.0201 39.1513C38.6336 39.3152 38.2186 39.4014 37.7987 39.405C37.7717 39.4 37.7487 39.4 37.7217 39.4ZM40.5987 20.302C40.6011 20.7225 40.5206 21.1393 40.3619 21.5287C40.2031 21.9181 39.9693 22.2724 39.6736 22.5714C39.378 22.8704 39.0263 23.1083 38.6387 23.2714C38.2511 23.4345 37.8352 23.5196 37.4147 23.522H37.3297C36.6888 23.5166 36.0638 23.3214 35.5337 22.9609C35.0037 22.6005 34.5924 22.091 34.3518 21.4969C34.1112 20.9028 34.0522 20.2507 34.1821 19.623C34.312 18.9953 34.6251 18.4202 35.0817 17.9704C35.5384 17.5206 36.1181 17.2162 36.7477 17.0958C37.3773 16.9754 38.0284 17.0443 38.6188 17.2938C39.2093 17.5433 39.7125 17.9623 40.0649 18.4977C40.4173 19.0331 40.603 19.661 40.5987 20.302ZM101.02 28.027C100.674 28.0249 100.331 27.9546 100.012 27.8202C99.6936 27.6857 99.4043 27.4898 99.1612 27.2435C98.918 26.9972 98.7258 26.7054 98.5955 26.3848C98.4652 26.0642 98.3993 25.721 98.4017 25.375C98.3976 25.0252 98.4633 24.6781 98.5949 24.3539C98.7265 24.0298 98.9213 23.7351 99.1681 23.4871C99.4148 23.2391 99.7085 23.0428 100.032 22.9096C100.355 22.7764 100.702 22.709 101.052 22.7113C101.402 22.7136 101.748 22.7856 102.069 22.9231C102.391 23.0606 102.682 23.2608 102.926 23.5121C103.169 23.7633 103.36 24.0606 103.487 24.3864C103.614 24.7123 103.675 25.0603 103.667 25.41C103.665 25.7558 103.595 26.0978 103.461 26.4166C103.327 26.7354 103.131 27.0246 102.885 27.2676C102.64 27.5107 102.348 27.7029 102.028 27.8332C101.707 27.9635 101.366 28.0293 101.02 28.027ZM81.7067 39.641C82.6757 39.771 83.6627 39.771 84.6317 39.641C84.2827 39.927 83.8547 39.829 83.4707 39.842C82.8752 39.9236 82.2688 39.8538 81.7067 39.641ZM30.0437 25.598C29.9823 25.0937 30.0611 24.5823 30.2717 24.12C30.2267 24.615 30.1517 25.111 30.0437 25.598ZM95.2867 23.24C94.978 23.3863 94.6413 23.4641 94.2997 23.468C94.6027 23.308 94.9427 23.231 95.2867 23.24ZM74.0617 27.697C73.9329 27.3825 73.8559 27.0491 73.8337 26.71C74.0127 27.01 74.0877 27.353 74.0617 27.697ZM73.1107 35.743C73.0025 35.8495 72.8565 35.9088 72.7047 35.908C72.7531 35.8486 72.8156 35.8023 72.8866 35.7735C72.9576 35.7447 73.0346 35.7342 73.1107 35.743Z" fill="#555B7D"/>
<path fill-rule="evenodd" clip-rule="evenodd" d="M74.1478 35.1901C73.816 35.3988 73.4698 35.5837 73.1118 35.7431C72.9688 35.7931 72.8308 35.8461 72.6918 35.9081C71.7163 36.3239 70.6547 36.4971 69.5978 36.4131C68.7241 36.3961 67.8765 36.1124 67.1686 35.6C66.4608 35.0875 65.9266 34.3708 65.6378 33.5461C65.3655 32.8101 65.1998 32.039 65.1458 31.2561C65.0878 30.6161 65.0918 30.6161 65.7258 30.6161H73.7458L73.8118 30.6181C74.0118 30.6221 74.1918 30.6251 74.1918 30.2911C74.2227 29.4244 74.1843 28.5567 74.0768 27.6961C74.0188 27.3635 73.9427 27.0344 73.8488 26.7101C73.6455 25.9267 73.2582 25.2032 72.719 24.5996C72.1798 23.9961 71.5044 23.53 70.7488 23.2401C69.0609 22.6051 67.2047 22.5773 65.4986 23.1616C63.7925 23.7458 62.343 24.9057 61.3988 26.4421C60.7027 27.5676 60.2411 28.822 60.0418 30.1302C59.8425 31.4384 59.9095 32.7734 60.2388 34.0551C60.4449 35.0475 60.855 35.9863 61.443 36.8119C62.0311 37.6375 62.7842 38.3319 63.6548 38.8511C65.161 39.7165 66.9339 39.9947 68.6328 39.6321C71.2588 39.1771 73.0178 37.5291 74.3578 35.3551C74.3662 35.3379 74.3762 35.3215 74.3878 35.3061C74.4238 35.2581 74.4598 35.2101 74.3888 35.1361C74.3168 35.0601 74.2558 35.1081 74.1988 35.1531C74.1818 35.1671 74.1648 35.1801 74.1488 35.1891L74.1478 35.1901ZM65.4548 29.7541H67.4418L67.9968 29.7531C68.4608 29.7494 68.9248 29.7514 69.3888 29.7591C69.6608 29.7631 69.7688 29.6791 69.7688 29.3881C69.7491 29.0498 69.7408 28.711 69.7438 28.3721C69.7438 28.0481 69.7438 27.7221 69.7238 27.4011C69.7328 26.396 69.4999 25.4034 69.0448 24.5071C68.8981 24.2291 68.6636 24.0075 68.3778 23.8767C68.092 23.7459 67.771 23.7134 67.4648 23.7841C66.6608 23.9181 66.2548 24.4981 65.9328 25.1591C65.3088 26.4411 65.2228 27.8311 65.1358 29.2221L65.1198 29.4681C65.1018 29.7181 65.2538 29.7541 65.4548 29.7541ZM76.4808 34.8541C76.8319 36.0529 77.5044 37.1327 78.4255 37.9765C79.3465 38.8203 80.4809 39.396 81.7058 39.6411C82.2558 39.7891 82.8258 39.8421 83.3938 39.7971C83.8088 39.8511 84.2288 39.7971 84.6168 39.6501L84.8468 39.5961C85.0468 39.5491 85.2468 39.5031 85.4428 39.4451C87.6228 38.7881 89.1128 37.2881 90.3018 35.4251L90.3298 35.3851C90.3828 35.3081 90.4458 35.2191 90.3548 35.1401C90.2748 35.0701 90.2058 35.1281 90.1408 35.1841C90.1198 35.2031 90.0988 35.2211 90.0778 35.2341C88.9019 35.9852 87.5426 36.3992 86.1478 36.4311C84.6178 36.4491 83.2818 36.0111 82.3218 34.7611C81.4518 33.6311 81.2018 32.2911 81.1298 30.9071C81.1158 30.6171 81.2998 30.6171 81.4998 30.6171H89.7958C89.9998 30.6191 90.1898 30.6211 90.1898 30.3091C90.2472 29.2271 90.1676 28.1421 89.9528 27.0801C89.5068 25.3121 88.5198 23.9501 86.7958 23.2581C85.2242 22.6472 83.4959 22.5679 81.875 23.0324C80.2542 23.4969 78.8302 24.4796 77.8208 25.8301C76.8605 27.1022 76.2346 28.5948 76.0005 30.1713C75.7664 31.7478 75.9315 33.3579 76.4808 34.8541ZM82.3538 24.4721C82.0399 24.9113 81.7956 25.3964 81.6298 25.9101C81.5767 26.0462 81.5421 26.1888 81.5268 26.3341C81.5108 26.4381 81.4948 26.5421 81.4648 26.6431C81.2684 27.5671 81.1563 28.5069 81.1298 29.4511C81.1168 29.6881 81.2198 29.7591 81.4378 29.7591H85.4578C85.7338 29.7591 85.7918 29.6291 85.7918 29.3841C85.7788 28.4111 85.7608 27.4371 85.6538 26.4681C85.586 25.8902 85.4355 25.3251 85.2068 24.7901C85.1002 24.5138 84.9198 24.272 84.6852 24.0912C84.4507 23.9103 84.1709 23.7974 83.8766 23.7647C83.5822 23.732 83.2845 23.7808 83.016 23.9057C82.7474 24.0306 82.5184 24.2259 82.3538 24.4721Z" fill="#555B7D"/>
<path d="M81.6321 25.9102C81.6411 26.1652 81.5821 26.4152 81.4581 26.6392C81.4344 26.384 81.4956 26.1271 81.6321 25.9102Z" fill="#555B7D"/>
</svg>
