<svg width="24" height="24" viewBox="0 0 24 24" fill="none" xmlns="http://www.w3.org/2000/svg">
<path d="M3.51562 9.00098H20.5016" stroke="black" stroke-width="1.5" stroke-linecap="round" stroke-linejoin="round"/>
<path d="M12 21.001C9.79086 21.001 8 16.9715 8 12.001C8 7.03042 9.79086 3.00098 12 3.00098" stroke="black" stroke-width="1.5" stroke-linecap="round" stroke-linejoin="round"/>
<path d="M13.0016 15.001H3.51562" stroke="black" stroke-width="1.5" stroke-linecap="round" stroke-linejoin="round"/>
<path d="M12 21.001C7.02944 21.001 3 16.9715 3 12.001C3 7.03041 7.02944 3.00098 12 3.00098" stroke="black" stroke-width="1.5" stroke-linecap="round" stroke-linejoin="round"/>
<path d="M20.9413 11.001C20.4327 6.44659 16.5827 3.00188 12 3.00098" stroke="black" stroke-width="1.5" stroke-linecap="round" stroke-linejoin="round"/>
<path d="M15.9657 11.001C15.7438 6.50373 14.058 3.00098 12 3.00098" stroke="black" stroke-width="1.5" stroke-linecap="round" stroke-linejoin="round"/>
<path d="M13 20.9404C12.668 20.979 12.3342 20.9993 12 21.001" stroke="black" stroke-width="1.5" stroke-linecap="round" stroke-linejoin="round"/>
<path d="M18.5 14.0009V14.8087" stroke="black" stroke-width="1.5" stroke-linecap="round" stroke-linejoin="round"/>
<path d="M16.5 16.4244C16.6168 15.4318 17.505 14.7142 18.5 14.8086" stroke="black" stroke-width="1.5" stroke-linecap="round" stroke-linejoin="round"/>
<path d="M18.5 22.0011V21.1932" stroke="black" stroke-width="1.5" stroke-linecap="round" stroke-linejoin="round"/>
<path d="M20.5 19.5776C20.3832 20.5702 19.495 21.2877 18.5 21.1934" stroke="black" stroke-width="1.5" stroke-linecap="round" stroke-linejoin="round"/>
<path d="M20.4491 16.0722C20.1482 15.2681 19.3569 14.7553 18.5 14.809" stroke="black" stroke-width="1.5" stroke-linecap="round" stroke-linejoin="round"/>
<path d="M16.5508 19.9297C16.8517 20.7338 17.643 21.2466 18.4999 21.1929" stroke="black" stroke-width="1.5" stroke-linecap="round" stroke-linejoin="round"/>
<path d="M16.5 16.4243C16.5 17.1084 16.9828 17.6973 17.6536 17.8314L19.3464 18.17C20.0172 18.3042 20.5 18.8931 20.5 19.5772" stroke="black" stroke-width="1.5" stroke-linecap="round" stroke-linejoin="round"/>
</svg>
