<svg width="24" height="24" viewBox="0 0 24 24" fill="none" xmlns="http://www.w3.org/2000/svg">
<path fill-rule="evenodd" clip-rule="evenodd" d="M18.6843 20.1698H5.32705C4.26581 20.1698 3.40625 19.3102 3.40625 18.2489V7.68454C3.40625 6.6233 4.26581 5.76375 5.32705 5.76375H18.6843C19.7455 5.76375 20.6051 6.6233 20.6051 7.68454V18.2489C20.6051 19.3102 19.7445 20.1698 18.6843 20.1698Z" stroke="black" stroke-width="1.44" stroke-linecap="round" stroke-linejoin="round"/>
<path d="M12.0064 8.64468C13.3328 8.64468 14.4075 9.71933 14.4075 11.0457C14.4075 12.372 13.3328 13.4467 12.0064 13.4467C10.6802 13.4467 9.60547 12.372 9.60547 11.0457C9.60547 9.71933 10.6802 8.64468 12.0064 8.64468Z" stroke="black" stroke-width="1.44" stroke-linecap="round" stroke-linejoin="round"/>
<path d="M16.3272 17.2885C16.2013 16.9726 16.0065 16.6884 15.7568 16.4569C15.3351 16.065 14.7828 15.848 14.2066 15.848C13.2463 15.848 10.7646 15.848 9.80416 15.848C9.22792 15.848 8.67665 16.066 8.25407 16.4569C8.00437 16.6884 7.80941 16.9726 7.68359 17.2885" stroke="black" stroke-width="1.44" stroke-linecap="round" stroke-linejoin="round"/>
<path d="M5.07422 5.76354V4.80314C5.07422 3.74189 5.93377 2.88234 6.99502 2.88234H17.0168C18.0781 2.88234 18.9375 3.74189 18.9375 4.80314V5.76354" stroke="black" stroke-width="1.44" stroke-linecap="round" stroke-linejoin="round"/>
</svg>
