<svg width="24" height="24" viewBox="0 0 24 24" fill="none" xmlns="http://www.w3.org/2000/svg">
<path d="M12.0036 12.0057C14.2578 12.0057 16.0853 10.1783 16.0853 7.92405C16.0853 5.66979 14.2578 3.84235 12.0036 3.84235C9.74931 3.84235 7.92188 5.66979 7.92188 7.92405C7.92188 10.1783 9.74931 12.0057 12.0036 12.0057Z" stroke="black" stroke-width="1.44" stroke-linecap="round" stroke-linejoin="round"/>
<path d="M4.32031 19.2088C4.32031 16.8223 6.25552 14.887 8.64211 14.887H11.1229" stroke="black" stroke-width="1.44" stroke-linecap="round" stroke-linejoin="round"/>
<path fill-rule="evenodd" clip-rule="evenodd" d="M18.6255 15.0311L20.4896 18.3444C20.9477 19.1598 20.359 20.1692 19.4226 20.1692H15.6943C14.7579 20.1692 14.1693 19.1617 14.6274 18.3444L16.4915 15.0311C16.9602 14.1984 18.1578 14.1984 18.6255 15.0311Z" stroke="black" stroke-width="1.44" stroke-linecap="round" stroke-linejoin="round"/>
</svg>
