<svg width="49" height="48" viewBox="0 0 49 48" fill="none" xmlns="http://www.w3.org/2000/svg">
<path d="M10.4531 31.8359H14.3715" stroke="black" stroke-width="2.44898" stroke-linecap="round" stroke-linejoin="round"/>
<path d="M26.1252 37.7141H8.49259C6.32769 37.7141 4.57422 35.9607 4.57422 33.7958V15.3187C4.57422 14.7897 4.68197 14.2647 4.88965 13.7788L7.04083 8.74564C7.65797 7.30368 9.07446 6.36719 10.6438 6.36719H29.8516C31.4209 6.36719 32.8374 7.30368 33.4545 8.74564L35.6057 13.7788C35.8134 14.2666 35.9211 14.7897 35.9211 15.3187V22.2366" stroke="black" stroke-width="2.44898" stroke-linecap="round" stroke-linejoin="round"/>
<path d="M20.248 6.36719V15.066" stroke="black" stroke-width="2.44898" stroke-linecap="round" stroke-linejoin="round"/>
<path d="M35.9016 15.0664H4.57422" stroke="black" stroke-width="2.44898" stroke-linecap="round" stroke-linejoin="round"/>
<path d="M27.3818 25.2588C30.9027 21.738 36.5421 21.6278 40.1953 24.9287L40.542 25.2588C44.0627 28.7795 44.1729 34.4192 40.8721 38.0723L40.542 38.4189C37.0212 41.9398 31.3817 42.05 27.7285 38.749L27.3818 38.4189C23.8611 34.8982 23.7509 29.2586 27.0518 25.6055L27.3818 25.2588Z" fill="black" stroke="black" stroke-width="0.979592"/>
<path d="M40.8887 24.9122C44.7142 28.7377 44.7142 34.9402 40.8887 38.7657C37.0631 42.5913 30.8607 42.5913 27.0351 38.7657C23.2096 34.9402 23.2096 28.7377 27.0351 24.9122C30.8607 21.0866 37.0631 21.0866 40.8887 24.9122Z" stroke="black" stroke-width="2.44898" stroke-linecap="round" stroke-linejoin="round"/>
<path d="M38.316 29.6602L32.8734 35.1028L29.6094 31.8368" stroke="white" stroke-width="2.44898" stroke-linecap="round" stroke-linejoin="round"/>
</svg>
