<svg width="49" height="48" viewBox="0 0 49 48" fill="none" xmlns="http://www.w3.org/2000/svg">
<path d="M19.9805 24H11.9805C9.21904 24 6.98047 26.2386 6.98047 29V37C6.98047 39.7614 9.21904 42 11.9805 42H19.9805C22.7419 42 24.9805 39.7614 24.9805 37V29C24.9805 26.2386 22.7419 24 19.9805 24Z" fill="black" stroke="black" stroke-width="2.5" stroke-linecap="round" stroke-linejoin="round"/>
<path d="M19.9805 31.5L16.9805 34.5" stroke="white" stroke-width="2.5" stroke-linecap="round" stroke-linejoin="round"/>
<path d="M16.9805 34.5L14.4805 32" stroke="white" stroke-width="2.5" stroke-linecap="round" stroke-linejoin="round"/>
<path d="M14.4824 32L11.9824 34.5" stroke="white" stroke-width="2.5" stroke-linecap="round" stroke-linejoin="round"/>
<path d="M33.9824 6V12" stroke="black" stroke-width="2.5" stroke-linecap="round" stroke-linejoin="round"/>
<path d="M15.9824 6V12" stroke="black" stroke-width="2.5" stroke-linecap="round" stroke-linejoin="round"/>
<path d="M30.9805 42H36.9805C40.2942 42 42.9805 39.3138 42.9805 36V15C42.9805 11.6863 40.2942 9 36.9805 9H12.9805C9.66676 9 6.98047 11.6863 6.98047 15V18" stroke="black" stroke-width="2.5" stroke-linecap="round" stroke-linejoin="round"/>
</svg>
