<svg width="49" height="48" viewBox="0 0 49 48" fill="none" xmlns="http://www.w3.org/2000/svg">
<path d="M40.4941 39.6752V19.6523" stroke="black" stroke-width="2.44898" stroke-linecap="round" stroke-linejoin="round"/>
<path fill-rule="evenodd" clip-rule="evenodd" d="M9.73579 19.6487C6.40909 19.6251 4.24028 16.3318 5.68223 13.4929L9.04419 6.87677C9.80827 5.3682 11.4187 4.41016 13.1859 4.41016H36.4531C38.2203 4.41016 39.8308 5.3682 40.5968 6.87677L43.9588 13.4929C45.4007 16.3318 43.2319 19.6251 39.9052 19.6487C37.1291 19.6487 34.878 17.7522 34.878 15.4109V15.3169C34.878 17.7091 32.6269 19.6487 29.8507 19.6487C27.0706 19.6487 24.8195 17.7091 24.8195 15.3169C24.8195 17.7091 22.5684 19.6487 19.7922 19.6487C17.0161 19.6487 14.765 17.7091 14.765 15.3169V15.4109C14.763 17.7522 12.5119 19.6487 9.73579 19.6487Z" stroke="black" stroke-width="2.44898" stroke-linecap="round" stroke-linejoin="round"/>
<path d="M32.6582 39.6758H42.4541" stroke="black" stroke-width="2.44898" stroke-linecap="round" stroke-linejoin="round"/>
<path d="M15.0791 26.8779C16.8014 24.062 21.056 25.1499 21.3291 28.3174L21.3428 28.6309V28.6387L21.3789 30.5508L21.3877 31.0312H23.5664C24.6296 31.0312 25.6257 31.5311 26.2646 32.373L26.3877 32.5459V32.5469C26.909 33.33 27.0851 34.2923 26.877 35.2051L26.8301 35.3877L25.3955 40.4072C25.0623 41.5679 24.0009 42.3691 22.793 42.3691H15.7734C15.1251 42.3691 14.4923 42.1707 13.9619 41.8037L13.7412 41.6357H13.7402L11.6211 39.8789C11.3282 39.6361 11.2719 39.2136 11.4795 38.9043L11.5244 38.8438C11.5844 38.7715 11.6545 38.7144 11.7305 38.6719L12.0186 38.5107L11.9775 38.1836L11.3604 33.2725C11.3448 33.1488 11.3616 33.0238 11.4072 32.9092L11.4629 32.7979L15.0801 26.8789L15.0791 26.8779Z" fill="white" stroke="black" stroke-width="0.979592"/>
<path d="M8.28613 31.3496H10.9941C11.306 31.3496 11.5996 31.5963 11.5996 32.0371V40.6221C11.5996 40.8504 11.3539 41.1455 10.9941 41.1455H8.28613C7.95158 41.1453 7.68182 40.8746 7.68164 40.54V31.9541C7.68189 31.6196 7.95161 31.3499 8.28613 31.3496Z" fill="white" stroke="black" stroke-width="0.979592"/>
<path d="M8.28613 30.123H10.9941C12.0363 30.1231 12.8242 30.9734 12.8242 32.0352V40.6201C12.8241 41.5814 11.9719 42.3672 10.9941 42.3672H8.28613C7.27528 42.367 6.45728 41.5489 6.45703 40.5381V31.9521C6.45721 30.9413 7.27526 30.1232 8.28613 30.123ZM7.92578 40.8984H11.3545V31.5918H7.92578V40.8984Z" fill="black" stroke="black" stroke-width="0.979592"/>
</svg>
