<svg width="49" height="48" viewBox="0 0 49 48" fill="none" xmlns="http://www.w3.org/2000/svg">
<path fill-rule="evenodd" clip-rule="evenodd" d="M30.0449 32.725V34.3876C30.0449 37.4501 31.9446 40.1915 34.8121 41.2668L35.6644 41.5864C35.8308 41.6488 36.0141 41.6488 36.1804 41.5864L37.0327 41.2668C39.9003 40.1915 41.8 37.4501 41.8 34.3876V32.725C41.8 32.0823 41.3823 31.5142 40.7689 31.3225L36.3607 28.9654C36.0754 28.8761 35.7696 28.8761 35.4842 28.9654L31.076 31.3225C30.4626 31.5142 30.0449 32.0823 30.0449 32.725Z" fill="black" stroke="black" stroke-width="2.44898" stroke-linecap="round" stroke-linejoin="round"/>
<path d="M22.8803 31.8359C18.6866 31.836 14.6645 33.502 11.6992 36.4674" stroke="black" stroke-width="2.44898" stroke-linecap="round" stroke-linejoin="round"/>
<path d="M41.8005 23.9998C41.8005 14.2616 33.906 6.36719 24.1678 6.36719C14.4296 6.36719 6.53516 14.2616 6.53516 23.9998C6.53516 33.7381 14.4296 41.6325 24.1678 41.6325" stroke="black" stroke-width="2.44898" stroke-linecap="round" stroke-linejoin="round"/>
<path fill-rule="evenodd" clip-rule="evenodd" d="M30.0442 19.5924V20.572C30.0442 23.8181 27.4127 26.4495 24.1666 26.4495C20.9205 26.4495 18.2891 23.8181 18.2891 20.572V19.5924C18.2891 16.3463 20.9205 13.7148 24.1666 13.7148C27.4127 13.7148 30.0442 16.3463 30.0442 19.5924Z" stroke="black" stroke-width="2.44898" stroke-linecap="round" stroke-linejoin="round"/>
</svg>
