<svg width="276" height="36" viewBox="0 0 276 36" fill="none" xmlns="http://www.w3.org/2000/svg">
<g clip-path="url(#clip0_4051_34454)">
<g clip-path="url(#clip1_4051_34454)">
<mask id="mask0_4051_34454" style="mask-type:luminance" maskUnits="userSpaceOnUse" x="94" y="0" width="88" height="36">
<path d="M181.346 0H94.6445V35.88H181.346V0Z" fill="white"/>
</mask>
<g mask="url(#mask0_4051_34454)">
<path d="M152.43 0C152.43 0 174.163 5.28879 181.345 28.8861C181.345 28.8861 179.856 4.81194 152.43 0Z" fill="#ED1D24"/>
<path d="M176.967 2.2832L174.25 7.09514L178.903 4.20509L176.967 2.2832Z" fill="#2E74B6"/>
<path d="M164.266 16.8199H165.667L167.849 14.8403C167.849 14.8403 168.485 14.3201 167.849 13.6698C167.213 13.034 166.202 14.4501 166.202 14.4501L164.266 16.8199Z" fill="#2E74B6"/>
<path d="M139.035 35.7643V31.5737H139.96V34.8973H142.229V35.7643H139.035Z" fill="#ED1D24"/>
<path d="M143.557 32.7443C143.326 32.9755 143.21 33.279 143.21 33.6547C143.21 34.0304 143.326 34.3339 143.557 34.5651C143.788 34.7962 144.077 34.9119 144.41 34.9119C144.742 34.9119 145.031 34.7962 145.262 34.5651C145.494 34.3339 145.609 34.0304 145.609 33.6403C145.609 33.2646 145.494 32.9611 145.248 32.7299C145.017 32.4987 144.728 32.3831 144.41 32.3831C144.077 32.3976 143.788 32.5132 143.557 32.7443ZM142.242 33.6691C142.242 33.0622 142.445 32.5565 142.864 32.1374C143.283 31.7183 143.788 31.5161 144.395 31.5161C145.002 31.5161 145.508 31.7183 145.927 32.1374C146.346 32.5565 146.548 33.0622 146.548 33.6836C146.548 34.305 146.346 34.8107 145.927 35.2298C145.508 35.6489 145.002 35.8511 144.395 35.8511C143.788 35.8511 143.283 35.6489 142.864 35.2298C142.459 34.7962 142.242 34.2761 142.242 33.6691Z" fill="#ED1D24"/>
<path d="M148.919 34.2471V33.4089H150.87V35.0996C150.667 35.3309 150.407 35.5042 150.118 35.6342C149.829 35.7643 149.511 35.8221 149.179 35.8221C148.514 35.8221 147.979 35.6198 147.546 35.2297C147.127 34.825 146.91 34.3049 146.91 33.669C146.91 33.0621 147.112 32.5419 147.517 32.1229C147.922 31.7038 148.442 31.5015 149.078 31.5015C149.439 31.5015 149.771 31.5737 150.089 31.7038C150.407 31.8483 150.624 32.0217 150.783 32.253L150.147 32.8309C149.887 32.5419 149.555 32.3974 149.136 32.3974C148.76 32.3974 148.456 32.513 148.225 32.7298C148.008 32.961 147.893 33.2645 147.893 33.6546C147.893 34.0592 148.008 34.3627 148.254 34.5938C148.5 34.8106 148.818 34.9262 149.208 34.9262C149.511 34.9262 149.771 34.8395 150.003 34.6805V34.2326H148.919V34.2471Z" fill="#ED1D24"/>
<path d="M152.46 31.5737H151.535V35.7643H152.46V31.5737Z" fill="#ED1D24"/>
<path d="M155.278 34.8829C155.379 34.8106 155.437 34.7239 155.437 34.6083C155.437 34.4927 155.379 34.4061 155.263 34.3193C155.148 34.2471 155.003 34.1748 154.83 34.1315C154.656 34.0881 154.468 34.0303 154.266 33.9725C154.064 33.9147 153.876 33.8424 153.703 33.7557C153.529 33.669 153.385 33.5389 153.269 33.3801C153.153 33.2067 153.096 33.0043 153.096 32.7731C153.096 32.4263 153.24 32.1229 153.544 31.8772C153.847 31.6315 154.237 31.5015 154.714 31.5015C155.422 31.5015 155.971 31.7616 156.347 32.2674L155.726 32.8598C155.422 32.5274 155.075 32.354 154.671 32.354C154.252 32.354 154.049 32.4841 154.049 32.7442C154.049 32.8454 154.107 32.9176 154.223 32.9899C154.338 33.0621 154.483 33.1055 154.656 33.1633C154.83 33.2067 155.018 33.2645 155.22 33.3223C155.422 33.3801 155.61 33.4522 155.783 33.539C155.957 33.6257 156.101 33.7557 156.217 33.9291C156.333 34.1026 156.39 34.3049 156.39 34.5505C156.39 34.9262 156.246 35.2441 155.942 35.5042C155.639 35.7643 155.263 35.8799 154.815 35.8799C154.338 35.8799 153.934 35.7788 153.601 35.5909C153.269 35.4031 153.023 35.1574 152.879 34.854L153.558 34.2904C153.703 34.5071 153.876 34.695 154.093 34.8106C154.31 34.9407 154.541 34.9985 154.801 34.9985C155.003 34.984 155.177 34.9551 155.278 34.8829Z" fill="#ED1D24"/>
<path d="M156.578 32.4408V31.5737H160.191V32.4408H158.847V35.7643H157.922V32.4408H156.578Z" fill="#ED1D24"/>
<path d="M161.534 31.5737H160.609V35.7643H161.534V31.5737Z" fill="#ED1D24"/>
<path d="M165.508 34.3771L166.057 34.9696C165.869 35.2441 165.623 35.4608 165.305 35.6053C164.987 35.7499 164.655 35.8366 164.279 35.8366C163.629 35.8366 163.109 35.6342 162.719 35.2441C162.328 34.854 162.141 34.3193 162.141 33.669C162.141 33.0621 162.343 32.5419 162.748 32.1229C163.152 31.7038 163.672 31.5015 164.308 31.5015C164.684 31.5015 165.016 31.5737 165.32 31.7182C165.623 31.8628 165.84 32.0506 165.999 32.2963L165.377 32.8743C165.262 32.7153 165.103 32.5997 164.93 32.5274C164.742 32.4407 164.568 32.4118 164.38 32.4118C164.005 32.4118 163.701 32.5274 163.456 32.7587C163.224 32.9899 163.109 33.2934 163.109 33.6835C163.109 34.0592 163.224 34.3627 163.47 34.5938C163.701 34.825 164.005 34.9407 164.366 34.9407C164.828 34.9262 165.219 34.7528 165.508 34.3771Z" fill="#ED1D24"/>
<path d="M168.528 34.8829C168.629 34.8106 168.687 34.7239 168.687 34.6083C168.687 34.4927 168.629 34.4061 168.513 34.3193C168.398 34.2471 168.253 34.1748 168.08 34.1315C167.906 34.0881 167.718 34.0303 167.516 33.9725C167.314 33.9147 167.126 33.8424 166.953 33.7557C166.779 33.669 166.635 33.5389 166.519 33.3801C166.403 33.2067 166.346 33.0043 166.346 32.7731C166.346 32.4263 166.49 32.1229 166.794 31.8772C167.097 31.6315 167.487 31.5015 167.964 31.5015C168.672 31.5015 169.221 31.7616 169.597 32.2674L168.976 32.8598C168.672 32.5274 168.325 32.354 167.921 32.354C167.502 32.354 167.299 32.4841 167.299 32.7442C167.299 32.8454 167.357 32.9176 167.473 32.9899C167.588 33.0621 167.733 33.1055 167.906 33.1633C168.08 33.2067 168.268 33.2645 168.47 33.3223C168.672 33.3801 168.86 33.4522 169.033 33.539C169.207 33.6257 169.351 33.7557 169.467 33.9291C169.583 34.1026 169.64 34.3049 169.64 34.5505C169.64 34.9262 169.496 35.2441 169.192 35.5042C168.889 35.7643 168.513 35.8799 168.065 35.8799C167.588 35.8799 167.184 35.7788 166.851 35.5909C166.519 35.4031 166.273 35.1574 166.129 34.854L166.808 34.2904C166.953 34.5071 167.126 34.695 167.343 34.8106C167.56 34.9407 167.791 34.9985 168.051 34.9985C168.253 34.984 168.412 34.9551 168.528 34.8829Z" fill="#ED1D24"/>
<path d="M99.442 24.2764H97.1444V26.5451H99.312C100.049 26.5451 100.584 26.4584 100.887 26.285C101.205 26.1116 101.349 25.8081 101.349 25.389C101.349 24.999 101.205 24.7099 100.916 24.5365C100.641 24.3631 100.15 24.2764 99.442 24.2764ZM99.2831 19.9703H97.1589V22.0222H99.4998C99.9911 22.0222 100.367 21.9355 100.627 21.7765C100.887 21.6176 101.017 21.3719 101.017 21.0829C101.017 20.6928 100.887 20.4182 100.641 20.2448C100.396 20.0714 99.9333 19.9703 99.2831 19.9703ZM94.6445 28.8716V17.6582H99.6877C102.289 17.6582 103.589 18.6119 103.589 20.5338C103.589 21.5019 103.228 22.3111 102.491 22.9326C103.474 23.3949 103.965 24.2619 103.965 25.548C103.965 26.6751 103.56 27.5132 102.766 28.0624C101.971 28.6115 100.901 28.8861 99.5576 28.8861H94.6445V28.8716Z" fill="#2E74B6"/>
<path d="M108.574 20.8085C107.938 21.4443 107.635 22.2535 107.635 23.265C107.635 24.262 107.953 25.0858 108.574 25.7216C109.21 26.3573 109.962 26.6608 110.857 26.6608C111.768 26.6608 112.534 26.3429 113.155 25.7216C113.762 25.1002 114.08 24.2765 114.08 23.265C114.08 22.2679 113.762 21.4443 113.126 20.8085C112.49 20.1726 111.739 19.8692 110.872 19.8692C109.962 19.8692 109.196 20.1726 108.574 20.8085ZM105.02 23.265C105.02 21.6466 105.583 20.2738 106.71 19.1467C107.837 18.0196 109.21 17.4705 110.843 17.4705C112.461 17.4705 113.849 18.0196 114.961 19.1322C116.088 20.2449 116.652 21.6177 116.652 23.2794C116.652 24.9268 116.088 26.2995 114.961 27.4122C113.834 28.5249 112.461 29.0741 110.843 29.0741C109.225 29.0741 107.837 28.5249 106.71 27.4122C105.597 26.2995 105.02 24.9124 105.02 23.265Z" fill="#2E74B6"/>
<path d="M118.199 28.8716V17.6582H120.699V26.5451H126.797V28.8716H118.199Z" fill="#2E74B6"/>
<path d="M128.012 28.8716V17.6582H130.512V26.5451H136.61V28.8716H128.012Z" fill="#2E74B6"/>
<path d="M140.204 20.8085C139.569 21.4443 139.265 22.2535 139.265 23.265C139.265 24.262 139.583 25.0858 140.204 25.7216C140.84 26.3573 141.592 26.6608 142.487 26.6608C143.398 26.6608 144.164 26.3429 144.785 25.7216C145.392 25.1002 145.71 24.2765 145.71 23.265C145.71 22.2679 145.392 21.4443 144.756 20.8085C144.12 20.1726 143.369 19.8692 142.502 19.8692C141.592 19.8692 140.84 20.1726 140.204 20.8085ZM136.664 23.265C136.664 21.6466 137.228 20.2738 138.355 19.1467C139.482 18.0196 140.855 17.4705 142.487 17.4705C144.106 17.4705 145.493 18.0196 146.606 19.1322C147.733 20.2449 148.297 21.6177 148.297 23.2794C148.297 24.9268 147.733 26.2995 146.606 27.4122C145.479 28.5249 144.106 29.0741 142.487 29.0741C140.869 29.0741 139.482 28.5249 138.355 27.4122C137.228 26.2995 136.664 24.9124 136.664 23.265Z" fill="#2E74B6"/>
<path d="M154.351 19.9703H152.328V22.7158H154.438C155.045 22.7158 155.522 22.5857 155.854 22.3545C156.186 22.1089 156.36 21.7621 156.36 21.3141C156.36 20.8806 156.215 20.5482 155.912 20.317C155.623 20.0859 155.102 19.9703 154.351 19.9703ZM152.328 28.8716H149.828V17.6582H154.394C155.261 17.6582 155.998 17.7594 156.62 17.9617C157.241 18.1639 157.718 18.4385 158.036 18.7998C158.354 19.161 158.599 19.5367 158.744 19.9414C158.888 20.3459 158.961 20.8084 158.961 21.2996C158.961 22.0222 158.758 22.6869 158.368 23.2938C157.964 23.8863 157.429 24.3197 156.75 24.5943L159.9 28.8716H156.88L154.12 25.0423H152.328V28.8716Z" fill="#2E74B6"/>
<path d="M160.957 28.8716V17.6582H169.584V19.9703H163.457V22.0656H169.179V24.3053H163.457V26.5451H169.728V28.8716H160.957Z" fill="#2E74B6"/>
</g>
</g>
</g>
<defs>
<clipPath id="clip0_4051_34454">
<rect width="276" height="35.88" fill="white"/>
</clipPath>
<clipPath id="clip1_4051_34454">
<rect width="86.71" height="35.88" fill="white" transform="translate(94.6445)"/>
</clipPath>
</defs>
</svg>
