<svg width="120" height="36" viewBox="0 0 120 36" fill="none" xmlns="http://www.w3.org/2000/svg">
<g clip-path="url(#clip0_4051_34433)">
<mask id="mask0_4051_34433" style="mask-type:luminance" maskUnits="userSpaceOnUse" x="0" y="0" width="120" height="36">
<path d="M119.799 0H0.199219V35.88H119.799V0Z" fill="white"/>
</mask>
<g mask="url(#mask0_4051_34433)">
<path d="M26.2552 4.31189C27.5843 4.01158 28.9134 3.70572 30.2425 3.41097C30.7987 3.27751 30.7987 3.28863 30.7987 3.90593C30.7987 6.60867 30.7987 9.30584 30.7987 12.003C30.7987 12.7982 30.7987 13.5879 30.7987 14.3832C30.7987 14.5333 30.7041 14.7558 30.8932 14.8336C31.0823 14.9115 31.149 14.7113 31.2602 14.6168C32.606 13.371 34.2633 12.5146 36.054 12.1309C39.285 11.4858 42.2492 12.7204 43.011 16.641C43.3336 18.3094 43.1779 20.0389 43.1945 21.7406C43.2223 25.1774 43.1945 28.6198 43.1945 32.0622C43.1945 32.5294 43.0945 32.7073 42.5829 32.6962C40.831 32.6684 39.0737 32.6684 37.322 32.6962C36.8771 32.6962 36.7658 32.5627 36.7658 32.1401C36.7658 27.6021 36.7658 23.0642 36.7658 18.5263C36.788 18.1259 36.7547 17.7199 36.6658 17.3251C36.1597 15.5733 34.5525 14.6835 32.5894 15.1005C32.1278 15.1951 31.6829 15.3508 31.2213 15.462C30.8877 15.5455 30.7819 15.7345 30.7875 16.0794C30.7875 19.9945 30.7875 23.9095 30.7875 27.819C30.7875 29.2872 30.7875 30.7554 30.7875 32.2179C30.7875 32.6016 30.6596 32.7128 30.287 32.7074C28.4852 32.7074 26.6833 32.7074 24.876 32.7074C24.4422 32.7074 24.3477 32.5627 24.3477 32.1512C24.3477 23.1921 24.3477 14.2386 24.3477 5.28509C24.3477 4.79571 24.509 4.60107 24.9706 4.60107C25.4265 4.46761 25.8492 4.4398 26.2552 4.31189Z" fill="#0064F6"/>
<path d="M109.92 32.6572H101.44C101.217 32.6572 100.883 32.774 100.778 32.5572C100.672 32.3403 100.894 32.129 101.011 31.9343C104.453 26.1285 107.902 20.3226 111.36 14.5167C111.45 14.3609 111.655 14.1941 111.578 14.0328C111.5 13.8716 111.216 13.9272 111.021 13.9272C110.193 13.9272 109.353 13.9272 108.542 13.8883C107.484 13.8159 106.445 14.1608 105.643 14.8504C104.448 15.8625 103.263 16.8913 102.068 17.9035C101.94 18.0147 101.823 18.2594 101.618 18.1259C101.412 17.9924 101.551 17.8145 101.573 17.6532C101.762 16.0516 101.968 14.4443 102.129 12.8372C102.168 12.4924 102.313 12.3867 102.646 12.3867C108.074 12.3867 113.502 12.3867 118.93 12.3867C119.441 12.3867 119.486 12.4701 119.196 12.9429L112.801 23.8372L108.741 30.7108C108.458 31.1947 108.486 31.267 109.019 31.267C110.315 31.267 111.616 31.267 112.912 31.267C113.83 31.2781 114.725 30.9889 115.46 30.4383C116.755 29.4707 117.973 28.403 119.09 27.2352C119.235 27.0905 119.375 26.9403 119.513 26.7958C119.653 26.6512 119.685 26.6122 119.814 26.6679C119.942 26.7235 119.903 26.8681 119.892 26.9793C119.769 27.9525 119.653 28.9201 119.525 29.8878C119.43 30.6386 119.314 31.3894 119.23 32.1456C119.185 32.5572 119.019 32.7018 118.585 32.7018C115.704 32.6462 112.817 32.6572 109.92 32.6572Z" fill="#0064F6"/>
<path d="M13.6049 5.02339C10.8855 6.92532 9.63982 9.71703 8.91686 12.8091C8.8557 13.0704 8.80007 13.3318 8.73891 13.5932C8.58875 14.1938 8.48865 14.8111 8.45528 15.4339C8.27176 17.0578 8.22728 18.6984 8.32738 20.3277C8.48309 23.4032 9.36733 26.395 10.9189 29.0588C11.9032 30.8774 13.5048 32.2788 15.4346 33.0128C14.6449 33.1018 13.8496 33.0574 13.0767 32.8794C9.07257 32.1953 5.68582 30.3991 3.18328 27.1403C1.04779 24.3986 0.0412074 20.9451 0.363757 17.486C0.836458 11.3687 5.39663 6.18012 11.7253 4.73977C12.2313 4.61187 12.743 4.52288 13.2657 4.48952C13.6161 4.48952 13.9886 4.29488 14.3001 4.60631L14.1388 4.72308C13.9442 4.78982 13.7607 4.88993 13.6049 5.02339Z" fill="#0064F6"/>
<path d="M89.7097 12.5142L92.0287 12.0082C92.6182 11.8747 92.6182 11.8691 92.6182 12.4642C92.6182 17.9586 92.6182 23.4531 92.6182 28.9419C92.6182 30.0208 92.6182 31.0997 92.6182 32.1786C92.6182 32.5178 92.5404 32.6624 92.1677 32.6624C90.3159 32.6624 88.464 32.6624 86.6066 32.6624C86.1561 32.6624 86.1839 32.4177 86.1839 32.1063C86.1839 26.7509 86.1839 21.3955 86.1839 16.0344C86.1839 15.2448 86.1839 14.4551 86.1839 13.6599C86.1839 13.3874 86.2785 13.2816 86.5454 13.226C87.1905 13.0981 87.8244 12.9369 88.464 12.7867C88.8811 12.6644 89.3038 12.6254 89.7097 12.5142Z" fill="#0064F6"/>
<path d="M18.0214 32.6408C15.8024 32.6463 14.0006 30.8445 13.9951 28.6256C13.9116 26.3956 15.6523 24.5215 17.8824 24.4435C20.1124 24.3602 21.9865 26.1008 22.0644 28.3308C22.0699 28.431 22.0699 28.5311 22.0644 28.6311C22.081 30.8278 20.3181 32.6297 18.1159 32.6463C18.0826 32.6408 18.0547 32.6408 18.0214 32.6408Z" fill="#0064F6"/>
<path d="M21.6023 8.85538C21.6134 11.0576 19.8393 12.8539 17.6372 12.865C17.6038 12.865 17.5649 12.865 17.5315 12.865C15.3014 12.8483 13.5108 11.0242 13.5275 8.7942C13.5441 6.56417 15.3682 4.77347 17.5982 4.79015C19.8283 4.80684 21.619 6.62535 21.6023 8.85538Z" fill="#0064F6"/>
<path d="M96.8488 18.476C95.0359 18.465 93.5788 16.9856 93.5899 15.1727C93.6011 13.3597 95.0803 11.9027 96.8877 11.9139C98.6951 11.9249 100.158 13.4043 100.147 15.2172C100.141 17.0246 98.6617 18.4872 96.8488 18.476Z" fill="#0064F6"/>
<path d="M72.7969 32.9412C74.0036 33.1024 75.2326 33.1024 76.4394 32.9412C76.0056 33.2971 75.4717 33.1747 74.9935 33.1914C74.2539 33.2915 73.4975 33.2081 72.7969 32.9412Z" fill="#0064F6"/>
<path d="M8.45541 15.4511C8.37755 14.8227 8.47766 14.1887 8.73903 13.6104C8.68343 14.2277 8.58888 14.8449 8.45541 15.4511Z" fill="#0064F6"/>
<path d="M89.7095 12.5148C89.3257 12.6983 88.9032 12.7929 88.4805 12.7985C88.8586 12.5982 89.2813 12.5036 89.7095 12.5148Z" fill="#0064F6"/>
<path d="M63.2758 18.0647C63.1146 17.6699 63.02 17.2584 62.9922 16.8357C63.2146 17.2082 63.3092 17.6365 63.2758 18.0647Z" fill="#0064F6"/>
<path d="M62.092 28.0858C61.9586 28.2192 61.775 28.2915 61.5859 28.2915C61.7083 28.1414 61.8974 28.0635 62.092 28.0858Z" fill="#0064F6"/>
<path fill-rule="evenodd" clip-rule="evenodd" d="M63.3835 27.3966C62.972 27.658 62.5382 27.886 62.0933 28.0862C61.9153 28.1473 61.7429 28.2141 61.5706 28.2919C60.3527 28.8091 59.0347 29.026 57.7167 28.9203C55.4866 28.8759 53.5179 27.4523 52.7839 25.3501C52.4446 24.4325 52.2389 23.4704 52.1721 22.4972C52.0999 21.702 52.1054 21.702 52.8951 21.702H62.883C62.9103 21.702 62.9375 21.7025 62.9645 21.703C63.2129 21.7079 63.4391 21.7124 63.4391 21.2959C63.478 20.2172 63.428 19.1383 63.2945 18.065C63.2223 17.6478 63.1277 17.2419 63.0109 16.836C62.4993 14.8562 61.0589 13.249 59.1515 12.5149C54.8137 10.8855 49.931 12.5538 47.5063 16.5023C45.7546 19.3329 45.2318 22.7586 46.0605 25.9841C46.5776 28.481 48.1237 30.65 50.3147 31.9568C52.1889 33.0357 54.3966 33.3804 56.5154 32.93C59.7855 32.3627 61.9765 30.3107 63.6448 27.6024C63.6545 27.5817 63.6689 27.5622 63.6833 27.5425C63.7273 27.4826 63.7717 27.422 63.6838 27.3299C63.5942 27.236 63.5177 27.296 63.4468 27.3516C63.4253 27.3684 63.4042 27.385 63.3835 27.3966ZM52.5559 20.6284H55.0307C55.2608 20.6284 55.4914 20.6274 55.7222 20.6265C56.3001 20.6243 56.8792 20.622 57.4553 20.6339C57.7946 20.6394 57.9281 20.5338 57.9281 20.1723C57.8995 19.7582 57.8988 19.3338 57.8981 18.9074C57.8975 18.5036 57.8968 18.0979 57.8724 17.6976C57.8835 16.4464 57.5944 15.2117 57.0272 14.0939C56.6489 13.3821 55.8426 13.0095 55.0585 13.193C54.0575 13.3599 53.5514 14.0828 53.151 14.9059C52.3737 16.5023 52.266 18.2327 52.1581 19.9658C52.1517 20.068 52.1454 20.1702 52.1388 20.2724C52.1166 20.5838 52.3057 20.6284 52.5559 20.6284Z" fill="#0064F6"/>
<path fill-rule="evenodd" clip-rule="evenodd" d="M66.2936 26.9792C67.1834 30.0212 69.6916 32.318 72.8003 32.9409C73.4843 33.1244 74.1961 33.191 74.9023 33.1354C75.4195 33.2022 75.9422 33.1354 76.4261 32.9519C76.5214 32.9289 76.6168 32.9067 76.712 32.8845C76.9611 32.8265 77.2095 32.7686 77.4549 32.6961C80.1688 31.8786 82.0262 30.0101 83.5054 27.691C83.5159 27.6746 83.528 27.6574 83.5403 27.6397C83.6074 27.5441 83.6849 27.4337 83.5722 27.3351C83.4716 27.247 83.3866 27.3204 83.3057 27.3903C83.2793 27.4132 83.2534 27.4356 83.2275 27.4519C81.7649 28.3862 80.0687 28.9034 78.3337 28.9424C76.4261 28.9646 74.7633 28.4196 73.5677 26.8624C72.4832 25.4555 72.1718 23.7871 72.0829 22.0632C72.0661 21.7017 72.2942 21.7017 72.5444 21.7017H82.8104C82.8321 21.7017 82.8538 21.7019 82.8755 21.7022C83.1302 21.705 83.3665 21.7076 83.3665 21.318C83.4388 19.9722 83.3387 18.6208 83.0717 17.2972C82.5156 15.095 81.2866 13.3988 79.14 12.5368C75.1192 10.9742 70.5479 12.281 67.9619 15.7401C65.5318 18.96 64.9034 23.1921 66.2936 26.9792ZM73.6066 14.0496C73.2173 14.5945 72.9114 15.2007 72.7057 15.8403C72.6312 16.0085 72.6038 16.1881 72.5764 16.3681C72.5568 16.4974 72.537 16.6267 72.4999 16.7522C72.2552 17.9035 72.1161 19.0713 72.0828 20.2502C72.0661 20.545 72.194 20.6339 72.4665 20.6339H77.4716C77.8164 20.6339 77.8886 20.4727 77.8886 20.1668C77.872 18.9545 77.8498 17.7421 77.7163 16.5354C77.6329 15.8125 77.4438 15.1117 77.1602 14.4443C77.01 14.055 76.7431 13.7269 76.3983 13.4934C75.4751 12.8761 74.2239 13.1264 73.6066 14.0496Z" fill="#0064F6"/>
<path d="M72.7031 15.8403C72.7142 16.1574 72.6419 16.4687 72.4863 16.7468C72.4585 16.4299 72.5307 16.1128 72.7031 15.8403Z" fill="#0064F6"/>
</g>
</g>
<defs>
<clipPath id="clip0_4051_34433">
<rect width="119.6" height="35.88" fill="white" transform="translate(0.199219)"/>
</clipPath>
</defs>
</svg>
