<svg width="276" height="36" viewBox="0 0 276 36" fill="none" xmlns="http://www.w3.org/2000/svg">
<g clip-path="url(#clip0_4051_34500)">
<g clip-path="url(#clip1_4051_34500)">
<mask id="mask0_4051_34500" style="mask-type:luminance" maskUnits="userSpaceOnUse" x="89" y="0" width="97" height="36">
<path d="M185.999 0H89.6602V35.8799H185.999V0Z" fill="white"/>
</mask>
<g mask="url(#mask0_4051_34500)">
<path d="M153.326 13.0474C152.82 13.0886 152.422 13.2601 152.131 13.5619C151.846 13.8638 151.704 14.2652 151.704 14.7659V18.0589H150.977V12.43H151.704V13.243H151.725C151.871 12.9068 152.072 12.6701 152.328 12.5329C152.584 12.3957 152.917 12.3134 153.326 12.2859V13.0474Z" fill="#3C8995"/>
<path d="M160.416 15.301C160.416 15.3285 160.413 15.3628 160.406 15.404C160.406 15.4451 160.406 15.4794 160.406 15.5068H155.229C155.257 16.0557 155.489 16.5325 155.925 16.9372C156.369 17.342 156.871 17.5444 157.433 17.5444C157.883 17.5444 158.296 17.4243 158.67 17.1842C159.051 16.9441 159.318 16.6217 159.47 16.2168H160.24C160.032 16.8069 159.671 17.2837 159.158 17.6473C158.646 18.0108 158.074 18.1926 157.443 18.1926C156.625 18.1926 155.925 17.9045 155.343 17.3282C154.768 16.752 154.48 16.0591 154.48 15.2496C154.48 14.4401 154.768 13.7437 155.343 13.1607C155.925 12.5775 156.622 12.2859 157.433 12.2859C158.257 12.2859 158.961 12.5844 159.543 13.1812C160.125 13.7781 160.416 14.4846 160.416 15.301ZM159.668 14.8586C159.571 14.3028 159.318 13.8432 158.909 13.4796C158.5 13.116 158.011 12.9342 157.443 12.9342C156.882 12.9342 156.393 13.116 155.977 13.4796C155.569 13.8432 155.319 14.3028 155.229 14.8586H159.668Z" fill="#3C8995"/>
<path d="M168.027 18.0589H167.299V17.071H167.278C167.036 17.4346 166.717 17.7124 166.322 17.9045C165.934 18.0967 165.515 18.1926 165.064 18.1926C164.205 18.1926 163.48 17.9114 162.891 17.3489C162.302 16.7795 162.008 16.0728 162.008 15.229C162.008 14.392 162.306 13.6923 162.902 13.1298C163.498 12.5672 164.219 12.2859 165.064 12.2859C165.521 12.2859 165.944 12.382 166.332 12.574C166.727 12.7662 167.043 13.0474 167.278 13.4179H167.299V12.43H168.027V18.0589ZM166.675 16.8754C167.119 16.4227 167.341 15.8808 167.341 15.2496C167.341 14.6185 167.119 14.0765 166.675 13.6237C166.239 13.1641 165.702 12.9342 165.064 12.9342C164.392 12.9342 163.834 13.1572 163.39 13.6031C162.954 14.0422 162.735 14.5945 162.735 15.2598C162.735 15.9184 162.957 16.4638 163.401 16.8961C163.844 17.3282 164.399 17.5444 165.064 17.5444C165.702 17.5444 166.239 17.3214 166.675 16.8754Z" fill="#3C8995"/>
<path d="M172.828 13.0782H171.466V18.0588H170.738V13.0782H169.543V12.4299H170.738V9.77002H171.466V12.4299H172.828V13.0782Z" fill="#3C8995"/>
<path d="M179.979 15.301C179.979 15.3285 179.975 15.3628 179.968 15.404C179.968 15.4451 179.968 15.4794 179.968 15.5068H174.791C174.819 16.0557 175.051 16.5325 175.488 16.9372C175.931 17.342 176.434 17.5444 176.995 17.5444C177.446 17.5444 177.858 17.4243 178.232 17.1842C178.614 16.9441 178.88 16.6217 179.033 16.2168H179.802C179.594 16.8069 179.234 17.2837 178.721 17.6473C178.208 18.0108 177.636 18.1926 177.006 18.1926C176.188 18.1926 175.488 17.9045 174.906 17.3282C174.331 16.752 174.043 16.0591 174.043 15.2496C174.043 14.4401 174.331 13.7437 174.906 13.1607C175.488 12.5775 176.184 12.2859 176.995 12.2859C177.82 12.2859 178.523 12.5844 179.106 13.1812C179.688 13.7781 179.979 14.4846 179.979 15.301ZM179.23 14.8586C179.133 14.3028 178.88 13.8432 178.471 13.4796C178.063 13.116 177.574 12.9342 177.006 12.9342C176.444 12.9342 175.956 13.116 175.54 13.4796C175.131 13.8432 174.882 14.3028 174.791 14.8586H179.23Z" fill="#3C8995"/>
<path d="M184.162 13.0474C183.656 13.0886 183.257 13.2601 182.966 13.5619C182.682 13.8638 182.54 14.2652 182.54 14.7659V18.0589H181.812V12.43H182.54V13.243H182.561C182.707 12.9068 182.908 12.6701 183.164 12.5329C183.42 12.3957 183.753 12.3134 184.162 12.2859V13.0474Z" fill="#3C8995"/>
<path d="M149.291 17.3873C149.291 17.867 149.255 18.2803 149.182 18.6272C149.116 18.9741 148.97 19.2989 148.744 19.6015C148.473 19.9557 148.123 20.2288 147.692 20.4207C147.269 20.62 146.827 20.7196 146.367 20.7196C145.629 20.7196 144.983 20.524 144.428 20.1329C143.88 19.7491 143.504 19.2029 143.3 18.4944H144.11C144.3 18.9814 144.592 19.3579 144.986 19.6236C145.381 19.8893 145.837 20.0222 146.356 20.0222C147.02 20.0222 147.546 19.8155 147.933 19.4021C148.327 18.9888 148.525 18.4427 148.525 17.7637V17.2323H148.503C148.291 17.6382 147.973 17.9482 147.55 18.1623C147.126 18.3763 146.673 18.4833 146.191 18.4833C145.322 18.4833 144.581 18.1807 143.968 17.5754C143.362 16.9629 143.059 16.2175 143.059 15.3391C143.059 14.4535 143.362 13.697 143.968 13.0696C144.581 12.4423 145.322 12.1287 146.191 12.1287C146.666 12.1287 147.104 12.2356 147.506 12.4497C147.915 12.6637 148.247 12.97 148.503 13.3685H148.525V12.2836H149.291V17.3873ZM147.867 17.0552C148.335 16.568 148.568 15.9887 148.568 15.317C148.568 14.6454 148.338 14.0623 147.878 13.5678C147.418 13.0733 146.856 12.8261 146.191 12.8261C145.527 12.8261 144.965 13.0733 144.505 13.5678C144.052 14.0549 143.825 14.6381 143.825 15.317C143.825 15.9887 144.052 16.568 144.505 17.0552C144.965 17.5423 145.527 17.7858 146.191 17.7858C146.849 17.7858 147.407 17.5423 147.867 17.0552Z" fill="#3C8995"/>
<path d="M98.1442 28.7064C98.1442 29.9069 97.729 30.9121 96.8987 31.7222C96.0683 32.5225 95.0475 32.9227 93.8362 32.9227C93.211 32.9227 92.62 32.786 92.0632 32.5128C91.5162 32.2298 91.0668 31.8344 90.7152 31.3269H90.6859V35.5433H89.6602V24.7242H90.6859V26.1297H90.7152C91.0766 25.6124 91.526 25.2171 92.0632 24.9438C92.6103 24.6608 93.2013 24.5193 93.8362 24.5193C95.028 24.5193 96.0439 24.9194 96.884 25.7198C97.7241 26.5201 98.1442 27.5156 98.1442 28.7064ZM97.1185 28.7502C97.1185 27.8035 96.8059 27.0178 96.1807 26.3932C95.5653 25.7587 94.7838 25.4416 93.8362 25.4416C92.9375 25.4416 92.1756 25.7685 91.5504 26.4225C90.935 27.0667 90.6272 27.8377 90.6272 28.7356C90.6272 29.6336 90.935 30.4046 91.5504 31.0487C92.1756 31.6832 92.9375 32.0004 93.8362 32.0004C94.774 32.0004 95.5555 31.693 96.1807 31.0781C96.8059 30.4632 97.1185 29.6872 97.1185 28.7502Z" fill="#3C8995"/>
<path d="M108.207 32.7324H107.181V31.3269H107.152C106.81 31.8442 106.36 32.2395 105.804 32.5128C105.257 32.786 104.666 32.9227 104.031 32.9227C102.819 32.9227 101.799 32.5225 100.968 31.7222C100.138 30.9121 99.7227 29.9069 99.7227 28.7064C99.7227 27.5156 100.143 26.5201 100.983 25.7198C101.823 24.9194 102.839 24.5193 104.031 24.5193C104.675 24.5193 105.271 24.6559 105.818 24.9292C106.375 25.2025 106.82 25.6027 107.152 26.1297H107.181V24.7242H108.207V32.7324ZM106.302 31.0487C106.927 30.4046 107.24 29.6336 107.24 28.7356C107.24 27.8377 106.927 27.0667 106.302 26.4225C105.686 25.7685 104.929 25.4416 104.031 25.4416C103.083 25.4416 102.297 25.7587 101.672 26.3932C101.056 27.0178 100.748 27.8035 100.748 28.7502C100.748 29.6872 101.061 30.4632 101.686 31.0781C102.311 31.693 103.093 32.0004 104.031 32.0004C104.929 32.0004 105.686 31.6832 106.302 31.0487Z" fill="#3C8995"/>
<path d="M111.819 32.7324H110.793V21.8987H111.819V32.7324Z" fill="#3C8995"/>
<path d="M126.283 32.7324H125.257V28.0914C125.257 27.3204 125.076 26.686 124.715 26.1882C124.363 25.6905 123.816 25.4416 123.074 25.4416C122.331 25.4416 121.78 25.6905 121.418 26.1882C121.067 26.686 120.891 27.3204 120.891 28.0914V32.7324H119.865V28.0914C119.865 27.3204 119.684 26.686 119.323 26.1882C118.971 25.6905 118.424 25.4416 117.682 25.4416C116.939 25.4416 116.387 25.6905 116.026 26.1882C115.674 26.686 115.498 27.3204 115.498 28.0914V32.7324H114.473V24.7242H115.498V25.6465C115.977 24.895 116.705 24.5193 117.682 24.5193C118.258 24.5193 118.781 24.651 119.249 24.9146C119.728 25.1781 120.104 25.5587 120.378 26.0564C121.023 25.0317 121.921 24.5193 123.074 24.5193C124.07 24.5193 124.852 24.8413 125.418 25.4855C125.995 26.1297 126.283 26.9593 126.283 27.9743V32.7324Z" fill="#3C8995"/>
<path d="M148.625 28.7064C148.625 29.9069 148.209 30.9121 147.379 31.7222C146.549 32.5225 145.528 32.9227 144.317 32.9227C143.691 32.9227 143.101 32.786 142.544 32.5128C141.997 32.2298 141.547 31.8344 141.196 31.3269H141.166V35.5433H140.141V24.7242H141.166V26.1297H141.196C141.557 25.6124 142.006 25.2171 142.544 24.9438C143.091 24.6608 143.682 24.5193 144.317 24.5193C145.508 24.5193 146.524 24.9194 147.364 25.7198C148.205 26.5201 148.625 27.5156 148.625 28.7064ZM147.599 28.7502C147.599 27.8035 147.286 27.0178 146.661 26.3932C146.046 25.7587 145.264 25.4416 144.317 25.4416C143.418 25.4416 142.656 25.7685 142.031 26.4225C141.415 27.0667 141.108 27.8377 141.108 28.7356C141.108 29.6336 141.415 30.4046 142.031 31.0487C142.656 31.6832 143.418 32.0004 144.317 32.0004C145.254 32.0004 146.036 31.693 146.661 31.0781C147.286 30.4632 147.599 29.6872 147.599 28.7502Z" fill="#3C8995"/>
<path d="M154.187 25.6027C153.473 25.6612 152.912 25.9052 152.501 26.3346C152.101 26.7641 151.901 27.3351 151.901 28.0475V32.7324H150.875V24.7242H151.901V25.8808H151.93C152.135 25.4025 152.418 25.0659 152.78 24.8706C153.141 24.6754 153.61 24.5583 154.187 24.5193V25.6027Z" fill="#3C8995"/>
<path d="M157.041 23.7433H156.016V21.8987H157.041V23.7433ZM157.041 32.7324H156.016V24.7242H157.041V32.7324Z" fill="#3C8995"/>
<path d="M166.728 32.7324H165.702V28.3257C165.702 27.34 165.448 26.6079 164.94 26.1297C164.452 25.6709 163.87 25.4416 163.196 25.4416C162.522 25.4416 161.941 25.6709 161.453 26.1297C160.954 26.5981 160.705 27.3058 160.705 28.2525V32.7324H159.68V24.7242H160.705V25.7491H160.735C160.989 25.3488 161.335 25.0463 161.775 24.8413C162.224 24.6266 162.698 24.5193 163.196 24.5193C164.32 24.5193 165.189 24.8706 165.804 25.5734C166.42 26.2663 166.728 27.1838 166.728 28.3257V32.7324Z" fill="#3C8995"/>
<path d="M177.283 31.4733C177.283 32.1077 177.234 32.6543 177.136 33.113C177.048 33.5718 176.853 34.0012 176.55 34.4013C176.189 34.8699 175.72 35.231 175.143 35.4847C174.577 35.7483 173.986 35.8801 173.371 35.8801C172.384 35.8801 171.519 35.6214 170.777 35.1041C170.044 34.5966 169.541 33.8743 169.268 32.9373H170.352C170.606 33.5816 170.997 34.0793 171.524 34.4306C172.052 34.7821 172.662 34.9577 173.356 34.9577C174.245 34.9577 174.948 34.6844 175.466 34.1378C175.993 33.5912 176.257 32.8691 176.257 31.9711V31.2684H176.228C175.945 31.8052 175.52 32.2151 174.953 32.4982C174.386 32.7812 173.781 32.9227 173.136 32.9227C171.974 32.9227 170.982 32.5225 170.162 31.7222C169.351 30.9121 168.945 29.9264 168.945 28.7649C168.945 27.5937 169.351 26.5933 170.162 25.7636C170.982 24.9341 171.974 24.5193 173.136 24.5193C173.771 24.5193 174.357 24.6608 174.894 24.9438C175.441 25.2268 175.886 25.6319 176.228 26.1589H176.257V24.7242H177.283V31.4733ZM175.378 31.0341C176.003 30.39 176.316 29.6238 176.316 28.7356C176.316 27.8475 176.008 27.0764 175.393 26.4225C174.777 25.7685 174.025 25.4416 173.136 25.4416C172.247 25.4416 171.495 25.7685 170.88 26.4225C170.274 27.0667 169.971 27.8377 169.971 28.7356C169.971 29.6238 170.274 30.39 170.88 31.0341C171.495 31.6783 172.247 32.0004 173.136 32.0004C174.015 32.0004 174.763 31.6783 175.378 31.0341Z" fill="#3C8995"/>
<path fill-rule="evenodd" clip-rule="evenodd" d="M132.596 24.9047C133.202 24.4387 134.022 24.2191 134.836 24.2715C136.287 24.3651 137.154 24.9844 137.65 25.6204C137.892 25.9312 138.038 26.2357 138.125 26.4645C138.168 26.5793 138.197 26.6763 138.215 26.7472C138.224 26.7828 138.231 26.812 138.235 26.8339C138.237 26.8449 138.239 26.854 138.24 26.8612L138.242 26.8704L138.243 26.874L138.243 26.8755C138.243 26.8758 138.243 26.8768 137.752 26.9587C137.26 27.0407 137.26 27.0409 137.26 27.0412L137.261 27.0426L137.261 27.0439C137.261 27.0442 137.261 27.0446 137.261 27.0439L137.26 27.038C137.258 27.0301 137.255 27.0157 137.25 26.9957C137.239 26.9555 137.221 26.8932 137.192 26.8159C137.133 26.6604 137.032 26.449 136.864 26.2334C136.539 25.8165 135.932 25.3409 134.772 25.2661C134.165 25.227 133.592 25.3961 133.203 25.6948C132.829 25.9827 132.624 26.3865 132.687 26.8968C132.752 27.4145 132.921 27.6866 133.115 27.8563C133.324 28.0398 133.623 28.1569 134.048 28.2515C134.257 28.2983 134.482 28.3362 134.729 28.378L134.74 28.3798C134.98 28.4202 135.24 28.464 135.503 28.5205C136.039 28.6354 136.617 28.8083 137.169 29.144C138.143 29.7369 138.39 30.9883 137.998 32.0042C137.587 33.0706 136.494 33.9053 134.79 33.858C133.331 33.8174 132.422 33.1962 131.886 32.5585C131.623 32.2457 131.455 31.9362 131.352 31.7034C131.3 31.5867 131.264 31.4878 131.241 31.4157C131.229 31.3795 131.22 31.35 131.214 31.3281C131.211 31.3171 131.209 31.308 131.207 31.3009L131.204 31.2918L131.204 31.2884L131.203 31.2871C131.203 31.2868 131.203 31.2859 131.688 31.1699C132.172 31.054 132.172 31.0537 132.172 31.0535L132.172 31.0522L132.171 31.0511C132.171 31.0506 132.171 31.0506 132.171 31.0511L132.174 31.0594C132.176 31.0685 132.181 31.0845 132.188 31.1065C132.202 31.1504 132.227 31.2176 132.263 31.3004C132.337 31.467 132.459 31.6912 132.648 31.9169C133.018 32.356 133.667 32.8297 134.818 32.8617C136.146 32.8986 136.825 32.2761 137.069 31.6455C137.331 30.9642 137.116 30.2784 136.65 29.9954C136.233 29.7414 135.776 29.5985 135.294 29.4949C135.052 29.4431 134.811 29.4026 134.565 29.361L134.563 29.3608C134.321 29.3199 134.07 29.2777 133.831 29.2244C133.357 29.1189 132.859 28.957 132.458 28.6062C132.042 28.2416 131.786 27.7241 131.698 27.0205C131.586 26.1183 131.976 25.3814 132.596 24.9047Z" fill="#3C8995"/>
<path fill-rule="evenodd" clip-rule="evenodd" d="M180.353 24.9047C180.959 24.4387 181.78 24.2191 182.594 24.2715C184.045 24.3651 184.912 24.9844 185.408 25.6204C185.65 25.9312 185.796 26.2357 185.882 26.4645C185.926 26.5793 185.954 26.6763 185.973 26.7472C185.982 26.7828 185.988 26.812 185.993 26.8339C185.995 26.8449 185.997 26.854 185.998 26.8612L186 26.8704L186.001 26.874L186.001 26.8755C186.001 26.8758 186.001 26.8768 185.51 26.9587C185.018 27.0407 185.018 27.0409 185.018 27.0412L185.018 27.0426L185.019 27.0439C185.019 27.0442 185.019 27.0446 185.019 27.0439L185.017 27.038C185.016 27.0301 185.013 27.0157 185.007 26.9957C184.997 26.9555 184.979 26.8932 184.95 26.8159C184.891 26.6604 184.79 26.449 184.622 26.2334C184.297 25.8165 183.69 25.3409 182.53 25.2661C181.923 25.227 181.35 25.3961 180.961 25.6948C180.587 25.9827 180.381 26.3865 180.445 26.8968C180.51 27.4145 180.678 27.6866 180.872 27.8563C181.082 28.0398 181.38 28.1569 181.805 28.2515C182.015 28.2983 182.24 28.3362 182.487 28.378L182.498 28.3798C182.738 28.4202 182.997 28.464 183.261 28.5205C183.796 28.6354 184.375 28.8083 184.926 29.144C185.901 29.7369 186.148 30.9883 185.756 32.0042C185.345 33.0706 184.252 33.9053 182.548 33.858C181.089 33.8174 180.18 33.1962 179.643 32.5585C179.38 32.2457 179.212 31.9362 179.109 31.7034C179.058 31.5867 179.022 31.4878 178.999 31.4157C178.987 31.3795 178.978 31.35 178.972 31.3281C178.969 31.3171 178.966 31.308 178.964 31.3009L178.962 31.2918L178.961 31.2884L178.961 31.2871C178.961 31.2868 178.961 31.2859 179.445 31.1699C179.93 31.054 179.93 31.0537 179.93 31.0535L179.93 31.0522L179.929 31.0511C179.929 31.0506 179.929 31.0506 179.929 31.0511L179.932 31.0594C179.934 31.0685 179.939 31.0845 179.946 31.1065C179.96 31.1504 179.984 31.2176 180.021 31.3004C180.095 31.467 180.216 31.6912 180.406 31.9169C180.775 32.356 181.425 32.8297 182.576 32.8617C183.904 32.8986 184.583 32.2761 184.826 31.6455C185.089 30.9642 184.873 30.2784 184.408 29.9954C183.991 29.7414 183.534 29.5985 183.051 29.4949C182.81 29.4431 182.569 29.4026 182.323 29.361L182.321 29.3608C182.079 29.3199 181.828 29.2777 181.589 29.2244C181.115 29.1189 180.617 28.957 180.216 28.6062C179.799 28.2416 179.544 27.7241 179.456 27.0205C179.343 26.1183 179.733 25.3814 180.353 24.9047Z" fill="#3C8995"/>
<path d="M109.621 12.2126C109.621 12.2126 113.074 12.2005 114.59 12.1284C116.022 12.0602 116.275 10.865 116.275 10.865" stroke="#3C8995" stroke-width="0.897" stroke-linecap="round" stroke-linejoin="round"/>
<path d="M109.372 15.5813C109.372 15.5813 108.953 17.5795 109.878 18.1081C111.057 18.7819 112.994 15.7498 112.994 15.7498" stroke="#3C8995" stroke-width="0.897" stroke-linecap="round" stroke-linejoin="round"/>
<path d="M101.475 10.9391C101.256 10.7526 100.916 10.9434 100.819 11.2308C100.746 11.4509 100.774 11.6861 100.95 11.8143C101.154 11.9618 101.413 11.8258 101.54 11.5955C101.662 11.3756 101.659 11.0958 101.475 10.9391Z" fill="#3C8995"/>
<path d="M108.549 10.9391C108.33 10.7526 107.99 10.9434 107.894 11.2308C107.82 11.4509 107.848 11.6861 108.025 11.8143C108.228 11.9618 108.488 11.8258 108.615 11.5955C108.736 11.3756 108.733 11.0958 108.549 10.9391Z" fill="#3C8995"/>
<path d="M100.273 13.1398C100.273 13.1398 98.7579 15.7093 98.7578 17.182C98.7578 17.7716 98.9263 18.2776 99.5154 18.2776C100.105 18.2776 100.948 16.9294 100.948 16.9294C100.948 16.9294 101.621 18.5967 102.969 18.2776C103.719 18.0999 104.232 17.6873 104.232 16.7614C104.232 15.5903 102.379 15.5744 102.379 14.4031C102.379 13.1396 104.264 12.6614 104.822 13.4761C105.137 13.9376 104.654 14.7392 104.654 14.7392" stroke="#3C8995" stroke-width="0.897" stroke-linecap="round" stroke-linejoin="round"/>
<path d="M107.348 13.1401C107.348 13.1401 105.832 15.7095 105.832 17.1823C105.832 17.7719 106 18.2778 106.59 18.2778C107.179 18.2778 107.853 18.0241 108.948 16.3396C110.366 14.1584 111.812 10.6123 111.812 10.6123" stroke="#3C8995" stroke-width="0.897" stroke-linecap="round" stroke-linejoin="round"/>
<path d="M89.7461 15.9183C89.7461 15.9183 90.1277 14.6649 90.5883 13.897C91.599 12.2125 94.2943 11.3363 94.9681 12.2125C95.8102 13.3076 93.8731 15.1946 93.8731 17.1818C93.8731 17.5187 93.9388 17.9305 94.2943 18.1083C95.305 18.6137 96.9052 17.5187 97.7475 15.4973C98.1958 14.4213 98.0002 13.0548 98.0002 13.0548" stroke="#3C8995" stroke-width="0.897" stroke-linecap="round" stroke-linejoin="round"/>
<path d="M129.977 8.45772C129.977 8.45772 132.218 6.58478 133.514 3.99379C134.314 2.39351 134.104 1.30573 133.514 1.12997C132.84 0.9291 132.082 1.80472 131.829 3.4046C131.36 6.37429 131.829 8.97237 131.829 8.97237" stroke="#3C8995" stroke-width="1.196" stroke-linecap="round"/>
<path d="M131.914 8.97378C131.914 8.97378 134.835 9.02065 137.509 7.90553C139.16 7.21681 139.711 6.25572 139.38 5.73747C139.001 5.14517 137.855 5.31281 136.618 6.35892C134.323 8.3007 132.981 10.5741 132.981 10.5741" stroke="#3C8995" stroke-width="1.196" stroke-linecap="round"/>
<path d="M133.08 10.6443C133.08 10.6443 135.243 12.6087 137.987 13.5373C139.681 14.1108 140.73 13.7533 140.823 13.1452C140.93 12.4502 139.959 11.8193 138.34 11.788C135.334 11.73 132.824 12.5502 132.824 12.5502" stroke="#3C8995" stroke-width="1.196" stroke-linecap="round"/>
<path d="M132.834 12.6333C132.834 12.6333 133.187 15.5332 134.658 18.029C135.566 19.5704 136.594 19.9849 137.062 19.5856C137.596 19.1292 137.273 18.017 136.068 16.9353C133.83 14.9274 131.395 13.9088 131.395 13.9088" stroke="#3C8995" stroke-width="1.196" stroke-linecap="round"/>
<path d="M131.294 13.9958C131.294 13.9958 129.613 16.3852 129.033 19.2232C128.674 20.9761 129.159 21.9722 129.774 21.9894C130.477 22.009 130.982 20.9671 130.812 19.3563C130.497 16.3664 129.371 13.9783 129.371 13.9783" stroke="#3C8995" stroke-width="1.196" stroke-linecap="round"/>
<path d="M129.288 13.9988C129.288 13.9988 126.454 14.7095 124.16 16.4786C122.744 17.5712 122.46 18.6422 122.914 19.057C123.434 19.5311 124.497 19.0726 125.421 17.742C127.135 15.2723 127.844 12.729 127.844 12.729" stroke="#3C8995" stroke-width="1.196" stroke-linecap="round"/>
<path d="M127.699 12.7535C127.699 12.7535 124.795 11.8705 121.9 11.9692C120.112 12.0301 119.256 12.7345 119.383 13.3364C119.529 14.0243 120.66 14.2724 122.186 13.7306C125.02 12.725 127.079 11.0725 127.079 11.0725" stroke="#3C8995" stroke-width="1.196" stroke-linecap="round"/>
<path d="M127.146 11.0275C127.146 11.0275 125.729 8.47282 123.428 6.71238C122.007 5.62507 120.899 5.62692 120.616 6.17282C120.291 6.79671 121.009 7.70614 122.532 8.25571C125.36 9.27583 128 9.3047 128 9.3047" stroke="#3C8995" stroke-width="1.196" stroke-linecap="round"/>
<path d="M128.02 9.22278C128.02 9.22278 128.616 6.36294 128.025 3.52713C127.659 1.77566 126.819 1.05317 126.248 1.2811C125.595 1.54158 125.544 2.6986 126.338 4.11012C127.813 6.73017 129.792 8.47683 129.792 8.47683" stroke="#3C8995" stroke-width="1.196" stroke-linecap="round"/>
</g>
</g>
</g>
<defs>
<clipPath id="clip0_4051_34500">
<rect width="276" height="35.88" fill="white"/>
</clipPath>
<clipPath id="clip1_4051_34500">
<rect width="96.6767" height="35.88" fill="white" transform="translate(89.6602)"/>
</clipPath>
</defs>
</svg>
