<svg width="276" height="36" viewBox="0 0 276 36" fill="none" xmlns="http://www.w3.org/2000/svg">
<g clip-path="url(#clip0_4051_34480)">
<g clip-path="url(#clip1_4051_34480)" filter="url(#filter0_d_4051_34480)">
<path d="M140.316 16.9957C140.316 16.9957 140.354 16.9957 140.393 16.9957C141.086 16.8801 141.702 16.6103 142.202 16.1864C142.78 15.724 143.049 15.1459 143.049 14.4907C143.049 14.1439 142.934 13.7585 142.703 13.4116C142.664 13.3731 142.472 13.1033 142.048 12.6023C141.817 12.294 141.702 12.0627 141.702 11.8701C141.702 11.6389 141.817 11.4847 142.01 11.3305C142.202 11.2149 142.395 11.1763 142.626 11.1763C142.664 11.1763 142.703 11.1763 142.78 11.1763C142.857 11.1763 142.895 11.1763 142.895 11.1763C142.972 11.1763 142.972 11.1378 142.972 11.0993V11.0607C142.664 10.444 142.472 9.9816 142.395 9.75039C142.356 9.67331 142.318 9.63477 142.279 9.63477C142.241 9.63477 142.241 9.63477 142.202 9.63477C141.548 9.75039 140.97 9.94308 140.547 10.29C140.008 10.6754 139.7 11.1763 139.7 11.7929C139.7 12.2169 139.815 12.6023 140.046 12.9106C140.085 12.9492 140.277 13.2189 140.662 13.6428C140.893 13.9126 141.009 14.1439 141.009 14.3751C141.009 14.7219 140.855 14.9532 140.508 15.1459C140.354 15.223 140.046 15.3 139.546 15.4156C139.507 15.4156 139.469 15.4542 139.469 15.4928C139.469 15.6084 139.584 15.8781 139.854 16.3406C140.085 16.7645 140.239 16.9957 140.316 16.9957Z" fill="#1EB5C3"/>
<path d="M149.632 9.8276C149.44 9.8276 149.132 9.8276 148.747 9.86613C148.362 9.86613 148.054 9.90468 147.862 9.90468C147.785 9.90468 147.746 9.94322 147.746 10.0589C147.746 10.5213 147.746 11.2536 147.785 12.2171C147.823 13.1805 147.823 13.8742 147.823 14.3752C147.823 15.0304 147.476 15.3387 146.822 15.3387C146.36 15.3387 146.052 15.2231 145.898 14.9533C145.783 14.7607 145.744 14.4137 145.744 13.9128C145.744 13.4888 145.744 12.8337 145.783 11.9473C145.821 11.0994 145.821 10.4442 145.821 9.98174C145.821 9.90468 145.783 9.86613 145.706 9.86613C145.513 9.86613 145.205 9.86613 144.782 9.8276C144.358 9.8276 144.089 9.78906 143.858 9.78906C143.781 9.78906 143.742 9.8276 143.742 9.90468C143.742 10.2901 143.742 10.8682 143.781 11.6004C143.819 12.3327 143.819 12.9493 143.819 13.2962C143.819 13.4118 143.819 13.643 143.819 13.8742C143.819 14.144 143.819 14.3367 143.819 14.4909C143.819 15.0689 143.858 15.4929 143.935 15.6856C144.089 16.148 144.474 16.4564 145.051 16.6105C145.398 16.7261 145.937 16.7647 146.591 16.7647C148.054 16.7647 148.978 16.4949 149.325 15.9168C149.517 15.6085 149.632 15.0304 149.632 14.2211C149.632 14.1054 149.632 13.9513 149.632 13.7586C149.632 13.566 149.632 13.3732 149.632 13.2962C149.632 12.9107 149.632 12.3327 149.671 11.6004C149.709 10.8682 149.71 10.2515 149.71 9.90468C149.786 9.86613 149.748 9.8276 149.632 9.8276Z" fill="#1EB5C3"/>
<path d="M155.946 14.4136C156.369 13.9126 156.562 13.2959 156.562 12.4866C156.562 11.7158 156.331 11.0992 155.83 10.5982C155.368 10.1357 154.714 9.90448 153.944 9.86593C153.482 9.86593 152.981 9.82739 152.481 9.82739C151.595 9.82739 151.056 9.82739 150.787 9.86593C150.671 9.86593 150.633 9.90448 150.633 9.98153V10.0587C150.71 11.1762 150.748 12.2939 150.748 13.2959C150.748 13.6428 150.748 14.2208 150.748 14.9531C150.748 15.6854 150.748 16.2249 150.748 16.6103C150.748 16.6874 150.787 16.7644 150.902 16.7644C151.095 16.7644 151.403 16.7644 151.788 16.7644C152.173 16.7644 152.481 16.7644 152.673 16.7644C152.75 16.7644 152.789 16.7259 152.789 16.6488C152.789 16.4946 152.789 16.2634 152.75 15.9936C152.712 15.7239 152.712 15.4541 152.712 15.2999C152.712 15.1843 152.789 15.1073 152.904 15.1073C153.02 15.1073 153.251 15.1073 153.482 15.1458C153.751 15.1458 153.944 15.1843 154.059 15.1843C154.868 15.1843 155.484 14.9145 155.946 14.4136ZM153.559 13.6428C152.981 13.6428 152.673 13.6042 152.673 13.5272C152.673 13.4116 152.673 13.2574 152.673 13.0647C152.673 12.872 152.673 12.7179 152.673 12.6023C152.673 11.87 152.673 11.5231 152.712 11.446C152.75 11.369 153.02 11.369 153.52 11.369C154.252 11.369 154.637 11.7544 154.637 12.5251C154.598 13.2574 154.252 13.6428 153.559 13.6428Z" fill="#1EB5C3"/>
<path d="M157.33 13.3345C157.33 13.6814 157.33 14.2594 157.33 14.9917C157.33 15.7239 157.33 16.2635 157.33 16.6488C157.33 16.726 157.368 16.803 157.484 16.803C157.676 16.803 157.984 16.803 158.369 16.803C158.754 16.803 159.062 16.803 159.255 16.803C159.332 16.803 159.37 16.7644 159.37 16.6874C159.37 16.5332 159.37 16.302 159.332 16.0322C159.293 15.7625 159.293 15.4927 159.293 15.3385C159.293 15.2229 159.37 15.1459 159.486 15.1459C159.601 15.1459 159.832 15.1459 160.063 15.1843C160.333 15.1843 160.525 15.2229 160.641 15.2229C161.411 15.2229 162.027 14.9531 162.489 14.4522C162.912 13.9512 163.105 13.3345 163.105 12.5251C163.105 11.7544 162.874 11.1378 162.373 10.6367C161.911 10.1743 161.257 9.94304 160.487 9.90451C160.025 9.90451 159.524 9.86597 159.024 9.86597C158.138 9.86597 157.599 9.86597 157.33 9.90451C157.214 9.90451 157.176 9.94304 157.176 10.0201V10.0972C157.291 11.2148 157.33 12.2939 157.33 13.3345ZM159.216 11.4846C159.255 11.4076 159.524 11.4076 160.025 11.4076C160.756 11.4076 161.141 11.793 161.141 12.5637C161.141 13.2959 160.795 13.6428 160.063 13.6428C159.486 13.6428 159.178 13.6043 159.178 13.5272C159.178 13.4116 159.178 13.2574 159.178 13.0647C159.178 12.8721 159.178 12.7179 159.178 12.6023C159.216 11.9086 159.216 11.5232 159.216 11.4846Z" fill="#1EB5C3"/>
<path d="M169.65 10.7138C168.995 10.0202 168.148 9.63477 167.147 9.63477C166.146 9.63477 165.299 9.98159 164.606 10.7138C163.952 11.4075 163.605 12.2554 163.605 13.296C163.605 14.2981 163.952 15.1844 164.606 15.8781C165.261 16.5719 166.108 16.9573 167.147 16.9573C168.187 16.9573 168.995 16.6103 169.688 15.9166C170.343 15.223 170.651 14.3751 170.651 13.3346C170.651 12.294 170.304 11.4075 169.65 10.7138ZM168.341 14.5293C168.033 14.9146 167.609 15.0688 167.147 15.0688C166.647 15.0688 166.262 14.8761 165.954 14.5293C165.646 14.1824 165.53 13.7585 165.53 13.2574C165.53 12.795 165.684 12.371 165.992 12.0242C166.3 11.6389 166.724 11.4461 167.186 11.4461C167.686 11.4461 168.071 11.6389 168.379 11.9857C168.687 12.3325 168.841 12.7564 168.841 13.2574C168.803 13.7585 168.649 14.1824 168.341 14.5293Z" fill="#1EB5C3"/>
<path d="M171.383 16.6105C171.383 16.6876 171.421 16.7261 171.537 16.7647C171.652 16.8032 171.922 16.8032 172.384 16.8032C172.807 16.8032 173.077 16.8032 173.308 16.7647C173.346 16.7647 173.385 16.7647 173.462 16.7647C173.5 16.7647 173.5 16.7261 173.5 16.649C173.5 16.4178 173.462 16.1094 173.423 15.647C173.385 15.1845 173.346 14.8763 173.346 14.645C173.346 14.4909 173.385 14.3752 173.423 14.3752C173.77 14.3752 173.962 14.3752 173.962 14.3752C174.155 14.3752 174.309 14.4523 174.347 14.5679C174.617 15.2231 174.809 15.6856 174.963 16.0324C175.04 16.3022 175.117 16.4949 175.194 16.6105C175.233 16.649 175.233 16.6876 175.271 16.7261C175.271 16.7261 175.31 16.7261 175.387 16.7647C175.541 16.8032 175.849 16.8032 176.272 16.8032C176.773 16.8032 177.081 16.8032 177.196 16.7647C177.273 16.7647 177.312 16.7261 177.312 16.7261C177.312 16.649 177.119 16.1866 176.696 15.3387C176.311 14.5294 176.08 14.1054 176.08 14.1054C176.08 14.0669 176.118 14.0284 176.195 13.9513C176.58 13.6816 176.811 13.4118 176.965 13.1034C177.119 12.7951 177.158 12.4483 177.158 11.9473C177.158 11.215 176.888 10.6754 176.349 10.2901C175.887 9.94322 175.271 9.78906 174.501 9.78906C174.155 9.78906 173.654 9.78906 173.038 9.8276C172.153 9.86613 171.652 9.86613 171.537 9.90468C171.421 9.94322 171.383 9.94322 171.383 10.0203V10.0974C171.46 10.8682 171.46 11.9473 171.46 13.3346C171.46 13.6816 171.46 14.2596 171.421 14.9919C171.421 15.6856 171.383 16.2251 171.383 16.6105ZM173.346 11.4077C173.385 11.3306 173.539 11.2536 173.847 11.2536C174.27 11.2536 174.617 11.3306 174.809 11.4462C175.079 11.6004 175.194 11.8702 175.194 12.2941C175.194 12.8722 174.848 13.142 174.116 13.142C173.885 13.142 173.693 13.142 173.5 13.1034C173.385 13.1034 173.346 13.0649 173.346 13.0649C173.346 12.9878 173.346 12.8722 173.346 12.7181C173.346 12.5639 173.346 12.4483 173.346 12.3711C173.308 11.8317 173.308 11.5233 173.346 11.4077Z" fill="#1EB5C3"/>
<path d="M182.588 10.9838C182.55 10.8296 182.55 10.714 182.55 10.6369C182.55 10.5598 182.55 10.4442 182.55 10.2515C182.55 10.0974 182.55 9.98174 182.55 9.86613C182.55 9.8276 182.55 9.78906 182.511 9.78906C182.511 9.78906 182.473 9.78906 182.395 9.78906C182.395 9.78906 182.165 9.78906 181.741 9.8276C180.933 9.90468 180.394 9.90468 180.124 9.90468C179.085 9.90468 178.315 9.86613 177.776 9.78906C177.737 9.78906 177.699 9.78906 177.699 9.78906C177.66 9.78906 177.622 9.90468 177.583 10.1745C177.583 10.3286 177.545 10.4828 177.545 10.6369C177.545 10.6754 177.506 10.8296 177.468 11.0608C177.429 11.2536 177.391 11.4077 177.391 11.4462C177.391 11.4848 177.429 11.4848 177.468 11.4848C177.853 11.4848 178.392 11.4462 179.046 11.3692C179.085 12.2555 179.085 12.8337 179.085 13.0649C179.085 13.4502 179.085 14.0284 179.046 14.7991C179.008 15.5699 179.008 16.148 179.008 16.5334C179.008 16.6105 179.046 16.6876 179.162 16.6876C179.316 16.7261 179.624 16.7261 180.047 16.7261C180.432 16.7261 180.702 16.7261 180.933 16.6876C181.01 16.6876 181.048 16.6876 181.087 16.649C181.125 16.649 181.125 16.6105 181.125 16.5334C181.125 16.148 181.125 15.5699 181.087 14.7991C181.048 14.0284 181.048 13.4502 181.048 13.0649C181.048 12.7181 181.048 12.1399 181.087 11.3306C181.934 11.3692 182.434 11.4077 182.55 11.4077C182.627 11.4077 182.665 11.3692 182.665 11.2921C182.588 11.2536 182.588 11.138 182.588 10.9838Z" fill="#1EB5C3"/>
<path d="M144.781 22.2758L146.205 24.3184L139.43 18.4219V29.5212H143.203V26.2068L141.971 24.3569L148.169 29.5212V18.4219H144.781V22.2758Z" fill="#44484D"/>
<path d="M163.685 29.5212V18.4219H160.297V22.2758L161.721 24.3184L154.945 18.4219V29.5212H158.718V26.2068L157.486 24.3569L163.685 29.5212Z" fill="#44484D"/>
<path d="M153.405 18.4604H149.824V29.5212H153.405V18.4604Z" fill="#44484D"/>
<path d="M169.922 29.5212H173.656L175.735 25.6288L177.814 29.5212H181.472L175.812 18.4604L169.922 29.5212Z" fill="#44484D"/>
<path d="M168.956 18.4219H165.414V29.5212C165.414 32.1418 163.027 31.7949 163.027 31.7949V35.1094C169.38 34.7625 168.956 29.5212 168.956 29.5212V18.4219Z" fill="#44484D"/>
<path d="M119.334 13.2191H119.411L122.722 9.86614C122.722 9.86614 115.83 2.23538 114.83 0.385498C113.829 2.23538 106.937 9.86614 106.937 9.86614L110.248 13.2191L100.007 23.4319L97.3125 25.7058L102.279 30.2148L108.208 24.5496L111.519 27.864L114.791 24.5881L118.063 27.864L121.336 24.5881L127.226 30.2148L132.193 25.7058L129.498 23.4319L119.334 13.2191Z" fill="#44484D"/>
<path d="M105.844 30.9331L108.815 33.8446L111.293 31.3109L108.321 28.3994L105.844 30.9331Z" fill="#1EB5C3"/>
<path d="M118.336 31.3185L120.813 33.8522L123.785 30.9407L121.307 28.407L118.336 31.3185Z" fill="#1EB5C3"/>
<path d="M106.704 13.7586L104.856 11.9473C99.0041 17.9979 92.8828 22.3529 92.8828 22.3529L95.2697 24.0486C99.9666 20.6186 106.704 13.7586 106.704 13.7586Z" fill="#1EB5C3"/>
<path d="M124.801 11.9473L122.953 13.7586C122.953 13.7586 129.69 20.6186 134.387 24.0486L136.774 22.3529C136.774 22.3143 130.653 17.9979 124.801 11.9473Z" fill="#1EB5C3"/>
</g>
</g>
<defs>
<filter id="filter0_d_4051_34480" x="88.1523" y="0" width="99.6914" height="43.8799" filterUnits="userSpaceOnUse" color-interpolation-filters="sRGB">
<feFlood flood-opacity="0" result="BackgroundImageFix"/>
<feColorMatrix in="SourceAlpha" type="matrix" values="0 0 0 0 0 0 0 0 0 0 0 0 0 0 0 0 0 0 127 0" result="hardAlpha"/>
<feOffset dy="4"/>
<feGaussianBlur stdDeviation="2"/>
<feComposite in2="hardAlpha" operator="out"/>
<feColorMatrix type="matrix" values="0 0 0 0 0 0 0 0 0 0 0 0 0 0 0 0 0 0 0.25 0"/>
<feBlend mode="normal" in2="BackgroundImageFix" result="effect1_dropShadow_4051_34480"/>
<feBlend mode="normal" in="SourceGraphic" in2="effect1_dropShadow_4051_34480" result="shape"/>
</filter>
<clipPath id="clip0_4051_34480">
<rect width="276" height="35.88" fill="white"/>
</clipPath>
<clipPath id="clip1_4051_34480">
<rect width="91.6933" height="35.88" fill="white" transform="translate(92.1523)"/>
</clipPath>
</defs>
</svg>
