<svg width="526" height="301" viewBox="0 0 526 301" fill="none" xmlns="http://www.w3.org/2000/svg">
<g clip-path="url(#clip0_3801_39493)">
<path d="M0 10.0498C0 4.52697 4.47715 0.0498047 10 0.0498047H526V300.05H0V10.0498Z" fill="#EEF0F5"/>
<rect x="85.332" y="42.7168" width="644.379" height="300" rx="8.87574" fill="white"/>
<path d="M111.433 80.189C110.77 80.189 110.155 80.0659 109.587 79.8197C109.019 79.5641 108.536 79.2186 108.138 78.7831C107.741 78.3475 107.447 77.8458 107.258 77.2777L108.678 76.6813C108.933 77.3345 109.307 77.8363 109.8 78.1866C110.292 78.5369 110.86 78.712 111.504 78.712C111.883 78.712 112.214 78.6552 112.498 78.5416C112.782 78.4186 113 78.2481 113.151 78.0304C113.312 77.8126 113.393 77.5617 113.393 77.2777C113.393 76.8896 113.284 76.5819 113.066 76.3546C112.848 76.1274 112.526 75.9475 112.1 75.815L110.112 75.1902C109.317 74.944 108.711 74.57 108.294 74.0683C107.878 73.557 107.669 72.9606 107.669 72.2789C107.669 71.6825 107.816 71.1617 108.11 70.7168C108.403 70.2623 108.806 69.9073 109.317 69.6517C109.838 69.3961 110.429 69.2683 111.092 69.2683C111.726 69.2683 112.304 69.3819 112.825 69.6091C113.345 69.8268 113.79 70.1298 114.159 70.518C114.538 70.9061 114.813 71.3558 114.983 71.8671L113.591 72.4777C113.383 71.9191 113.056 71.4884 112.612 71.1854C112.176 70.8825 111.669 70.731 111.092 70.731C110.742 70.731 110.434 70.7925 110.169 70.9156C109.904 71.0292 109.696 71.1996 109.544 71.4268C109.402 71.6446 109.331 71.9002 109.331 72.1937C109.331 72.5345 109.44 72.8375 109.658 73.1026C109.875 73.3677 110.207 73.5665 110.652 73.699L112.498 74.2813C113.341 74.5369 113.975 74.9061 114.401 75.389C114.827 75.8623 115.04 76.4541 115.04 77.1641C115.04 77.7511 114.884 78.2718 114.571 78.7262C114.268 79.1807 113.847 79.5404 113.307 79.8055C112.768 80.0612 112.143 80.189 111.433 80.189ZM119.222 80.189C118.644 80.189 118.138 80.0612 117.702 79.8055C117.267 79.5404 116.926 79.176 116.68 78.712C116.443 78.2387 116.325 77.6943 116.325 77.0789V72.3357H117.929V76.9369C117.929 77.2872 118 77.5949 118.142 77.86C118.284 78.1251 118.483 78.3333 118.739 78.4848C118.994 78.6268 119.288 78.6978 119.619 78.6978C119.96 78.6978 120.258 78.6221 120.514 78.4706C120.77 78.3191 120.968 78.1061 121.11 77.8316C121.262 77.557 121.338 77.2351 121.338 76.8659V72.3357H122.928V80.0186H121.409V78.5132L121.579 78.712C121.399 79.1854 121.101 79.5499 120.684 79.8055C120.268 80.0612 119.78 80.189 119.222 80.189ZM124.518 82.8588V72.3357H126.051V73.9262L125.867 73.557C126.151 73.1215 126.53 72.7807 127.003 72.5345C127.476 72.2884 128.016 72.1653 128.622 72.1653C129.351 72.1653 130.004 72.3404 130.582 72.6907C131.169 73.041 131.628 73.5191 131.959 74.1251C132.3 74.731 132.47 75.4126 132.47 76.17C132.47 76.9274 132.3 77.6091 131.959 78.215C131.628 78.8209 131.173 79.3038 130.596 79.6635C130.018 80.0138 129.36 80.189 128.622 80.189C128.025 80.189 127.481 80.0659 126.989 79.8197C126.506 79.5736 126.132 79.2186 125.867 78.7546L126.122 78.4564V82.8588H124.518ZM128.466 78.6978C128.92 78.6978 129.322 78.589 129.673 78.3712C130.023 78.1535 130.298 77.8552 130.496 77.4765C130.705 77.0884 130.809 76.6529 130.809 76.17C130.809 75.6872 130.705 75.2564 130.496 74.8777C130.298 74.499 130.023 74.2008 129.673 73.9831C129.322 73.7653 128.92 73.6564 128.466 73.6564C128.021 73.6564 127.618 73.7653 127.259 73.9831C126.908 74.2008 126.629 74.499 126.421 74.8777C126.222 75.2564 126.122 75.6872 126.122 76.17C126.122 76.6529 126.222 77.0884 126.421 77.4765C126.629 77.8552 126.908 78.1535 127.259 78.3712C127.618 78.589 128.021 78.6978 128.466 78.6978ZM133.747 82.8588V72.3357H135.281V73.9262L135.097 73.557C135.381 73.1215 135.759 72.7807 136.233 72.5345C136.706 72.2884 137.246 72.1653 137.852 72.1653C138.581 72.1653 139.234 72.3404 139.811 72.6907C140.398 73.041 140.857 73.5191 141.189 74.1251C141.53 74.731 141.7 75.4126 141.7 76.17C141.7 76.9274 141.53 77.6091 141.189 78.215C140.857 78.8209 140.403 79.3038 139.826 79.6635C139.248 80.0138 138.59 80.189 137.852 80.189C137.255 80.189 136.711 80.0659 136.218 79.8197C135.736 79.5736 135.362 79.2186 135.097 78.7546L135.352 78.4564V82.8588H133.747ZM137.695 78.6978C138.15 78.6978 138.552 78.589 138.902 78.3712C139.253 78.1535 139.527 77.8552 139.726 77.4765C139.934 77.0884 140.039 76.6529 140.039 76.17C140.039 75.6872 139.934 75.2564 139.726 74.8777C139.527 74.499 139.253 74.2008 138.902 73.9831C138.552 73.7653 138.15 73.6564 137.695 73.6564C137.25 73.6564 136.848 73.7653 136.488 73.9831C136.138 74.2008 135.859 74.499 135.65 74.8777C135.452 75.2564 135.352 75.6872 135.352 76.17C135.352 76.6529 135.452 77.0884 135.65 77.4765C135.859 77.8552 136.138 78.1535 136.488 78.3712C136.848 78.589 137.25 78.6978 137.695 78.6978ZM142.977 80.0186V69.2683H144.582V80.0186H142.977ZM146.174 80.0186V72.3357H147.779V80.0186H146.174ZM146.174 71.2848V69.4387H147.779V71.2848H146.174ZM152.978 80.189C152.211 80.189 151.53 80.0138 150.933 79.6635C150.346 79.3038 149.887 78.8209 149.556 78.215C149.224 77.5996 149.059 76.9132 149.059 76.1558C149.059 75.3795 149.224 74.6931 149.556 74.0967C149.896 73.5002 150.351 73.0316 150.919 72.6907C151.487 72.3404 152.131 72.1653 152.85 72.1653C153.428 72.1653 153.944 72.2647 154.398 72.4635C154.853 72.6623 155.236 72.9369 155.548 73.2872C155.861 73.628 156.098 74.0209 156.259 74.4659C156.429 74.9109 156.514 75.3842 156.514 75.886C156.514 76.0091 156.509 76.1369 156.5 76.2694C156.49 76.402 156.472 76.5251 156.443 76.6387H150.322V75.3606H155.534L154.767 75.9428C154.862 75.4789 154.829 75.0671 154.668 74.7073C154.517 74.3381 154.28 74.0493 153.958 73.841C153.645 73.6233 153.276 73.5144 152.85 73.5144C152.424 73.5144 152.045 73.6233 151.714 73.841C151.383 74.0493 151.127 74.3523 150.947 74.7499C150.767 75.1381 150.696 75.6115 150.734 76.17C150.687 76.6907 150.758 77.1452 150.947 77.5333C151.146 77.9215 151.421 78.2245 151.771 78.4422C152.131 78.66 152.538 78.7689 152.992 78.7689C153.456 78.7689 153.849 78.6647 154.171 78.4564C154.502 78.2481 154.763 77.9783 154.952 77.647L156.259 78.286C156.107 78.6458 155.87 78.9724 155.548 79.2659C155.236 79.5499 154.857 79.7771 154.412 79.9475C153.977 80.1085 153.499 80.189 152.978 80.189ZM157.796 80.0186V72.3357H159.33V73.8836L159.188 73.6564C159.358 73.1546 159.633 72.7949 160.012 72.5771C160.39 72.3499 160.845 72.2363 161.375 72.2363H161.844V73.699H161.176C160.646 73.699 160.215 73.8647 159.884 74.1961C159.562 74.518 159.401 74.9819 159.401 75.5878V80.0186H157.796ZM165.498 80.189C164.712 80.189 164.021 79.9949 163.424 79.6067C162.837 79.2186 162.425 78.6978 162.189 78.0446L163.424 77.4623C163.633 77.8978 163.917 78.2434 164.276 78.499C164.646 78.7546 165.053 78.8825 165.498 78.8825C165.876 78.8825 166.184 78.7973 166.421 78.6268C166.657 78.4564 166.776 78.2245 166.776 77.931C166.776 77.7416 166.724 77.5902 166.619 77.4765C166.515 77.3535 166.383 77.2541 166.222 77.1783C166.07 77.1026 165.914 77.0458 165.753 77.0079L164.546 76.6671C163.883 76.4777 163.386 76.1937 163.055 75.815C162.733 75.4268 162.572 74.9771 162.572 74.4659C162.572 74.002 162.691 73.5996 162.927 73.2588C163.164 72.9085 163.491 72.6387 163.907 72.4493C164.324 72.26 164.792 72.1653 165.313 72.1653C166.014 72.1653 166.638 72.3404 167.188 72.6907C167.737 73.0316 168.125 73.5097 168.352 74.1251L167.117 74.7073C166.965 74.3381 166.724 74.0446 166.392 73.8268C166.07 73.6091 165.706 73.5002 165.299 73.5002C164.948 73.5002 164.669 73.5854 164.461 73.7558C164.253 73.9168 164.148 74.1298 164.148 74.3949C164.148 74.5748 164.196 74.7262 164.291 74.8493C164.385 74.9629 164.508 75.0576 164.66 75.1333C164.811 75.1996 164.967 75.2564 165.128 75.3038L166.378 75.673C167.012 75.8529 167.5 76.1369 167.841 76.5251C168.182 76.9038 168.352 77.3582 168.352 77.8884C168.352 78.3428 168.229 78.7452 167.983 79.0955C167.746 79.4363 167.415 79.7061 166.989 79.9049C166.563 80.0943 166.066 80.189 165.498 80.189ZM171.995 80.0186V69.4387H175.844C176.554 69.4387 177.178 69.5712 177.718 69.8363C178.267 70.0919 178.693 70.4706 178.996 70.9724C179.299 71.4647 179.451 72.0564 179.451 72.7475C179.451 73.4292 179.294 74.0162 178.982 74.5085C178.679 75.0008 178.258 75.3795 177.718 75.6446C177.178 75.9097 176.554 76.0422 175.844 76.0422H173.671V80.0186H171.995ZM173.671 74.5511H175.886C176.265 74.5511 176.596 74.4754 176.88 74.3239C177.164 74.1724 177.387 73.9641 177.548 73.699C177.709 73.4245 177.789 73.1026 177.789 72.7333C177.789 72.3641 177.709 72.047 177.548 71.7819C177.387 71.5073 177.164 71.299 176.88 71.157C176.596 71.0055 176.265 70.9298 175.886 70.9298H173.671V74.5511ZM184.165 80.189C183.426 80.189 182.749 80.0138 182.134 79.6635C181.528 79.3132 181.045 78.8351 180.685 78.2292C180.326 77.6233 180.146 76.9369 180.146 76.17C180.146 75.3937 180.326 74.7073 180.685 74.1109C181.045 73.5049 181.528 73.0316 182.134 72.6907C182.74 72.3404 183.417 72.1653 184.165 72.1653C184.922 72.1653 185.599 72.3404 186.195 72.6907C186.801 73.0316 187.28 73.5049 187.63 74.1109C187.99 74.7073 188.169 75.3937 188.169 76.17C188.169 76.9464 187.99 77.6375 187.63 78.2434C187.27 78.8493 186.787 79.3274 186.181 79.6777C185.575 80.0186 184.903 80.189 184.165 80.189ZM184.165 78.6978C184.619 78.6978 185.022 78.589 185.372 78.3712C185.722 78.1535 185.997 77.8552 186.195 77.4765C186.404 77.0884 186.508 76.6529 186.508 76.17C186.508 75.6872 186.404 75.2564 186.195 74.8777C185.997 74.499 185.722 74.2008 185.372 73.9831C185.022 73.7653 184.619 73.6564 184.165 73.6564C183.72 73.6564 183.317 73.7653 182.958 73.9831C182.607 74.2008 182.328 74.499 182.12 74.8777C181.921 75.2564 181.822 75.6872 181.822 76.17C181.822 76.6529 181.921 77.0884 182.12 77.4765C182.328 77.8552 182.607 78.1535 182.958 78.3712C183.317 78.589 183.72 78.6978 184.165 78.6978ZM189.452 80.0186V72.3357H190.986V73.8836L190.844 73.6564C191.014 73.1546 191.289 72.7949 191.668 72.5771C192.046 72.3499 192.501 72.2363 193.031 72.2363H193.499V73.699H192.832C192.302 73.699 191.871 73.8647 191.54 74.1961C191.218 74.518 191.057 74.9819 191.057 75.5878V80.0186H189.452ZM197.775 80.1038C196.97 80.1038 196.345 79.8765 195.9 79.4221C195.455 78.9677 195.233 78.3286 195.233 77.5049V73.7842H193.884V72.3357H194.097C194.457 72.3357 194.736 72.2316 194.935 72.0233C195.134 71.815 195.233 71.531 195.233 71.1712V70.5748H196.838V72.3357H198.584V73.7842H196.838V77.4339C196.838 77.699 196.88 77.9262 196.966 78.1156C197.051 78.2955 197.188 78.4375 197.377 78.5416C197.567 78.6363 197.813 78.6836 198.116 78.6836C198.192 78.6836 198.277 78.6789 198.371 78.6694C198.466 78.66 198.556 78.6505 198.641 78.641V80.0186C198.509 80.0375 198.362 80.0564 198.201 80.0754C198.04 80.0943 197.898 80.1038 197.775 80.1038ZM202.155 80.189C201.634 80.189 201.175 80.099 200.777 79.9191C200.389 79.7298 200.086 79.4742 199.868 79.1523C199.65 78.8209 199.542 78.4328 199.542 77.9878C199.542 77.5712 199.631 77.1973 199.811 76.8659C200.001 76.5345 200.289 76.2552 200.678 76.028C201.066 75.8008 201.553 75.6399 202.14 75.5452L204.81 75.1049V76.3689L202.453 76.7807C202.027 76.8564 201.714 76.9937 201.515 77.1925C201.317 77.3819 201.217 77.628 201.217 77.931C201.217 78.2245 201.326 78.4659 201.544 78.6552C201.771 78.8351 202.06 78.9251 202.41 78.9251C202.846 78.9251 203.224 78.8304 203.546 78.641C203.878 78.4517 204.133 78.2008 204.313 77.8884C204.493 77.5665 204.583 77.2115 204.583 76.8233V74.8493C204.583 74.4706 204.441 74.1629 204.157 73.9262C203.882 73.6801 203.513 73.557 203.049 73.557C202.623 73.557 202.249 73.6706 201.927 73.8978C201.615 74.1156 201.383 74.3996 201.231 74.7499L199.897 74.0825C200.039 73.7038 200.27 73.3724 200.592 73.0884C200.914 72.7949 201.288 72.5677 201.714 72.4067C202.15 72.2458 202.609 72.1653 203.092 72.1653C203.698 72.1653 204.233 72.2789 204.697 72.5061C205.17 72.7333 205.534 73.0505 205.79 73.4576C206.055 73.8552 206.188 74.3191 206.188 74.8493V80.0186H204.654V78.6268L204.981 78.6694C204.801 78.9819 204.569 79.2517 204.285 79.4789C204.01 79.7061 203.693 79.8813 203.333 80.0044C202.983 80.1274 202.59 80.189 202.155 80.189ZM207.78 80.0186V69.2683H209.385V80.0186H207.78Z" fill="#1A202C"/>
<path d="M109.743 136.55H110.595V135.592C111.064 135.549 111.472 135.429 111.82 135.23C112.175 135.031 112.448 134.772 112.64 134.452C112.839 134.126 112.938 133.756 112.938 133.345C112.938 132.301 112.303 131.58 111.032 131.182L110.595 131.044V128.605C111.191 128.782 111.61 129.191 111.852 129.83L112.896 129.372C112.725 128.889 112.438 128.477 112.033 128.136C111.635 127.795 111.156 127.575 110.595 127.476V126.485H109.743V127.433C109.281 127.462 108.877 127.575 108.529 127.774C108.181 127.973 107.907 128.236 107.709 128.562C107.51 128.889 107.41 129.262 107.41 129.681C107.41 130.192 107.567 130.639 107.879 131.023C108.191 131.399 108.646 131.679 109.242 131.864L109.743 132.024V134.442C109.388 134.356 109.072 134.193 108.795 133.952C108.525 133.703 108.316 133.38 108.167 132.982L107.101 133.43C107.286 133.998 107.613 134.477 108.081 134.868C108.55 135.258 109.104 135.496 109.743 135.581V136.55ZM109.647 130.746C109.313 130.646 109.065 130.497 108.901 130.298C108.738 130.1 108.656 129.872 108.656 129.617C108.656 129.318 108.756 129.074 108.955 128.882C109.154 128.69 109.416 128.573 109.743 128.53V130.778L109.647 130.746ZM110.733 132.333C111.046 132.432 111.284 132.567 111.447 132.737C111.617 132.908 111.703 133.139 111.703 133.43C111.703 133.714 111.603 133.952 111.404 134.143C111.206 134.328 110.936 134.442 110.595 134.484V132.29L110.733 132.333ZM115.19 135.485H116.437V127.55H113.667V128.616H115.19V135.485ZM120.458 135.613C120.991 135.613 121.467 135.496 121.886 135.262C122.304 135.027 122.631 134.708 122.865 134.303C123.107 133.898 123.228 133.444 123.228 132.94C123.228 132.443 123.118 131.999 122.897 131.608C122.684 131.211 122.383 130.898 121.992 130.671C121.609 130.437 121.158 130.32 120.639 130.32C120.107 130.32 119.667 130.44 119.319 130.682L119.596 128.616H122.929V127.55H118.701L118.083 131.917L119.095 132.141C119.209 131.914 119.386 131.733 119.628 131.598C119.876 131.463 120.153 131.395 120.458 131.395C120.899 131.395 121.261 131.541 121.545 131.832C121.836 132.116 121.981 132.485 121.981 132.94C121.981 133.394 121.836 133.767 121.545 134.058C121.261 134.349 120.899 134.495 120.458 134.495C120.089 134.495 119.755 134.395 119.457 134.197C119.159 133.998 118.939 133.71 118.797 133.334L117.742 133.739C117.856 134.122 118.044 134.456 118.307 134.74C118.577 135.017 118.896 135.233 119.265 135.389C119.642 135.539 120.039 135.613 120.458 135.613ZM124.316 135.485H125.52V133.739L126.383 132.823L128.151 135.485H129.535L127.267 132.034L129.44 129.723H127.938L125.52 132.226V127.423H124.316V135.485Z" fill="#14171F" fill-opacity="0.6"/>
<path d="M109.743 170.278H110.595V169.319C111.064 169.277 111.472 169.156 111.82 168.957C112.175 168.758 112.448 168.499 112.64 168.18C112.839 167.853 112.938 167.484 112.938 167.072C112.938 166.028 112.303 165.308 111.032 164.91L110.595 164.771V162.332C111.191 162.51 111.61 162.918 111.852 163.557L112.896 163.099C112.725 162.616 112.438 162.205 112.033 161.864C111.635 161.523 111.156 161.303 110.595 161.203V160.213H109.743V161.161C109.281 161.189 108.877 161.303 108.529 161.502C108.181 161.7 107.907 161.963 107.709 162.29C107.51 162.616 107.41 162.989 107.41 163.408C107.41 163.919 107.567 164.367 107.879 164.75C108.191 165.126 108.646 165.407 109.242 165.592L109.743 165.751V168.169C109.388 168.084 109.072 167.921 108.795 167.679C108.525 167.431 108.316 167.108 108.167 166.71L107.101 167.157C107.286 167.725 107.613 168.205 108.081 168.595C108.55 168.986 109.104 169.224 109.743 169.309V170.278ZM109.647 164.473C109.313 164.374 109.065 164.225 108.901 164.026C108.738 163.827 108.656 163.6 108.656 163.344C108.656 163.046 108.756 162.801 108.955 162.609C109.154 162.418 109.416 162.3 109.743 162.258V164.505L109.647 164.473ZM110.733 166.06C111.046 166.16 111.284 166.295 111.447 166.465C111.617 166.635 111.703 166.866 111.703 167.157C111.703 167.441 111.603 167.679 111.404 167.871C111.206 168.055 110.936 168.169 110.595 168.212V166.018L110.733 166.06ZM115.19 169.213H116.437V161.278H113.667V162.343H115.19V169.213ZM121.097 169.341C121.729 169.341 122.28 169.17 122.748 168.829C123.224 168.482 123.593 168.002 123.856 167.392C124.119 166.774 124.25 166.057 124.25 165.24C124.25 164.424 124.119 163.71 123.856 163.099C123.593 162.482 123.224 162.002 122.748 161.661C122.273 161.321 121.719 161.15 121.087 161.15C120.462 161.15 119.912 161.321 119.436 161.661C118.96 162.002 118.587 162.478 118.318 163.089C118.055 163.699 117.923 164.416 117.923 165.24C117.923 166.057 118.055 166.774 118.318 167.392C118.587 168.002 118.96 168.482 119.436 168.829C119.919 169.17 120.473 169.341 121.097 169.341ZM121.097 168.19C120.707 168.19 120.366 168.07 120.075 167.828C119.791 167.587 119.571 167.246 119.415 166.806C119.258 166.358 119.18 165.837 119.18 165.24C119.18 164.331 119.351 163.614 119.691 163.089C120.039 162.556 120.504 162.29 121.087 162.29C121.484 162.29 121.825 162.411 122.109 162.652C122.393 162.893 122.613 163.234 122.77 163.674C122.926 164.115 123.004 164.637 123.004 165.24C123.004 166.142 122.833 166.859 122.493 167.392C122.152 167.924 121.687 168.19 121.097 168.19ZM125.388 169.213H126.591V167.466L127.454 166.55L129.222 169.213H130.607L128.338 165.762L130.511 163.451H129.009L126.591 165.954V161.15H125.388V169.213Z" fill="#14171F" fill-opacity="0.6"/>
<path d="M109.743 204.006H110.595V203.048C111.064 203.005 111.472 202.885 111.82 202.686C112.175 202.487 112.448 202.228 112.64 201.908C112.839 201.582 112.938 201.212 112.938 200.801C112.938 199.757 112.303 199.036 111.032 198.638L110.595 198.5V196.061C111.191 196.238 111.61 196.647 111.852 197.286L112.896 196.828C112.725 196.345 112.438 195.933 112.033 195.592C111.635 195.251 111.156 195.031 110.595 194.932V193.941H109.743V194.889C109.281 194.918 108.877 195.031 108.529 195.23C108.181 195.429 107.907 195.692 107.709 196.018C107.51 196.345 107.41 196.718 107.41 197.137C107.41 197.648 107.567 198.095 107.879 198.479C108.191 198.855 108.646 199.135 109.242 199.32L109.743 199.48V201.898C109.388 201.812 109.072 201.649 108.795 201.408C108.525 201.159 108.316 200.836 108.167 200.438L107.101 200.886C107.286 201.454 107.613 201.933 108.081 202.324C108.55 202.714 109.104 202.952 109.743 203.037V204.006ZM109.647 198.202C109.313 198.102 109.065 197.953 108.901 197.754C108.738 197.556 108.656 197.328 108.656 197.073C108.656 196.775 108.756 196.53 108.955 196.338C109.154 196.146 109.416 196.029 109.743 195.986V198.234L109.647 198.202ZM110.733 199.789C111.046 199.888 111.284 200.023 111.447 200.193C111.617 200.364 111.703 200.595 111.703 200.886C111.703 201.17 111.603 201.408 111.404 201.599C111.206 201.784 110.936 201.898 110.595 201.94V199.746L110.733 199.789ZM116.5 203.069C117.033 203.069 117.509 202.952 117.928 202.718C118.347 202.483 118.673 202.164 118.908 201.759C119.149 201.354 119.27 200.9 119.27 200.396C119.27 199.899 119.16 199.455 118.939 199.064C118.726 198.667 118.425 198.354 118.034 198.127C117.651 197.893 117.2 197.776 116.682 197.776C116.149 197.776 115.709 197.896 115.361 198.138L115.638 196.072H118.971V195.006H114.743L114.125 199.373L115.137 199.597C115.251 199.37 115.428 199.189 115.67 199.054C115.918 198.919 116.195 198.851 116.5 198.851C116.941 198.851 117.303 198.997 117.587 199.288C117.878 199.572 118.024 199.941 118.024 200.396C118.024 200.85 117.878 201.223 117.587 201.514C117.303 201.805 116.941 201.951 116.5 201.951C116.131 201.951 115.797 201.851 115.499 201.653C115.201 201.454 114.981 201.166 114.839 200.79L113.784 201.195C113.898 201.578 114.086 201.912 114.349 202.196C114.619 202.473 114.938 202.689 115.308 202.846C115.684 202.995 116.082 203.069 116.5 203.069ZM120.359 202.941H121.562V201.195L122.425 200.279L124.193 202.941H125.577L123.309 199.491L125.482 197.179H123.98L121.562 199.682V194.879H120.359V202.941Z" fill="#14171F" fill-opacity="0.6"/>
<path d="M109.743 237.734H110.595V236.775C111.064 236.733 111.472 236.612 111.82 236.413C112.175 236.215 112.448 235.955 112.64 235.636C112.839 235.309 112.938 234.94 112.938 234.528C112.938 233.484 112.303 232.764 111.032 232.366L110.595 232.228V229.788C111.191 229.966 111.61 230.374 111.852 231.013L112.896 230.555C112.725 230.072 112.438 229.661 112.033 229.32C111.635 228.979 111.156 228.759 110.595 228.659V227.669H109.743V228.617C109.281 228.645 108.877 228.759 108.529 228.958C108.181 229.157 107.907 229.419 107.709 229.746C107.51 230.072 107.41 230.445 107.41 230.864C107.41 231.375 107.567 231.823 107.879 232.206C108.191 232.583 108.646 232.863 109.242 233.048L109.743 233.207V235.625C109.388 235.54 109.072 235.377 108.795 235.135C108.525 234.887 108.316 234.564 108.167 234.166L107.101 234.613C107.286 235.181 107.613 235.661 108.081 236.051C108.55 236.442 109.104 236.68 109.743 236.765V237.734ZM109.647 231.929C109.313 231.83 109.065 231.681 108.901 231.482C108.738 231.283 108.656 231.056 108.656 230.8C108.656 230.502 108.756 230.257 108.955 230.065C109.154 229.874 109.416 229.757 109.743 229.714V231.961L109.647 231.929ZM110.733 233.516C111.046 233.616 111.284 233.751 111.447 233.921C111.617 234.091 111.703 234.322 111.703 234.613C111.703 234.897 111.603 235.135 111.404 235.327C111.206 235.512 110.936 235.625 110.595 235.668V233.474L110.733 233.516ZM115.19 236.669H116.437V228.734H113.667V229.799H115.19V236.669ZM117.977 236.669H119.18V234.922L120.043 234.006L121.811 236.669H123.196L120.927 233.218L123.1 230.907H121.598L119.18 233.41V228.606H117.977V236.669Z" fill="#14171F" fill-opacity="0.6"/>
<path d="M109.743 271.462H110.595V270.503C111.064 270.46 111.472 270.34 111.82 270.141C112.175 269.942 112.448 269.683 112.64 269.363C112.839 269.037 112.938 268.667 112.938 268.256C112.938 267.212 112.303 266.491 111.032 266.094L110.595 265.955V263.516C111.191 263.694 111.61 264.102 111.852 264.741L112.896 264.283C112.725 263.8 112.438 263.388 112.033 263.047C111.635 262.707 111.156 262.486 110.595 262.387V261.396H109.743V262.344C109.281 262.373 108.877 262.486 108.529 262.685C108.181 262.884 107.907 263.147 107.709 263.473C107.51 263.8 107.41 264.173 107.41 264.592C107.41 265.103 107.567 265.55 107.879 265.934C108.191 266.31 108.646 266.591 109.242 266.775L109.743 266.935V269.353C109.388 269.267 109.072 269.104 108.795 268.863C108.525 268.614 108.316 268.291 108.167 267.894L107.101 268.341C107.286 268.909 107.613 269.388 108.081 269.779C108.55 270.169 109.104 270.407 109.743 270.492V271.462ZM109.647 265.657C109.313 265.557 109.065 265.408 108.901 265.21C108.738 265.011 108.656 264.783 108.656 264.528C108.656 264.23 108.756 263.985 108.955 263.793C109.154 263.601 109.416 263.484 109.743 263.441V265.689L109.647 265.657ZM110.733 267.244C111.046 267.343 111.284 267.478 111.447 267.649C111.617 267.819 111.703 268.05 111.703 268.341C111.703 268.625 111.603 268.863 111.404 269.054C111.206 269.239 110.936 269.353 110.595 269.395V267.201L110.733 267.244ZM116.5 270.524C117.033 270.524 117.509 270.407 117.928 270.173C118.347 269.938 118.673 269.619 118.908 269.214C119.149 268.81 119.27 268.355 119.27 267.851C119.27 267.354 119.16 266.91 118.939 266.52C118.726 266.122 118.425 265.81 118.034 265.582C117.651 265.348 117.2 265.231 116.682 265.231C116.149 265.231 115.709 265.352 115.361 265.593L115.638 263.527H118.971V262.462H114.743L114.125 266.828L115.137 267.052C115.251 266.825 115.428 266.644 115.67 266.509C115.918 266.374 116.195 266.307 116.5 266.307C116.941 266.307 117.303 266.452 117.587 266.743C117.878 267.027 118.024 267.396 118.024 267.851C118.024 268.305 117.878 268.678 117.587 268.969C117.303 269.26 116.941 269.406 116.5 269.406C116.131 269.406 115.797 269.307 115.499 269.108C115.201 268.909 114.981 268.621 114.839 268.245L113.784 268.65C113.898 269.033 114.086 269.367 114.349 269.651C114.619 269.928 114.938 270.144 115.308 270.301C115.684 270.45 116.082 270.524 116.5 270.524ZM123.479 270.524C124.111 270.524 124.662 270.354 125.13 270.013C125.606 269.665 125.975 269.186 126.238 268.575C126.501 267.957 126.632 267.24 126.632 266.424C126.632 265.607 126.501 264.894 126.238 264.283C125.975 263.665 125.606 263.186 125.13 262.845C124.654 262.504 124.101 262.334 123.469 262.334C122.844 262.334 122.293 262.504 121.818 262.845C121.342 263.186 120.969 263.662 120.699 264.272C120.437 264.883 120.305 265.6 120.305 266.424C120.305 267.24 120.437 267.957 120.699 268.575C120.969 269.186 121.342 269.665 121.818 270.013C122.301 270.354 122.854 270.524 123.479 270.524ZM123.479 269.374C123.089 269.374 122.748 269.253 122.457 269.012C122.173 268.77 121.953 268.43 121.796 267.989C121.64 267.542 121.562 267.02 121.562 266.424C121.562 265.515 121.733 264.798 122.073 264.272C122.421 263.74 122.886 263.473 123.469 263.473C123.866 263.473 124.207 263.594 124.491 263.836C124.775 264.077 124.995 264.418 125.151 264.858C125.308 265.298 125.386 265.82 125.386 266.424C125.386 267.325 125.215 268.043 124.875 268.575C124.534 269.108 124.069 269.374 123.479 269.374ZM130.89 270.524C131.522 270.524 132.073 270.354 132.541 270.013C133.017 269.665 133.386 269.186 133.649 268.575C133.912 267.957 134.043 267.24 134.043 266.424C134.043 265.607 133.912 264.894 133.649 264.283C133.386 263.665 133.017 263.186 132.541 262.845C132.066 262.504 131.512 262.334 130.88 262.334C130.255 262.334 129.705 262.504 129.229 262.845C128.753 263.186 128.38 263.662 128.11 264.272C127.848 264.883 127.716 265.6 127.716 266.424C127.716 267.24 127.848 267.957 128.11 268.575C128.38 269.186 128.753 269.665 129.229 270.013C129.712 270.354 130.266 270.524 130.89 270.524ZM130.89 269.374C130.5 269.374 130.159 269.253 129.868 269.012C129.584 268.77 129.364 268.43 129.208 267.989C129.051 267.542 128.973 267.02 128.973 266.424C128.973 265.515 129.144 264.798 129.484 264.272C129.832 263.74 130.297 263.473 130.88 263.473C131.277 263.473 131.618 263.594 131.902 263.836C132.186 264.077 132.406 264.418 132.563 264.858C132.719 265.298 132.797 265.82 132.797 266.424C132.797 267.325 132.626 268.043 132.286 268.575C131.945 269.108 131.48 269.374 130.89 269.374Z" fill="#14171F" fill-opacity="0.6"/>
<path d="M146.516 131.474H708.409" stroke="#F0F0F0" stroke-width="0.887574"/>
<path d="M146.516 165.201H708.409" stroke="#F0F0F0" stroke-width="0.887574"/>
<path d="M146.516 198.93H708.409" stroke="#F0F0F0" stroke-width="0.887574"/>
<path d="M146.516 232.657H708.409" stroke="#F0F0F0" stroke-width="0.887574"/>
<path d="M146.516 266.385H708.409" stroke="#F0F0F0" stroke-width="0.887574"/>
<path d="M166.102 162.539C166.102 159.598 168.486 157.214 171.427 157.214C174.368 157.214 176.752 159.598 176.752 162.539V288.575H166.102V162.539Z" fill="#725CFF"/>
<path d="M212.254 221.119C212.254 218.178 214.638 215.794 217.579 215.794C220.521 215.794 222.905 218.178 222.905 221.119V288.575H212.254V221.119Z" fill="#725CFF"/>
<path d="M258.41 144.787C258.41 141.846 260.794 139.462 263.736 139.462C266.677 139.462 269.061 141.846 269.061 144.787V288.574H258.41V144.787Z" fill="#725CFF"/>
<path d="M304.562 187.392C304.562 184.451 306.947 182.066 309.888 182.066C312.829 182.066 315.213 184.451 315.213 187.392V288.575H304.562V187.392Z" fill="#725CFF"/>
<path d="M350.719 208.693C350.719 205.751 353.103 203.367 356.044 203.367C358.985 203.367 361.37 205.751 361.37 208.693V288.574H350.719V208.693Z" fill="#725CFF"/>
<path d="M396.871 134.137C396.871 131.196 399.255 128.812 402.197 128.812C405.138 128.812 407.522 131.196 407.522 134.137V288.575H396.871V134.137Z" fill="#1C1E23"/>
<path d="M443.023 187.392C443.023 184.451 445.408 182.066 448.349 182.066C451.29 182.066 453.674 184.451 453.674 187.392V288.575H443.023V187.392Z" fill="#725CFF"/>
<path d="M489.18 178.515C489.18 175.574 491.564 173.189 494.505 173.189C497.446 173.189 499.831 175.574 499.831 178.515V288.574H489.18V178.515Z" fill="#725CFF"/>
<g filter="url(#filter0_d_3801_39493)">
<path d="M386.218 133.958C386.218 135.22 386.889 136.388 387.979 137.024L392.432 139.621C394.781 140.991 394.781 144.385 392.432 145.755L387.98 148.352C386.889 148.988 386.218 150.156 386.218 151.418V160.763C386.218 162.724 384.628 164.313 382.667 164.313H305.449C303.488 164.313 301.898 162.724 301.898 160.763V125.26C301.898 123.299 303.488 121.71 305.449 121.71H382.667C384.628 121.71 386.218 123.299 386.218 125.26V133.958Z" fill="#1C1E23"/>
</g>
<path d="M319.445 135.261H323.803V134.329H320.492V132.412H323.626V131.48H320.492V129.58H323.803V128.648H319.445V135.261ZM324.021 135.261H325.202L326.294 133.654L327.376 135.261H328.557L326.879 132.855L328.566 130.459H327.385L326.294 132.048L325.202 130.459H324.021L325.699 132.855L324.021 135.261ZM329.073 137.036H330.076V134.702C330.254 134.915 330.478 135.08 330.751 135.199C331.023 135.311 331.319 135.367 331.638 135.367C332.1 135.367 332.511 135.258 332.872 135.039C333.233 134.814 333.517 134.512 333.724 134.134C333.937 133.755 334.043 133.329 334.043 132.855C334.043 132.382 333.937 131.956 333.724 131.577C333.517 131.199 333.23 130.9 332.863 130.681C332.502 130.462 332.094 130.352 331.638 130.352C331.295 130.352 330.984 130.415 330.706 130.539C330.434 130.663 330.209 130.838 330.032 131.063V130.459H329.073V137.036ZM331.54 134.435C331.262 134.435 331.011 134.367 330.786 134.231C330.567 134.095 330.393 133.909 330.262 133.672C330.138 133.429 330.076 133.157 330.076 132.855C330.076 132.554 330.138 132.284 330.262 132.048C330.393 131.811 330.567 131.625 330.786 131.489C331.011 131.352 331.262 131.284 331.54 131.284C331.825 131.284 332.076 131.352 332.295 131.489C332.514 131.625 332.685 131.811 332.81 132.048C332.94 132.284 333.005 132.554 333.005 132.855C333.005 133.157 332.94 133.429 332.81 133.672C332.685 133.909 332.514 134.095 332.295 134.231C332.076 134.367 331.825 134.435 331.54 134.435ZM337.096 135.367C337.587 135.367 338.013 135.255 338.374 135.03C338.741 134.805 338.998 134.521 339.146 134.178L338.33 133.778C338.211 133.98 338.049 134.148 337.842 134.284C337.64 134.415 337.395 134.48 337.105 134.48C336.726 134.48 336.404 134.361 336.137 134.125C335.871 133.882 335.723 133.557 335.694 133.148H339.262C339.279 133.077 339.291 133 339.297 132.918C339.303 132.835 339.306 132.755 339.306 132.678C339.306 132.264 339.214 131.882 339.031 131.533C338.853 131.178 338.593 130.894 338.25 130.681C337.913 130.462 337.501 130.352 337.016 130.352C336.566 130.352 336.161 130.462 335.8 130.681C335.445 130.894 335.164 131.19 334.957 131.568C334.75 131.941 334.646 132.367 334.646 132.847C334.646 133.32 334.75 133.749 334.957 134.134C335.17 134.512 335.46 134.814 335.827 135.039C336.194 135.258 336.617 135.367 337.096 135.367ZM337.016 131.196C337.353 131.196 337.637 131.302 337.868 131.515C338.099 131.728 338.223 132.006 338.241 132.349H335.711C335.771 131.983 335.921 131.699 336.164 131.497C336.407 131.296 336.691 131.196 337.016 131.196ZM340.107 135.261H341.11V132.429C341.11 132.074 341.211 131.796 341.412 131.595C341.613 131.388 341.868 131.284 342.175 131.284C342.489 131.284 342.743 131.388 342.939 131.595C343.14 131.796 343.241 132.074 343.241 132.429V135.261H344.235V132.154C344.235 131.799 344.155 131.489 343.995 131.222C343.841 130.95 343.628 130.737 343.356 130.583C343.084 130.429 342.773 130.352 342.424 130.352C342.128 130.352 341.862 130.412 341.625 130.53C341.388 130.648 341.202 130.82 341.066 131.045V130.459H340.107V135.261ZM346.906 135.367C347.261 135.367 347.571 135.308 347.838 135.19C348.11 135.065 348.32 134.897 348.468 134.684C348.616 134.465 348.69 134.213 348.69 133.929C348.69 133.598 348.583 133.314 348.37 133.077C348.157 132.835 347.852 132.657 347.456 132.545L346.675 132.314C346.527 132.267 346.388 132.202 346.258 132.119C346.128 132.036 346.062 131.912 346.062 131.746C346.062 131.574 346.128 131.438 346.258 131.338C346.388 131.237 346.562 131.187 346.781 131.187C347.036 131.187 347.264 131.255 347.465 131.391C347.672 131.527 347.823 131.71 347.917 131.941L348.69 131.577C348.548 131.193 348.305 130.894 347.962 130.681C347.619 130.462 347.228 130.352 346.79 130.352C346.465 130.352 346.172 130.415 345.912 130.539C345.651 130.657 345.447 130.823 345.299 131.036C345.151 131.249 345.077 131.5 345.077 131.79C345.077 132.116 345.178 132.397 345.379 132.634C345.586 132.87 345.897 133.048 346.311 133.166L347.065 133.379C347.219 133.421 347.364 133.486 347.5 133.574C347.636 133.657 347.704 133.784 347.704 133.956C347.704 134.139 347.631 134.284 347.483 134.391C347.335 134.497 347.142 134.551 346.906 134.551C346.628 134.551 346.373 134.471 346.142 134.311C345.917 134.151 345.74 133.935 345.61 133.663L344.838 134.027C344.986 134.435 345.243 134.761 345.61 135.003C345.983 135.246 346.415 135.367 346.906 135.367ZM351.749 135.367C352.24 135.367 352.666 135.255 353.027 135.03C353.394 134.805 353.652 134.521 353.8 134.178L352.983 133.778C352.865 133.98 352.702 134.148 352.495 134.284C352.294 134.415 352.048 134.48 351.758 134.48C351.379 134.48 351.057 134.361 350.791 134.125C350.524 133.882 350.377 133.557 350.347 133.148H353.915C353.933 133.077 353.945 133 353.95 132.918C353.956 132.835 353.959 132.755 353.959 132.678C353.959 132.264 353.868 131.882 353.684 131.533C353.507 131.178 353.246 130.894 352.903 130.681C352.566 130.462 352.155 130.352 351.669 130.352C351.22 130.352 350.814 130.462 350.453 130.681C350.098 130.894 349.817 131.19 349.61 131.568C349.403 131.941 349.3 132.367 349.3 132.847C349.3 133.32 349.403 133.749 349.61 134.134C349.823 134.512 350.113 134.814 350.48 135.039C350.847 135.258 351.27 135.367 351.749 135.367ZM351.669 131.196C352.007 131.196 352.291 131.302 352.521 131.515C352.752 131.728 352.877 132.006 352.894 132.349H350.365C350.424 131.983 350.575 131.699 350.817 131.497C351.06 131.296 351.344 131.196 351.669 131.196Z" fill="white"/>
<path d="M322.44 156.592H323.31V155.486C323.84 155.445 324.304 155.316 324.701 155.101C325.099 154.877 325.41 154.583 325.633 154.219C325.857 153.854 325.969 153.44 325.969 152.976C325.969 152.363 325.782 151.854 325.41 151.448C325.037 151.042 324.486 150.731 323.757 150.516L323.31 150.379V146.912C323.707 147.012 324.051 147.194 324.341 147.459C324.631 147.724 324.855 148.072 325.012 148.503L325.882 148.155C325.716 147.641 325.406 147.186 324.95 146.788C324.503 146.39 323.956 146.129 323.31 146.005V144.85H322.44V145.943C321.935 145.968 321.483 146.092 321.085 146.316C320.696 146.531 320.39 146.825 320.166 147.198C319.942 147.563 319.83 147.981 319.83 148.453C319.83 149.025 320.004 149.534 320.352 149.982C320.708 150.429 321.214 150.748 321.868 150.938L322.44 151.112V154.567C321.943 154.484 321.512 154.285 321.148 153.97C320.791 153.647 320.522 153.216 320.34 152.678L319.445 153.014C319.569 153.419 319.772 153.796 320.054 154.144C320.336 154.492 320.675 154.782 321.073 155.014C321.479 155.246 321.935 155.395 322.44 155.461V156.592ZM322.291 150.081C321.794 149.932 321.425 149.708 321.185 149.41C320.945 149.103 320.824 148.76 320.824 148.379C320.824 147.931 320.969 147.571 321.259 147.298C321.558 147.024 321.951 146.871 322.44 146.838V150.131L322.291 150.081ZM323.533 151.435C323.997 151.568 324.353 151.758 324.602 152.007C324.85 152.256 324.975 152.608 324.975 153.063C324.975 153.486 324.821 153.834 324.515 154.107C324.217 154.372 323.815 154.534 323.31 154.592V151.373L323.533 151.435ZM328.796 155.35H329.79V146.092H327.056V146.962H328.796V155.35ZM334.662 155.499C335.258 155.499 335.788 155.366 336.252 155.101C336.725 154.836 337.093 154.476 337.358 154.02C337.632 153.556 337.768 153.038 337.768 152.467C337.768 151.903 337.636 151.394 337.371 150.938C337.114 150.474 336.758 150.106 336.302 149.832C335.846 149.551 335.32 149.41 334.724 149.41C334.417 149.41 334.115 149.456 333.817 149.547C333.519 149.629 333.241 149.762 332.984 149.944L333.407 146.962H337.396V146.092H332.711L332.015 151.112L332.798 151.261C332.955 150.996 333.204 150.773 333.543 150.59C333.891 150.4 334.268 150.305 334.674 150.305C335.072 150.305 335.428 150.4 335.743 150.59C336.058 150.773 336.306 151.025 336.488 151.348C336.679 151.672 336.774 152.044 336.774 152.467C336.774 152.873 336.683 153.241 336.501 153.573C336.319 153.896 336.066 154.153 335.743 154.343C335.428 154.534 335.068 154.629 334.662 154.629C334.156 154.629 333.684 154.492 333.245 154.219C332.814 153.937 332.504 153.556 332.313 153.076L331.555 153.448C331.796 154.078 332.193 154.579 332.748 154.952C333.303 155.316 333.941 155.499 334.662 155.499ZM339.598 155.35H340.592V153.983H339.598V155.35ZM346.185 155.499C346.914 155.499 347.552 155.3 348.099 154.902C348.645 154.505 349.068 153.945 349.366 153.225C349.673 152.504 349.826 151.667 349.826 150.715C349.826 149.762 349.673 148.929 349.366 148.217C349.06 147.496 348.633 146.937 348.086 146.54C347.539 146.142 346.902 145.943 346.173 145.943C345.444 145.943 344.806 146.142 344.259 146.54C343.712 146.937 343.286 147.496 342.979 148.217C342.673 148.929 342.519 149.762 342.519 150.715C342.519 151.667 342.673 152.504 342.979 153.225C343.286 153.937 343.712 154.496 344.259 154.902C344.814 155.3 345.456 155.499 346.185 155.499ZM346.185 154.567C345.655 154.567 345.187 154.405 344.781 154.082C344.383 153.759 344.073 153.308 343.849 152.728C343.625 152.148 343.513 151.477 343.513 150.715C343.513 149.944 343.625 149.273 343.849 148.702C344.073 148.122 344.383 147.674 344.781 147.36C345.179 147.037 345.642 146.875 346.173 146.875C346.711 146.875 347.179 147.037 347.577 147.36C347.974 147.674 348.285 148.122 348.509 148.702C348.732 149.273 348.844 149.944 348.844 150.715C348.844 151.485 348.732 152.16 348.509 152.74C348.285 153.312 347.974 153.759 347.577 154.082C347.179 154.405 346.715 154.567 346.185 154.567ZM354.13 155.499C354.744 155.499 355.286 155.37 355.758 155.114C356.23 154.848 356.599 154.496 356.864 154.057C357.129 153.61 357.262 153.113 357.262 152.566C357.262 152.044 357.15 151.585 356.926 151.187C356.703 150.781 356.392 150.458 355.994 150.218C355.605 149.969 355.154 149.816 354.64 149.758L356.864 146.962V146.092H351.484V146.962H355.746L353.248 150.131L353.447 150.566C353.53 150.549 353.633 150.537 353.758 150.528C353.89 150.52 354.01 150.516 354.118 150.516C354.731 150.516 355.241 150.694 355.646 151.05C356.061 151.398 356.268 151.903 356.268 152.566C356.268 153.221 356.065 153.73 355.659 154.095C355.261 154.451 354.752 154.629 354.13 154.629C353.609 154.629 353.145 154.492 352.739 154.219C352.333 153.937 352.035 153.556 351.844 153.076L351.049 153.448C351.289 154.086 351.683 154.587 352.229 154.952C352.776 155.316 353.41 155.499 354.13 155.499ZM362.361 155.499C363.09 155.499 363.728 155.3 364.275 154.902C364.822 154.505 365.244 153.945 365.542 153.225C365.849 152.504 366.002 151.667 366.002 150.715C366.002 149.762 365.849 148.929 365.542 148.217C365.236 147.496 364.809 146.937 364.262 146.54C363.716 146.142 363.078 145.943 362.349 145.943C361.62 145.943 360.982 146.142 360.435 146.54C359.888 146.937 359.462 147.496 359.155 148.217C358.849 148.929 358.696 149.762 358.696 150.715C358.696 151.667 358.849 152.504 359.155 153.225C359.462 153.937 359.888 154.496 360.435 154.902C360.99 155.3 361.632 155.499 362.361 155.499ZM362.361 154.567C361.831 154.567 361.363 154.405 360.957 154.082C360.559 153.759 360.249 153.308 360.025 152.728C359.801 152.148 359.69 151.477 359.69 150.715C359.69 149.944 359.801 149.273 360.025 148.702C360.249 148.122 360.559 147.674 360.957 147.36C361.355 147.037 361.819 146.875 362.349 146.875C362.887 146.875 363.355 147.037 363.753 147.36C364.151 147.674 364.461 148.122 364.685 148.702C364.909 149.273 365.02 149.944 365.02 150.715C365.02 151.485 364.909 152.16 364.685 152.74C364.461 153.312 364.151 153.759 363.753 154.082C363.355 154.405 362.891 154.567 362.361 154.567Z" fill="white"/>
<g filter="url(#filter1_d_3801_39493)">
<rect x="42.668" y="106.717" width="176.667" height="303.971" rx="5.19608" fill="white" shape-rendering="crispEdges"/>
<path d="M196.996 124.599C196.425 124.599 195.957 125.086 195.957 125.681C195.957 126.277 196.425 126.764 196.996 126.764C197.568 126.764 198.035 126.277 198.035 125.681C198.035 125.086 197.568 124.599 196.996 124.599Z" stroke="#1A202C" stroke-width="0.779412"/>
<path d="M204.27 124.599C203.698 124.599 203.23 125.086 203.23 125.681C203.23 126.277 203.698 126.764 204.27 126.764C204.841 126.764 205.309 126.277 205.309 125.681C205.309 125.086 204.841 124.599 204.27 124.599Z" stroke="#1A202C" stroke-width="0.779412"/>
<path d="M200.633 124.599C200.061 124.599 199.594 125.086 199.594 125.681C199.594 126.277 200.061 126.764 200.633 126.764C201.205 126.764 201.672 126.277 201.672 125.681C201.672 125.086 201.205 124.599 200.633 124.599Z" stroke="#1A202C" stroke-width="0.779412"/>
<path d="M57.9507 128.286C58.3664 128.286 58.7322 128.211 59.0481 128.062C59.3695 127.912 59.619 127.704 59.7963 127.438C59.9737 127.167 60.0624 126.859 60.0624 126.515C60.0624 125.701 59.5663 125.138 58.5742 124.828L57.4934 124.487C57.2329 124.409 57.0389 124.293 56.9114 124.138C56.784 123.983 56.7202 123.805 56.7202 123.606C56.7202 123.345 56.8145 123.137 57.0029 122.982C57.1969 122.827 57.4463 122.749 57.7511 122.749C58.0948 122.749 58.3941 122.838 58.649 123.015C58.904 123.193 59.0924 123.445 59.2144 123.772L60.0291 123.414C59.9293 123.115 59.7686 122.852 59.5469 122.625C59.3307 122.397 59.0702 122.22 58.7654 122.093C58.4606 121.96 58.1225 121.893 57.7511 121.893C57.3632 121.893 57.0168 121.968 56.7119 122.118C56.4126 122.267 56.1771 122.475 56.0053 122.741C55.8334 123.002 55.7475 123.306 55.7475 123.656C55.7475 124.055 55.8695 124.404 56.1133 124.703C56.3572 124.997 56.7119 125.216 57.1775 125.36L58.3414 125.726C58.5853 125.803 58.771 125.909 58.8984 126.042C59.0314 126.175 59.098 126.355 59.098 126.582C59.098 126.837 58.9954 127.042 58.7904 127.197C58.5908 127.347 58.3248 127.422 57.9922 127.422C57.6153 127.422 57.28 127.319 56.9863 127.114C56.6981 126.909 56.4819 126.615 56.3378 126.233L55.5064 126.582C55.6173 126.915 55.7891 127.208 56.0219 127.463C56.2547 127.718 56.5346 127.92 56.8616 128.07C57.1941 128.214 57.5571 128.286 57.9507 128.286ZM60.9059 129.849H61.8453V127.663C62.0116 127.862 62.2222 128.017 62.4772 128.128C62.7321 128.234 63.0092 128.286 63.3085 128.286C63.7409 128.286 64.1261 128.184 64.4641 127.979C64.8022 127.768 65.0683 127.485 65.2623 127.131C65.4618 126.776 65.5616 126.377 65.5616 125.934C65.5616 125.49 65.4618 125.091 65.2623 124.736C65.0683 124.382 64.7995 124.102 64.4558 123.897C64.1177 123.692 63.7353 123.589 63.3085 123.589C62.9871 123.589 62.6961 123.647 62.4356 123.764C62.1806 123.88 61.97 124.044 61.8038 124.254V123.689H60.9059V129.849ZM63.2171 127.413C62.9566 127.413 62.721 127.35 62.5104 127.222C62.3053 127.095 62.1418 126.92 62.0199 126.698C61.9035 126.471 61.8453 126.216 61.8453 125.934C61.8453 125.651 61.9035 125.399 62.0199 125.177C62.1418 124.955 62.3053 124.781 62.5104 124.653C62.721 124.526 62.9566 124.462 63.2171 124.462C63.4831 124.462 63.7187 124.526 63.9238 124.653C64.1288 124.781 64.2896 124.955 64.4059 125.177C64.5279 125.399 64.5889 125.651 64.5889 125.934C64.5889 126.216 64.5279 126.471 64.4059 126.698C64.2896 126.92 64.1288 127.095 63.9238 127.222C63.7187 127.35 63.4831 127.413 63.2171 127.413ZM68.4208 128.286C68.8809 128.286 69.2799 128.181 69.618 127.97C69.9616 127.76 70.2027 127.494 70.3413 127.172L69.5764 126.798C69.4656 126.987 69.3132 127.145 69.1192 127.272C68.9307 127.394 68.7007 127.455 68.4291 127.455C68.0744 127.455 67.7724 127.344 67.5229 127.122C67.2735 126.895 67.135 126.59 67.1073 126.208H70.4494C70.466 126.141 70.4771 126.069 70.4826 125.992C70.4882 125.914 70.4909 125.839 70.4909 125.767C70.4909 125.379 70.405 125.022 70.2332 124.695C70.0669 124.362 69.8231 124.096 69.5016 123.897C69.1857 123.692 68.8005 123.589 68.346 123.589C67.9248 123.589 67.5451 123.692 67.207 123.897C66.8745 124.096 66.6112 124.373 66.4172 124.728C66.2232 125.077 66.1262 125.476 66.1262 125.925C66.1262 126.369 66.2232 126.77 66.4172 127.131C66.6167 127.485 66.8883 127.768 67.232 127.979C67.5756 128.184 67.9719 128.286 68.4208 128.286ZM68.346 124.379C68.6619 124.379 68.928 124.479 69.1441 124.678C69.3603 124.878 69.4767 125.138 69.4933 125.46H67.1239C67.1793 125.116 67.3206 124.85 67.5479 124.662C67.7751 124.473 68.0412 124.379 68.346 124.379ZM71.2415 128.187H72.181V125.534C72.181 125.202 72.2752 124.941 72.4636 124.753C72.6521 124.559 72.8904 124.462 73.1786 124.462C73.4724 124.462 73.7107 124.559 73.8936 124.753C74.082 124.941 74.1763 125.202 74.1763 125.534V128.187H75.1074V125.277C75.1074 124.944 75.0326 124.653 74.8829 124.404C74.7388 124.149 74.5393 123.949 74.2843 123.805C74.0294 123.661 73.7384 123.589 73.4114 123.589C73.1343 123.589 72.8849 123.644 72.6632 123.755C72.4415 123.866 72.2669 124.027 72.1394 124.238V123.689H71.2415V128.187ZM78.025 128.286C78.3354 128.286 78.6208 128.228 78.8813 128.112C79.1474 127.995 79.3635 127.826 79.5298 127.605V128.187H80.4194V121.893H79.4882V124.213C79.3219 124.019 79.1113 123.866 78.8564 123.755C78.607 123.644 78.3271 123.589 78.0167 123.589C77.5899 123.589 77.2047 123.692 76.8611 123.897C76.523 124.102 76.2542 124.382 76.0546 124.736C75.8607 125.091 75.7637 125.49 75.7637 125.934C75.7637 126.377 75.8607 126.776 76.0546 127.131C76.2542 127.485 76.523 127.768 76.8611 127.979C77.2047 128.184 77.5927 128.286 78.025 128.286ZM78.1165 127.413C77.8504 127.413 77.6121 127.35 77.4015 127.222C77.1964 127.095 77.0357 126.92 76.9193 126.698C76.8029 126.471 76.7447 126.216 76.7447 125.934C76.7447 125.651 76.8029 125.399 76.9193 125.177C77.0412 124.955 77.2047 124.781 77.4098 124.653C77.6204 124.526 77.856 124.462 78.1165 124.462C78.3769 124.462 78.6097 124.526 78.8148 124.653C79.0254 124.781 79.1889 124.955 79.3053 125.177C79.4272 125.399 79.4882 125.651 79.4882 125.934C79.4882 126.216 79.4272 126.471 79.3053 126.698C79.1889 126.92 79.0254 127.095 78.8148 127.222C78.6097 127.35 78.3769 127.413 78.1165 127.413ZM85.0395 128.286C85.4718 128.286 85.857 128.184 86.1951 127.979C86.5332 127.768 86.7993 127.485 86.9932 127.131C87.1928 126.776 87.2925 126.377 87.2925 125.934C87.2925 125.49 87.1928 125.091 86.9932 124.736C86.7993 124.382 86.5304 124.102 86.1868 123.897C85.8487 123.692 85.4663 123.589 85.0395 123.589C84.7291 123.589 84.4492 123.644 84.1998 123.755C83.9504 123.861 83.7426 124.01 83.5763 124.204V121.893H82.6368V128.187H83.5347V127.613C83.701 127.829 83.9144 127.995 84.1749 128.112C84.4409 128.228 84.7291 128.286 85.0395 128.286ZM84.9481 127.413C84.6876 127.413 84.452 127.35 84.2414 127.222C84.0363 127.095 83.8728 126.92 83.7509 126.698C83.6345 126.471 83.5763 126.216 83.5763 125.934C83.5763 125.651 83.6345 125.399 83.7509 125.177C83.8728 124.955 84.0363 124.781 84.2414 124.653C84.452 124.526 84.6876 124.462 84.9481 124.462C85.2141 124.462 85.4497 124.526 85.6547 124.653C85.8598 124.781 86.0205 124.955 86.1369 125.177C86.2589 125.399 86.3198 125.651 86.3198 125.934C86.3198 126.216 86.2589 126.471 86.1369 126.698C86.0205 126.92 85.8598 127.095 85.6547 127.222C85.4497 127.35 85.2141 127.413 84.9481 127.413ZM88.358 130.024C88.7848 130.024 89.1339 129.899 89.4055 129.65C89.6826 129.406 89.9016 129.082 90.0623 128.677L92.0493 123.689H91.035L89.7713 126.989L88.5076 123.689H87.5017L89.2891 128.187L89.1644 128.469C89.0647 128.708 88.951 128.882 88.8236 128.993C88.7016 129.109 88.5104 129.168 88.2499 129.168C88.1612 129.168 88.0698 129.159 87.9756 129.143C87.8813 129.132 87.801 129.118 87.7345 129.101V129.907C87.8287 129.946 87.9284 129.974 88.0338 129.991C88.1446 130.013 88.2527 130.024 88.358 130.024ZM95.9496 128.286C96.26 128.286 96.5482 128.231 96.8142 128.12C97.0803 128.009 97.3103 127.86 97.5043 127.671C97.7038 127.477 97.8479 127.261 97.9366 127.023L97.1135 126.632C97.0137 126.87 96.8613 127.061 96.6563 127.206C96.4567 127.344 96.2212 127.413 95.9496 127.413C95.6946 127.413 95.4646 127.35 95.2595 127.222C95.06 127.095 94.9021 126.92 94.7857 126.698C94.6693 126.471 94.6111 126.216 94.6111 125.934C94.6111 125.645 94.6693 125.393 94.7857 125.177C94.9021 124.955 95.06 124.781 95.2595 124.653C95.4646 124.526 95.6946 124.462 95.9496 124.462C96.2212 124.462 96.4595 124.534 96.6646 124.678C96.8696 124.817 97.0193 125.002 97.1135 125.235L97.9366 124.853C97.8423 124.603 97.6955 124.384 97.4959 124.196C97.302 124.002 97.0719 123.852 96.8059 123.747C96.5399 123.642 96.2544 123.589 95.9496 123.589C95.5006 123.589 95.1016 123.692 94.7524 123.897C94.4032 124.096 94.1289 124.373 93.9294 124.728C93.7298 125.077 93.6301 125.476 93.6301 125.925C93.6301 126.374 93.7298 126.776 93.9294 127.131C94.1289 127.485 94.4032 127.768 94.7524 127.979C95.1016 128.184 95.5006 128.286 95.9496 128.286ZM99.9947 128.286C100.305 128.286 100.585 128.234 100.834 128.128C101.084 128.017 101.292 127.862 101.458 127.663V128.187H102.356V125.16C102.356 124.85 102.278 124.578 102.123 124.346C101.968 124.107 101.754 123.922 101.483 123.789C101.211 123.656 100.898 123.589 100.543 123.589C100.261 123.589 99.992 123.639 99.737 123.739C99.4876 123.833 99.2687 123.963 99.0802 124.129C98.8973 124.296 98.7615 124.49 98.6729 124.711L99.4543 125.102C99.543 124.892 99.6788 124.722 99.8617 124.595C100.05 124.468 100.269 124.404 100.519 124.404C100.79 124.404 101.006 124.476 101.167 124.62C101.333 124.758 101.416 124.939 101.416 125.16V125.335L99.9864 125.568C99.4654 125.656 99.0802 125.828 98.8308 126.083C98.5869 126.333 98.465 126.637 98.465 126.998C98.465 127.386 98.6063 127.699 98.889 127.937C99.1717 128.17 99.5403 128.286 99.9947 128.286ZM99.446 126.964C99.446 126.787 99.5042 126.64 99.6206 126.524C99.737 126.407 99.9199 126.33 100.169 126.291L101.416 126.075V126.316C101.416 126.543 101.361 126.751 101.25 126.939C101.145 127.128 100.998 127.278 100.809 127.388C100.621 127.494 100.399 127.546 100.144 127.546C99.9393 127.546 99.7703 127.494 99.6372 127.388C99.5098 127.278 99.446 127.136 99.446 126.964ZM105.152 128.236C105.23 128.236 105.316 128.231 105.41 128.22C105.504 128.209 105.587 128.198 105.659 128.187V127.38C105.554 127.397 105.452 127.405 105.352 127.405C105.08 127.405 104.886 127.341 104.77 127.214C104.659 127.081 104.604 126.901 104.604 126.673V124.537H105.626V123.689H104.604V122.658H103.664V123.007C103.664 123.218 103.606 123.384 103.489 123.506C103.373 123.628 103.21 123.689 102.999 123.689H102.874V124.537H103.664V126.715C103.664 127.197 103.794 127.571 104.055 127.837C104.315 128.103 104.681 128.236 105.152 128.236ZM108.44 128.286C108.9 128.286 109.299 128.181 109.638 127.97C109.981 127.76 110.222 127.494 110.361 127.172L109.596 126.798C109.485 126.987 109.333 127.145 109.139 127.272C108.95 127.394 108.72 127.455 108.449 127.455C108.094 127.455 107.792 127.344 107.542 127.122C107.293 126.895 107.155 126.59 107.127 126.208H110.469C110.486 126.141 110.497 126.069 110.502 125.992C110.508 125.914 110.51 125.839 110.51 125.767C110.51 125.379 110.425 125.022 110.253 124.695C110.086 124.362 109.843 124.096 109.521 123.897C109.205 123.692 108.82 123.589 108.366 123.589C107.944 123.589 107.565 123.692 107.227 123.897C106.894 124.096 106.631 124.373 106.437 124.728C106.243 125.077 106.146 125.476 106.146 125.925C106.146 126.369 106.243 126.77 106.437 127.131C106.636 127.485 106.908 127.768 107.252 127.979C107.595 128.184 107.991 128.286 108.44 128.286ZM108.366 124.379C108.681 124.379 108.948 124.479 109.164 124.678C109.38 124.878 109.496 125.138 109.513 125.46H107.143C107.199 125.116 107.34 124.85 107.567 124.662C107.795 124.473 108.061 124.379 108.366 124.379ZM113.431 130.016C113.858 130.016 114.235 129.927 114.562 129.75C114.889 129.578 115.144 129.337 115.326 129.026C115.515 128.721 115.609 128.372 115.609 127.979V123.689H114.72V124.271C114.365 123.816 113.88 123.589 113.265 123.589C112.843 123.589 112.467 123.686 112.134 123.88C111.807 124.074 111.549 124.34 111.361 124.678C111.172 125.011 111.078 125.388 111.078 125.809C111.078 126.23 111.172 126.61 111.361 126.948C111.555 127.28 111.815 127.546 112.142 127.746C112.475 127.94 112.852 128.037 113.273 128.037C113.561 128.037 113.827 127.984 114.071 127.879C114.315 127.768 114.517 127.61 114.678 127.405V127.979C114.678 128.35 114.559 128.635 114.321 128.835C114.082 129.04 113.783 129.143 113.423 129.143C113.118 129.143 112.86 129.073 112.649 128.935C112.444 128.796 112.303 128.622 112.225 128.411L111.361 128.768C111.505 129.14 111.763 129.439 112.134 129.666C112.505 129.899 112.938 130.016 113.431 130.016ZM113.381 127.164C113.126 127.164 112.899 127.106 112.699 126.989C112.5 126.867 112.342 126.704 112.225 126.499C112.115 126.294 112.059 126.067 112.059 125.817C112.059 125.562 112.115 125.332 112.225 125.127C112.342 124.922 112.5 124.761 112.699 124.645C112.899 124.523 113.126 124.462 113.381 124.462C113.625 124.462 113.844 124.523 114.038 124.645C114.237 124.761 114.393 124.922 114.503 125.127C114.62 125.332 114.678 125.562 114.678 125.817C114.678 126.072 114.62 126.302 114.503 126.507C114.393 126.707 114.24 126.867 114.046 126.989C113.852 127.106 113.63 127.164 113.381 127.164ZM118.712 128.286C119.145 128.286 119.538 128.187 119.893 127.987C120.248 127.782 120.53 127.502 120.741 127.147C120.952 126.793 121.057 126.388 121.057 125.934C121.057 125.479 120.952 125.077 120.741 124.728C120.536 124.373 120.256 124.096 119.901 123.897C119.547 123.692 119.15 123.589 118.712 123.589C118.275 123.589 117.876 123.692 117.515 123.897C117.161 124.096 116.878 124.373 116.667 124.728C116.462 125.077 116.36 125.479 116.36 125.934C116.36 126.382 116.465 126.784 116.676 127.139C116.886 127.494 117.169 127.774 117.524 127.979C117.884 128.184 118.28 128.286 118.712 128.286ZM118.712 127.413C118.452 127.413 118.216 127.35 118.006 127.222C117.801 127.095 117.637 126.92 117.515 126.698C117.399 126.471 117.341 126.216 117.341 125.934C117.341 125.651 117.399 125.399 117.515 125.177C117.637 124.955 117.801 124.781 118.006 124.653C118.216 124.526 118.452 124.462 118.712 124.462C118.973 124.462 119.206 124.526 119.411 124.653C119.621 124.781 119.785 124.955 119.901 125.177C120.023 125.399 120.084 125.651 120.084 125.934C120.084 126.216 120.023 126.471 119.901 126.698C119.785 126.92 119.621 127.095 119.411 127.222C119.206 127.35 118.973 127.413 118.712 127.413ZM121.808 128.187H122.747V125.593C122.747 125.238 122.841 124.966 123.03 124.778C123.224 124.584 123.476 124.487 123.786 124.487H124.177V123.631H123.903C123.631 123.631 123.393 123.68 123.188 123.78C122.983 123.88 122.822 124.041 122.706 124.262V123.689H121.808V128.187ZM125.053 130.024C125.479 130.024 125.829 129.899 126.1 129.65C126.377 129.406 126.596 129.082 126.757 128.677L128.744 123.689H127.73L126.466 126.989L125.202 123.689H124.196L125.984 128.187L125.859 128.469C125.759 128.708 125.646 128.882 125.518 128.993C125.396 129.109 125.205 129.168 124.945 129.168C124.856 129.168 124.764 129.159 124.67 129.143C124.576 129.132 124.496 129.118 124.429 129.101V129.907C124.523 129.946 124.623 129.974 124.728 129.991C124.839 130.013 124.947 130.024 125.053 130.024Z" fill="#1A202C"/>
<path d="M184.001 205.963C185.446 205.963 186.169 205.963 186.744 206.272C187.228 206.532 187.663 207 187.887 207.5C188.153 208.097 188.104 208.77 188.006 210.116C187.43 218.034 185.209 225.747 181.487 232.759C180.854 233.951 180.538 234.547 179.994 234.911C179.538 235.216 178.921 235.381 178.374 235.344C177.722 235.299 177.11 234.915 175.886 234.146L173.367 232.565C172.136 231.792 171.52 231.405 171.205 230.91C170.911 230.447 170.786 229.998 170.801 229.449C170.816 228.863 171.176 228.155 171.895 226.739C174.531 221.551 176.155 215.909 176.682 210.114C176.826 208.532 176.898 207.741 177.196 207.237C177.476 206.765 177.82 206.45 178.316 206.214C178.845 205.963 179.573 205.963 181.027 205.963H184.001Z" fill="#7C5CFC"/>
<path d="M173.886 237.105C175.055 237.954 175.64 238.379 175.924 238.968C176.163 239.462 176.24 240.096 176.127 240.633C175.992 241.273 175.557 241.788 174.687 242.82C169.268 249.242 162.488 254.405 154.818 257.921C147.148 261.437 138.811 263.203 130.408 263.116C129.059 263.102 128.384 263.095 127.812 262.78C127.331 262.515 126.901 262.043 126.682 261.54C126.422 260.94 126.482 260.22 126.602 258.78L126.848 255.816C126.969 254.367 127.029 253.642 127.325 253.135C127.601 252.661 127.942 252.344 128.436 252.105C128.964 251.849 129.758 251.843 131.346 251.831C137.811 251.782 144.209 250.367 150.114 247.66C156.02 244.953 161.268 241.03 165.525 236.164C166.57 234.968 167.093 234.371 167.631 234.138C168.135 233.92 168.598 233.868 169.138 233.968C169.714 234.076 170.303 234.503 171.48 235.358L173.886 237.105Z" fill="#5CAFFC"/>
<path d="M123.011 258.357C122.793 259.786 122.684 260.5 122.291 261.023C121.962 261.461 121.434 261.821 120.905 261.967C120.274 262.14 119.617 261.991 118.301 261.691C112.569 260.384 107.072 258.201 102.006 255.219C100.843 254.535 100.262 254.192 99.9224 253.634C99.6376 253.165 99.5 252.541 99.5612 251.996C99.6341 251.346 100.045 250.751 100.867 249.562L102.557 247.116C103.384 245.92 103.798 245.321 104.306 245.029C104.782 244.755 105.236 244.651 105.784 244.689C106.369 244.73 107.06 245.121 108.443 245.902C112.072 247.952 115.964 249.497 120.01 250.496C121.552 250.876 122.323 251.067 122.777 251.438C123.202 251.786 123.46 252.174 123.619 252.699C123.788 253.26 123.678 253.979 123.459 255.417L123.011 258.357Z" fill="#A1A9FE"/>
<path d="M98.136 247.543C97.2397 248.677 96.7916 249.244 96.1917 249.504C95.6883 249.722 95.0515 249.773 94.5198 249.638C93.8861 249.477 93.3886 249.021 92.3936 248.11C85.458 241.757 80.1805 233.774 77.0572 224.857C73.4746 214.629 72.8737 203.594 75.3244 193.037C77.7751 182.481 83.1765 172.838 90.8987 165.235C97.6311 158.606 105.886 153.765 114.911 151.117C116.206 150.737 116.853 150.547 117.493 150.682C118.03 150.795 118.579 151.122 118.934 151.539C119.358 152.037 119.511 152.743 119.816 154.156L120.443 157.063C120.75 158.484 120.904 159.195 120.769 159.766C120.644 160.3 120.409 160.703 120.006 161.076C119.576 161.475 118.818 161.712 117.303 162.186C110.366 164.356 104.025 168.151 98.818 173.278C92.6208 179.38 88.2861 187.118 86.3193 195.59C84.3526 204.061 84.8349 212.918 87.7099 221.126C90.1256 228.023 94.1468 234.223 99.4174 239.227C100.569 240.32 101.145 240.867 101.356 241.414C101.553 241.927 101.586 242.392 101.463 242.926C101.333 243.498 100.882 244.069 99.9799 245.21L98.136 247.543Z" fill="#EB7CA6"/>
<path d="M123.718 153.465C123.519 152.034 123.42 151.318 123.647 150.705C123.838 150.191 124.241 149.695 124.707 149.405C125.261 149.058 125.935 149.015 127.281 148.927C139.55 148.126 151.757 151.306 162.076 157.991C163.208 158.725 163.774 159.092 164.09 159.664C164.354 160.145 164.465 160.774 164.38 161.316C164.28 161.962 163.844 162.539 162.972 163.691L161.178 166.063C160.301 167.223 159.862 167.803 159.342 168.074C158.855 168.327 158.396 168.411 157.851 168.35C157.268 168.284 156.594 167.864 155.246 167.024C147.346 162.105 138.131 159.704 128.835 160.144C127.249 160.219 126.456 160.257 125.915 160.03C125.409 159.818 125.05 159.52 124.748 159.062C124.426 158.572 124.326 157.851 124.126 156.411L123.718 153.465Z" fill="#FFACC8"/>
<path d="M165.761 165.953C166.709 164.862 167.183 164.317 167.794 164.085C168.307 163.89 168.945 163.869 169.47 164.028C170.096 164.218 170.572 164.697 171.523 165.653C180.195 174.37 185.826 185.657 187.576 197.827C187.768 199.163 187.864 199.83 187.639 200.445C187.451 200.96 187.05 201.457 186.586 201.75C186.033 202.099 185.312 202.15 183.87 202.251L180.904 202.459C179.453 202.561 178.728 202.612 178.182 202.398C177.671 202.197 177.306 201.908 176.994 201.456C176.66 200.974 176.533 200.19 176.279 198.622C174.79 189.435 170.539 180.915 164.095 174.201C162.995 173.055 162.445 172.482 162.26 171.925C162.087 171.405 162.075 170.939 162.222 170.41C162.38 169.845 162.857 169.296 163.81 168.198L165.761 165.953Z" fill="#4120A9"/>
<rect x="55.1406" y="285.98" width="6.23529" height="6.23529" rx="3.11765" fill="#EB7CA6"/>
<path d="M68.0895 292.461H71.151V291.806H68.8253V290.459H71.0263V289.805H68.8253V288.47H71.151V287.816H68.0895V292.461ZM71.641 292.461H72.3456V290.472C72.3456 290.222 72.4121 290.027 72.5451 289.886C72.6782 289.74 72.8507 289.668 73.0627 289.668C73.2747 289.668 73.4472 289.74 73.5802 289.886C73.7132 290.027 73.7797 290.222 73.7797 290.472V292.461H74.4781V290.472C74.4781 290.222 74.5446 290.027 74.6776 289.886C74.8148 289.74 74.9894 289.668 75.2014 289.668C75.4134 289.668 75.5838 289.74 75.7127 289.886C75.8457 290.027 75.9122 290.222 75.9122 290.472V292.461H76.6168V290.279C76.6168 290.029 76.5607 289.811 76.4484 289.624C76.3404 289.433 76.1907 289.283 75.9995 289.175C75.8124 289.067 75.6004 289.013 75.3635 289.013C75.139 289.013 74.9353 289.061 74.7524 289.156C74.5695 289.252 74.422 289.395 74.3097 289.586C74.21 289.412 74.0666 289.273 73.8795 289.169C73.6924 289.065 73.4846 289.013 73.256 289.013C73.0523 289.013 72.8673 289.054 72.701 289.138C72.5348 289.221 72.4059 289.343 72.3144 289.505V289.088H71.641V292.461ZM77.2462 293.708H77.9508V292.068C78.0755 292.218 78.2335 292.334 78.4247 292.417C78.6159 292.496 78.8237 292.536 79.0482 292.536C79.3725 292.536 79.6614 292.459 79.9149 292.305C80.1685 292.147 80.368 291.935 80.5135 291.669C80.6632 291.403 80.738 291.104 80.738 290.771C80.738 290.439 80.6632 290.139 80.5135 289.873C80.368 289.607 80.1664 289.397 79.9087 289.244C79.6551 289.09 79.3683 289.013 79.0482 289.013C78.8071 289.013 78.5889 289.056 78.3935 289.144C78.2023 289.231 78.0443 289.354 77.9196 289.512V289.088H77.2462V293.708ZM78.9796 291.881C78.7843 291.881 78.6076 291.833 78.4496 291.738C78.2958 291.642 78.1732 291.511 78.0817 291.345C77.9945 291.174 77.9508 290.983 77.9508 290.771C77.9508 290.559 77.9945 290.37 78.0817 290.204C78.1732 290.037 78.2958 289.907 78.4496 289.811C78.6076 289.715 78.7843 289.668 78.9796 289.668C79.1792 289.668 79.3558 289.715 79.5096 289.811C79.6634 289.907 79.784 290.037 79.8713 290.204C79.9627 290.37 80.0085 290.559 80.0085 290.771C80.0085 290.983 79.9627 291.174 79.8713 291.345C79.784 291.511 79.6634 291.642 79.5096 291.738C79.3558 291.833 79.1792 291.881 78.9796 291.881ZM81.2987 292.461H82.0033V287.741H81.2987V292.461ZM84.3298 292.536C84.654 292.536 84.9491 292.461 85.2152 292.311C85.4812 292.157 85.6932 291.948 85.8512 291.682C86.0091 291.415 86.0881 291.112 86.0881 290.771C86.0881 290.43 86.0091 290.129 85.8512 289.867C85.6974 289.601 85.4874 289.393 85.2214 289.244C84.9554 289.09 84.6581 289.013 84.3298 289.013C84.0014 289.013 83.7021 289.09 83.4319 289.244C83.1658 289.393 82.9538 289.601 82.7959 289.867C82.6421 290.129 82.5652 290.43 82.5652 290.771C82.5652 291.108 82.6441 291.409 82.8021 291.675C82.9601 291.941 83.1721 292.151 83.4381 292.305C83.7083 292.459 84.0055 292.536 84.3298 292.536ZM84.3298 291.881C84.1344 291.881 83.9577 291.833 83.7998 291.738C83.646 291.642 83.5233 291.511 83.4319 291.345C83.3446 291.174 83.3009 290.983 83.3009 290.771C83.3009 290.559 83.3446 290.37 83.4319 290.204C83.5233 290.037 83.646 289.907 83.7998 289.811C83.9577 289.715 84.1344 289.668 84.3298 289.668C84.5251 289.668 84.6997 289.715 84.8535 289.811C85.0115 289.907 85.1341 290.037 85.2214 290.204C85.3129 290.37 85.3586 290.559 85.3586 290.771C85.3586 290.983 85.3129 291.174 85.2214 291.345C85.1341 291.511 85.0115 291.642 84.8535 291.738C84.6997 291.833 84.5251 291.881 84.3298 291.881ZM86.8897 293.839C87.2098 293.839 87.4716 293.745 87.6753 293.558C87.8832 293.375 88.0474 293.132 88.1679 292.829L89.6582 289.088H88.8975L87.9497 291.563L87.0019 289.088H86.2474L87.588 292.461L87.4945 292.673C87.4197 292.852 87.3345 292.983 87.2389 293.066C87.1474 293.153 87.004 293.197 86.8086 293.197C86.7421 293.197 86.6735 293.19 86.6029 293.178C86.5322 293.17 86.4719 293.159 86.422 293.147V293.752C86.4927 293.781 86.5675 293.802 86.6465 293.814C86.7296 293.831 86.8107 293.839 86.8897 293.839ZM91.5385 292.536C91.8836 292.536 92.1828 292.457 92.4364 292.299C92.6941 292.141 92.875 291.941 92.9789 291.7L92.4052 291.42C92.3221 291.561 92.2078 291.679 92.0623 291.775C91.921 291.867 91.7485 291.912 91.5448 291.912C91.2787 291.912 91.0522 291.829 90.8651 291.663C90.6781 291.492 90.5741 291.264 90.5534 290.977H93.0599C93.0724 290.927 93.0807 290.873 93.0849 290.815C93.089 290.757 93.0911 290.701 93.0911 290.646C93.0911 290.355 93.0267 290.087 92.8978 289.842C92.7731 289.593 92.5902 289.393 92.3491 289.244C92.1122 289.09 91.8233 289.013 91.4824 289.013C91.1665 289.013 90.8818 289.09 90.6282 289.244C90.3788 289.393 90.1813 289.601 90.0358 289.867C89.8903 290.129 89.8176 290.428 89.8176 290.765C89.8176 291.097 89.8903 291.399 90.0358 291.669C90.1855 291.935 90.3892 292.147 90.6469 292.305C90.9046 292.459 91.2018 292.536 91.5385 292.536ZM91.4824 289.605C91.7194 289.605 91.9189 289.68 92.081 289.83C92.2431 289.979 92.3304 290.175 92.3429 290.416H90.5658C90.6074 290.158 90.7134 289.959 90.8838 289.817C91.0543 289.676 91.2538 289.605 91.4824 289.605ZM95.2378 292.536C95.5828 292.536 95.8821 292.457 96.1357 292.299C96.3934 292.141 96.5743 291.941 96.6782 291.7L96.1045 291.42C96.0214 291.561 95.9071 291.679 95.7616 291.775C95.6203 291.867 95.4477 291.912 95.2441 291.912C94.978 291.912 94.7515 291.829 94.5644 291.663C94.3773 291.492 94.2734 291.264 94.2526 290.977H96.7592C96.7717 290.927 96.78 290.873 96.7842 290.815C96.7883 290.757 96.7904 290.701 96.7904 290.646C96.7904 290.355 96.726 290.087 96.5971 289.842C96.4724 289.593 96.2895 289.393 96.0484 289.244C95.8115 289.09 95.5226 289.013 95.1817 289.013C94.8658 289.013 94.581 289.09 94.3275 289.244C94.0781 289.393 93.8806 289.601 93.7351 289.867C93.5896 290.129 93.5169 290.428 93.5169 290.765C93.5169 291.097 93.5896 291.399 93.7351 291.669C93.8848 291.935 94.0884 292.147 94.3462 292.305C94.6039 292.459 94.9011 292.536 95.2378 292.536ZM95.1817 289.605C95.4186 289.605 95.6182 289.68 95.7803 289.83C95.9424 289.979 96.0297 290.175 96.0422 290.416H94.2651C94.3067 290.158 94.4127 289.959 94.5831 289.817C94.7535 289.676 94.9531 289.605 95.1817 289.605ZM98.6004 292.536C98.8498 292.536 99.068 292.494 99.2551 292.411C99.4463 292.324 99.5939 292.205 99.6978 292.056C99.8017 291.902 99.8537 291.725 99.8537 291.526C99.8537 291.293 99.7789 291.093 99.6292 290.927C99.4796 290.757 99.2655 290.632 98.987 290.553L98.4383 290.391C98.3344 290.358 98.2367 290.312 98.1452 290.254C98.0538 290.195 98.008 290.108 98.008 289.992C98.008 289.871 98.0538 289.776 98.1452 289.705C98.2367 289.634 98.3593 289.599 98.5131 289.599C98.6918 289.599 98.8519 289.647 98.9932 289.742C99.1387 289.838 99.2447 289.967 99.3112 290.129L99.8537 289.873C99.7539 289.603 99.5835 289.393 99.3424 289.244C99.1013 289.09 98.8269 289.013 98.5193 289.013C98.2907 289.013 98.0849 289.056 97.902 289.144C97.7191 289.227 97.5757 289.343 97.4718 289.493C97.3679 289.643 97.3159 289.819 97.3159 290.023C97.3159 290.252 97.3866 290.449 97.5279 290.615C97.6734 290.782 97.8917 290.906 98.1826 290.989L98.7126 291.139C98.8207 291.168 98.9226 291.214 99.0182 291.276C99.1138 291.334 99.1616 291.424 99.1616 291.544C99.1616 291.673 99.1096 291.775 99.0057 291.85C98.9018 291.925 98.7667 291.962 98.6004 291.962C98.405 291.962 98.2263 291.906 98.0642 291.794C97.9062 291.682 97.7815 291.53 97.69 291.339L97.1476 291.594C97.2515 291.881 97.4323 292.11 97.69 292.28C97.9519 292.451 98.2554 292.536 98.6004 292.536ZM103.081 292.536C103.392 292.536 103.667 292.48 103.904 292.367C104.145 292.255 104.332 292.099 104.465 291.9C104.598 291.696 104.664 291.465 104.664 291.208C104.664 290.597 104.292 290.175 103.548 289.942L102.738 289.686C102.542 289.628 102.397 289.541 102.301 289.424C102.206 289.308 102.158 289.175 102.158 289.025C102.158 288.83 102.228 288.674 102.37 288.558C102.515 288.441 102.702 288.383 102.931 288.383C103.189 288.383 103.413 288.45 103.604 288.583C103.796 288.716 103.937 288.905 104.028 289.15L104.639 288.882C104.565 288.657 104.444 288.46 104.278 288.29C104.116 288.119 103.92 287.986 103.692 287.89C103.463 287.791 103.209 287.741 102.931 287.741C102.64 287.741 102.38 287.797 102.152 287.909C101.927 288.021 101.75 288.177 101.622 288.377C101.493 288.572 101.428 288.801 101.428 289.063C101.428 289.362 101.52 289.624 101.703 289.848C101.886 290.069 102.152 290.233 102.501 290.341L103.374 290.615C103.557 290.673 103.696 290.752 103.791 290.852C103.891 290.952 103.941 291.087 103.941 291.258C103.941 291.449 103.864 291.603 103.71 291.719C103.561 291.831 103.361 291.887 103.112 291.887C102.829 291.887 102.578 291.81 102.357 291.657C102.141 291.503 101.979 291.282 101.871 290.996L101.247 291.258C101.331 291.507 101.459 291.727 101.634 291.918C101.809 292.11 102.019 292.261 102.264 292.374C102.513 292.482 102.785 292.536 103.081 292.536ZM106.246 292.536C106.479 292.536 106.689 292.496 106.876 292.417C107.063 292.334 107.219 292.218 107.344 292.068V292.461H108.017V290.191C108.017 289.959 107.959 289.755 107.842 289.58C107.726 289.401 107.566 289.262 107.362 289.162C107.159 289.063 106.924 289.013 106.658 289.013C106.446 289.013 106.244 289.05 106.053 289.125C105.866 289.196 105.702 289.293 105.56 289.418C105.423 289.543 105.321 289.688 105.255 289.855L105.841 290.148C105.907 289.99 106.009 289.863 106.146 289.767C106.288 289.672 106.452 289.624 106.639 289.624C106.843 289.624 107.005 289.678 107.125 289.786C107.25 289.89 107.312 290.025 107.312 290.191V290.322L106.24 290.497C105.849 290.563 105.56 290.692 105.373 290.883C105.19 291.07 105.099 291.299 105.099 291.569C105.099 291.86 105.205 292.095 105.417 292.274C105.629 292.448 105.905 292.536 106.246 292.536ZM105.835 291.544C105.835 291.411 105.878 291.301 105.966 291.214C106.053 291.127 106.19 291.068 106.377 291.039L107.312 290.877V291.058C107.312 291.228 107.271 291.384 107.188 291.526C107.109 291.667 106.999 291.779 106.857 291.862C106.716 291.941 106.55 291.981 106.358 291.981C106.205 291.981 106.078 291.941 105.978 291.862C105.883 291.779 105.835 291.673 105.835 291.544ZM108.716 292.461H109.421V287.741H108.716V292.461ZM111.13 292.536C111.363 292.536 111.573 292.496 111.76 292.417C111.947 292.334 112.103 292.218 112.227 292.068V292.461H112.901V290.191C112.901 289.959 112.843 289.755 112.726 289.58C112.61 289.401 112.45 289.262 112.246 289.162C112.042 289.063 111.808 289.013 111.542 289.013C111.33 289.013 111.128 289.05 110.937 289.125C110.75 289.196 110.585 289.293 110.444 289.418C110.307 289.543 110.205 289.688 110.139 289.855L110.725 290.148C110.791 289.99 110.893 289.863 111.03 289.767C111.172 289.672 111.336 289.624 111.523 289.624C111.726 289.624 111.889 289.678 112.009 289.786C112.134 289.89 112.196 290.025 112.196 290.191V290.322L111.124 290.497C110.733 290.563 110.444 290.692 110.257 290.883C110.074 291.07 109.983 291.299 109.983 291.569C109.983 291.86 110.089 292.095 110.301 292.274C110.513 292.448 110.789 292.536 111.13 292.536ZM110.718 291.544C110.718 291.411 110.762 291.301 110.849 291.214C110.937 291.127 111.074 291.068 111.261 291.039L112.196 290.877V291.058C112.196 291.228 112.155 291.384 112.072 291.526C111.993 291.667 111.882 291.779 111.741 291.862C111.6 291.941 111.433 291.981 111.242 291.981C111.088 291.981 110.962 291.941 110.862 291.862C110.766 291.779 110.718 291.673 110.718 291.544ZM113.6 292.461H114.305V290.516C114.305 290.249 114.375 290.046 114.517 289.904C114.662 289.759 114.851 289.686 115.084 289.686H115.377V289.044H115.171C114.968 289.044 114.789 289.081 114.635 289.156C114.481 289.231 114.361 289.352 114.273 289.518V289.088H113.6V292.461ZM116.034 293.839C116.354 293.839 116.616 293.745 116.819 293.558C117.027 293.375 117.191 293.132 117.312 292.829L118.802 289.088H118.041L117.094 291.563L116.146 289.088H115.391L116.732 292.461L116.638 292.673C116.564 292.852 116.478 292.983 116.383 293.066C116.291 293.153 116.148 293.197 115.953 293.197C115.886 293.197 115.817 293.19 115.747 293.178C115.676 293.17 115.616 293.159 115.566 293.147V293.752C115.637 293.781 115.711 293.802 115.79 293.814C115.874 293.831 115.955 293.839 116.034 293.839Z" fill="#596780"/>
<path d="M166.382 292.63H166.964V291.975C167.284 291.946 167.563 291.864 167.8 291.728C168.043 291.592 168.23 291.415 168.361 291.197C168.496 290.974 168.564 290.721 168.564 290.44C168.564 289.727 168.13 289.235 167.262 288.963L166.964 288.869V287.203C167.371 287.324 167.657 287.603 167.822 288.04L168.535 287.727C168.419 287.397 168.222 287.116 167.946 286.883C167.674 286.65 167.347 286.5 166.964 286.432V285.755H166.382V286.403C166.067 286.422 165.79 286.5 165.553 286.636C165.315 286.771 165.128 286.951 164.993 287.174C164.857 287.397 164.789 287.652 164.789 287.938C164.789 288.287 164.896 288.592 165.109 288.854C165.322 289.111 165.633 289.303 166.04 289.429L166.382 289.538V291.189C166.139 291.131 165.924 291.02 165.735 290.855C165.55 290.685 165.407 290.464 165.305 290.193L164.578 290.498C164.704 290.886 164.927 291.214 165.247 291.48C165.567 291.747 165.945 291.91 166.382 291.968V292.63ZM166.316 288.665C166.089 288.597 165.919 288.495 165.807 288.36C165.696 288.224 165.64 288.069 165.64 287.894C165.64 287.69 165.708 287.523 165.844 287.392C165.979 287.261 166.159 287.181 166.382 287.152V288.687L166.316 288.665ZM167.058 289.749C167.272 289.817 167.434 289.909 167.546 290.026C167.662 290.142 167.72 290.3 167.72 290.498C167.72 290.692 167.653 290.855 167.517 290.986C167.381 291.112 167.197 291.189 166.964 291.219V289.72L167.058 289.749ZM171.114 291.99C171.492 291.99 171.824 291.917 172.11 291.771C172.396 291.621 172.617 291.422 172.772 291.175C172.932 290.923 173.012 290.644 173.012 290.338C173.012 290.038 172.937 289.771 172.787 289.538C172.641 289.305 172.433 289.121 172.161 288.985C172.35 288.869 172.498 288.709 172.605 288.505C172.712 288.301 172.765 288.081 172.765 287.843C172.765 287.562 172.692 287.312 172.547 287.094C172.406 286.876 172.212 286.706 171.965 286.585C171.718 286.459 171.434 286.396 171.114 286.396C170.794 286.396 170.51 286.459 170.263 286.585C170.015 286.711 169.819 286.883 169.673 287.101C169.533 287.319 169.462 287.567 169.462 287.843C169.462 288.076 169.516 288.294 169.622 288.498C169.729 288.702 169.877 288.864 170.066 288.985C169.799 289.121 169.593 289.305 169.448 289.538C169.302 289.771 169.23 290.038 169.23 290.338C169.23 290.644 169.307 290.923 169.462 291.175C169.622 291.422 169.843 291.621 170.124 291.771C170.406 291.917 170.735 291.99 171.114 291.99ZM171.114 288.651C170.886 288.651 170.697 288.58 170.546 288.44C170.396 288.294 170.321 288.11 170.321 287.887C170.321 287.659 170.396 287.475 170.546 287.334C170.697 287.193 170.886 287.123 171.114 287.123C171.342 287.123 171.531 287.193 171.681 287.334C171.832 287.475 171.907 287.659 171.907 287.887C171.907 288.11 171.832 288.294 171.681 288.44C171.531 288.58 171.342 288.651 171.114 288.651ZM171.114 291.262C170.803 291.262 170.554 291.175 170.364 291C170.175 290.826 170.081 290.598 170.081 290.317C170.081 290.035 170.175 289.81 170.364 289.64C170.554 289.465 170.803 289.378 171.114 289.378C171.429 289.378 171.681 289.465 171.87 289.64C172.059 289.81 172.154 290.035 172.154 290.317C172.154 290.598 172.059 290.826 171.87 291C171.681 291.175 171.429 291.262 171.114 291.262ZM174.11 291.902H174.946V290.957H174.11V291.902ZM178.254 291.99C178.686 291.99 179.061 291.873 179.382 291.64C179.706 291.403 179.959 291.075 180.138 290.658C180.318 290.236 180.407 289.747 180.407 289.189C180.407 288.631 180.318 288.144 180.138 287.727C179.959 287.305 179.706 286.978 179.382 286.745C179.057 286.512 178.678 286.396 178.247 286.396C177.82 286.396 177.444 286.512 177.119 286.745C176.794 286.978 176.54 287.302 176.355 287.719C176.176 288.137 176.086 288.626 176.086 289.189C176.086 289.747 176.176 290.236 176.355 290.658C176.54 291.075 176.794 291.403 177.119 291.64C177.449 291.873 177.827 291.99 178.254 291.99ZM178.254 291.204C177.987 291.204 177.754 291.122 177.556 290.957C177.362 290.792 177.211 290.559 177.105 290.258C176.998 289.953 176.945 289.596 176.945 289.189C176.945 288.568 177.061 288.078 177.294 287.719C177.531 287.356 177.849 287.174 178.247 287.174C178.518 287.174 178.751 287.256 178.945 287.421C179.139 287.586 179.289 287.819 179.396 288.12C179.503 288.42 179.556 288.777 179.556 289.189C179.556 289.805 179.44 290.295 179.207 290.658C178.974 291.022 178.656 291.204 178.254 291.204ZM183.316 291.99C183.747 291.99 184.123 291.873 184.443 291.64C184.768 291.403 185.02 291.075 185.2 290.658C185.379 290.236 185.469 289.747 185.469 289.189C185.469 288.631 185.379 288.144 185.2 287.727C185.02 287.305 184.768 286.978 184.443 286.745C184.118 286.512 183.74 286.396 183.308 286.396C182.882 286.396 182.506 286.512 182.181 286.745C181.856 286.978 181.601 287.302 181.417 287.719C181.238 288.137 181.148 288.626 181.148 289.189C181.148 289.747 181.238 290.236 181.417 290.658C181.601 291.075 181.856 291.403 182.181 291.64C182.511 291.873 182.889 291.99 183.316 291.99ZM183.316 291.204C183.049 291.204 182.816 291.122 182.617 290.957C182.423 290.792 182.273 290.559 182.166 290.258C182.06 289.953 182.006 289.596 182.006 289.189C182.006 288.568 182.123 288.078 182.355 287.719C182.593 287.356 182.911 287.174 183.308 287.174C183.58 287.174 183.813 287.256 184.007 287.421C184.201 287.586 184.351 287.819 184.458 288.12C184.565 288.42 184.618 288.777 184.618 289.189C184.618 289.805 184.501 290.295 184.269 290.658C184.036 291.022 183.718 291.204 183.316 291.204ZM188.377 291.99C188.809 291.99 189.185 291.873 189.505 291.64C189.83 291.403 190.082 291.075 190.262 290.658C190.441 290.236 190.531 289.747 190.531 289.189C190.531 288.631 190.441 288.144 190.262 287.727C190.082 287.305 189.83 286.978 189.505 286.745C189.18 286.512 188.802 286.396 188.37 286.396C187.943 286.396 187.568 286.512 187.243 286.745C186.918 286.978 186.663 287.302 186.479 287.719C186.299 288.137 186.21 288.626 186.21 289.189C186.21 289.747 186.299 290.236 186.479 290.658C186.663 291.075 186.918 291.403 187.243 291.64C187.572 291.873 187.951 291.99 188.377 291.99ZM188.377 291.204C188.111 291.204 187.878 291.122 187.679 290.957C187.485 290.792 187.335 290.559 187.228 290.258C187.121 289.953 187.068 289.596 187.068 289.189C187.068 288.568 187.184 288.078 187.417 287.719C187.655 287.356 187.973 287.174 188.37 287.174C188.642 287.174 188.875 287.256 189.069 287.421C189.263 287.586 189.413 287.819 189.52 288.12C189.626 288.42 189.68 288.777 189.68 289.189C189.68 289.805 189.563 290.295 189.33 290.658C189.098 291.022 188.78 291.204 188.377 291.204ZM191.672 291.902H192.508V290.957H191.672V291.902ZM195.816 291.99C196.247 291.99 196.623 291.873 196.943 291.64C197.268 291.403 197.52 291.075 197.7 290.658C197.879 290.236 197.969 289.747 197.969 289.189C197.969 288.631 197.879 288.144 197.7 287.727C197.52 287.305 197.268 286.978 196.943 286.745C196.618 286.512 196.24 286.396 195.808 286.396C195.382 286.396 195.006 286.512 194.681 286.745C194.356 286.978 194.101 287.302 193.917 287.719C193.738 288.137 193.648 288.626 193.648 289.189C193.648 289.747 193.738 290.236 193.917 290.658C194.101 291.075 194.356 291.403 194.681 291.64C195.011 291.873 195.389 291.99 195.816 291.99ZM195.816 291.204C195.549 291.204 195.316 291.122 195.117 290.957C194.923 290.792 194.773 290.559 194.666 290.258C194.56 289.953 194.506 289.596 194.506 289.189C194.506 288.568 194.623 288.078 194.855 287.719C195.093 287.356 195.411 287.174 195.808 287.174C196.08 287.174 196.313 287.256 196.507 287.421C196.701 287.586 196.851 287.819 196.958 288.12C197.064 288.42 197.118 288.777 197.118 289.189C197.118 289.805 197.001 290.295 196.769 290.658C196.536 291.022 196.218 291.204 195.816 291.204ZM200.877 291.99C201.309 291.99 201.685 291.873 202.005 291.64C202.33 291.403 202.582 291.075 202.762 290.658C202.941 290.236 203.031 289.747 203.031 289.189C203.031 288.631 202.941 288.144 202.762 287.727C202.582 287.305 202.33 286.978 202.005 286.745C201.68 286.512 201.302 286.396 200.87 286.396C200.443 286.396 200.068 286.512 199.743 286.745C199.418 286.978 199.163 287.302 198.979 287.719C198.799 288.137 198.71 288.626 198.71 289.189C198.71 289.747 198.799 290.236 198.979 290.658C199.163 291.075 199.418 291.403 199.743 291.64C200.072 291.873 200.451 291.99 200.877 291.99ZM200.877 291.204C200.611 291.204 200.378 291.122 200.179 290.957C199.985 290.792 199.835 290.559 199.728 290.258C199.621 289.953 199.568 289.596 199.568 289.189C199.568 288.568 199.684 288.078 199.917 287.719C200.155 287.356 200.472 287.174 200.87 287.174C201.142 287.174 201.375 287.256 201.568 287.421C201.762 287.586 201.913 287.819 202.02 288.12C202.126 288.42 202.18 288.777 202.18 289.189C202.18 289.805 202.063 290.295 201.83 290.658C201.598 291.022 201.28 291.204 200.877 291.204Z" fill="#1A202C"/>
<path d="M101.363 219.092H102.423V217.969C102.971 217.92 103.453 217.774 103.869 217.533C104.285 217.284 104.609 216.968 104.842 216.585C105.075 216.203 105.191 215.766 105.191 215.276C105.191 214.037 104.451 213.181 102.971 212.707L102.423 212.532V210.001C103.063 210.217 103.516 210.666 103.782 211.348L105.179 210.724C104.971 210.134 104.622 209.639 104.131 209.24C103.649 208.841 103.079 208.583 102.423 208.467V207.307H101.363V208.417C100.814 208.459 100.328 208.6 99.9035 208.841C99.4878 209.074 99.1636 209.386 98.9308 209.776C98.698 210.167 98.5816 210.612 98.5816 211.111C98.5816 211.718 98.7645 212.245 99.1303 212.694C99.4961 213.135 100.041 213.472 100.764 213.704L101.363 213.892V216.411C100.988 216.311 100.652 216.124 100.352 215.849C100.053 215.567 99.8162 215.218 99.6416 214.802L98.2324 215.413C98.4569 216.095 98.8477 216.664 99.4047 217.121C99.9617 217.57 100.614 217.849 101.363 217.957V219.092ZM101.263 212.171C100.93 212.063 100.677 211.913 100.502 211.722C100.336 211.522 100.253 211.294 100.253 211.036C100.253 210.736 100.352 210.487 100.552 210.288C100.752 210.088 101.022 209.963 101.363 209.913V212.208L101.263 212.171ZM102.547 214.278C102.872 214.386 103.113 214.528 103.271 214.702C103.437 214.877 103.52 215.101 103.52 215.376C103.52 215.667 103.42 215.912 103.221 216.111C103.021 216.303 102.755 216.427 102.423 216.485V214.241L102.547 214.278ZM107.604 217.845H109.3V208.554H105.808V210.001H107.604V217.845ZM111.274 217.845H113.307L115.901 214.478C116.225 214.054 116.47 213.675 116.636 213.343C116.811 213.002 116.927 212.682 116.985 212.383C117.052 212.083 117.085 211.784 117.085 211.485C117.085 210.894 116.944 210.367 116.661 209.901C116.387 209.435 116.009 209.07 115.526 208.804C115.044 208.538 114.487 208.404 113.855 208.404C113.232 208.404 112.675 208.538 112.184 208.804C111.702 209.07 111.32 209.44 111.037 209.913C110.763 210.379 110.625 210.911 110.625 211.51C110.625 212.075 110.75 212.582 111 213.031C111.257 213.472 111.607 213.821 112.047 214.079C112.488 214.336 112.991 214.465 113.556 214.465C113.689 214.465 113.81 214.457 113.918 214.44L111.274 217.845ZM113.855 213.044C113.423 213.044 113.057 212.902 112.758 212.62C112.467 212.329 112.321 211.954 112.321 211.497C112.321 211.032 112.467 210.653 112.758 210.362C113.057 210.071 113.423 209.926 113.855 209.926C114.288 209.926 114.649 210.071 114.94 210.362C115.231 210.653 115.377 211.032 115.377 211.497C115.377 211.954 115.231 212.329 114.94 212.62C114.649 212.902 114.288 213.044 113.855 213.044ZM118.075 219.79C119.339 219.524 119.971 218.651 119.971 217.171V216.099H118.325V217.845H119.061C118.986 218.46 118.657 218.838 118.075 218.98V219.79ZM121.772 217.845H123.643L127.421 209.988V208.554H121.261V209.988H125.638L121.772 217.845ZM130.611 217.994C131.235 217.994 131.787 217.861 132.27 217.595C132.76 217.321 133.143 216.951 133.417 216.485C133.691 216.012 133.828 215.475 133.828 214.877C133.828 214.311 133.7 213.808 133.442 213.368C133.192 212.927 132.847 212.578 132.407 212.32C131.966 212.063 131.463 211.934 130.898 211.934C130.765 211.934 130.64 211.942 130.524 211.959L133.18 208.554H131.16L128.566 211.921C128.25 212.337 128.005 212.715 127.83 213.056C127.656 213.397 127.535 213.717 127.468 214.016C127.41 214.316 127.381 214.615 127.381 214.914C127.381 215.504 127.518 216.032 127.793 216.498C128.067 216.963 128.445 217.329 128.928 217.595C129.418 217.861 129.979 217.994 130.611 217.994ZM130.611 216.46C130.179 216.46 129.813 216.315 129.514 216.024C129.223 215.733 129.077 215.359 129.077 214.902C129.077 214.436 129.223 214.062 129.514 213.779C129.813 213.488 130.179 213.343 130.611 213.343C131.043 213.343 131.405 213.488 131.696 213.779C131.987 214.062 132.132 214.436 132.132 214.902C132.132 215.359 131.983 215.733 131.684 216.024C131.393 216.315 131.035 216.46 130.611 216.46ZM138.387 217.994C139.135 217.994 139.788 217.795 140.345 217.396C140.902 216.988 141.334 216.427 141.642 215.712C141.958 214.989 142.116 214.149 142.116 213.193C142.116 212.237 141.958 211.402 141.642 210.687C141.334 209.963 140.898 209.402 140.333 209.003C139.776 208.604 139.123 208.404 138.375 208.404C137.643 208.404 136.999 208.604 136.442 209.003C135.885 209.402 135.448 209.959 135.132 210.674C134.825 211.389 134.671 212.229 134.671 213.193C134.671 214.149 134.825 214.989 135.132 215.712C135.448 216.436 135.885 216.997 136.442 217.396C137.007 217.795 137.656 217.994 138.387 217.994ZM138.387 216.448C137.755 216.448 137.261 216.157 136.903 215.575C136.546 214.993 136.367 214.199 136.367 213.193C136.367 212.179 136.542 211.385 136.891 210.811C137.248 210.238 137.743 209.951 138.375 209.951C139.015 209.951 139.514 210.242 139.871 210.824C140.237 211.397 140.42 212.187 140.42 213.193C140.42 214.199 140.241 214.993 139.884 215.575C139.526 216.157 139.027 216.448 138.387 216.448ZM143.712 219.79C144.976 219.524 145.608 218.651 145.608 217.171V216.099H143.962V217.845H144.697C144.623 218.46 144.294 218.838 143.712 218.98V219.79ZM150.926 217.994C151.674 217.994 152.326 217.795 152.883 217.396C153.44 216.988 153.873 216.427 154.18 215.712C154.496 214.989 154.654 214.149 154.654 213.193C154.654 212.237 154.496 211.402 154.18 210.687C153.873 209.963 153.436 209.402 152.871 209.003C152.314 208.604 151.661 208.404 150.913 208.404C150.181 208.404 149.537 208.604 148.98 209.003C148.423 209.402 147.987 209.959 147.671 210.674C147.363 211.389 147.209 212.229 147.209 213.193C147.209 214.149 147.363 214.989 147.671 215.712C147.987 216.436 148.423 216.997 148.98 217.396C149.545 217.795 150.194 217.994 150.926 217.994ZM150.926 216.448C150.294 216.448 149.799 216.157 149.442 215.575C149.084 214.993 148.905 214.199 148.905 213.193C148.905 212.179 149.08 211.385 149.429 210.811C149.787 210.238 150.281 209.951 150.913 209.951C151.553 209.951 152.052 210.242 152.41 210.824C152.775 211.397 152.958 212.187 152.958 213.193C152.958 214.199 152.78 214.993 152.422 215.575C152.065 216.157 151.566 216.448 150.926 216.448ZM159.381 217.994C160.129 217.994 160.782 217.795 161.339 217.396C161.896 216.988 162.328 216.427 162.636 215.712C162.951 214.989 163.109 214.149 163.109 213.193C163.109 212.237 162.951 211.402 162.636 210.687C162.328 209.963 161.891 209.402 161.326 209.003C160.769 208.604 160.116 208.404 159.368 208.404C158.637 208.404 157.992 208.604 157.435 209.003C156.878 209.402 156.442 209.959 156.126 210.674C155.818 211.389 155.664 212.229 155.664 213.193C155.664 214.149 155.818 214.989 156.126 215.712C156.442 216.436 156.878 216.997 157.435 217.396C158.001 217.795 158.649 217.994 159.381 217.994ZM159.381 216.448C158.749 216.448 158.254 216.157 157.897 215.575C157.539 214.993 157.36 214.199 157.36 213.193C157.36 212.179 157.535 211.385 157.884 210.811C158.242 210.238 158.736 209.951 159.368 209.951C160.008 209.951 160.507 210.242 160.865 210.824C161.231 211.397 161.413 212.187 161.413 213.193C161.413 214.199 161.235 214.993 160.877 215.575C160.52 216.157 160.021 216.448 159.381 216.448Z" fill="#1A202C"/>
<path d="M105.096 197.942C105.484 197.942 105.843 197.874 106.172 197.738C106.507 197.597 106.801 197.401 107.053 197.149C107.305 196.897 107.501 196.601 107.642 196.261C107.783 195.922 107.853 195.548 107.853 195.141C107.853 194.739 107.783 194.368 107.642 194.028C107.501 193.684 107.305 193.388 107.053 193.141C106.801 192.888 106.507 192.694 106.172 192.559C105.843 192.418 105.484 192.348 105.096 192.348C104.713 192.348 104.354 192.418 104.019 192.559C103.685 192.694 103.391 192.888 103.139 193.141C102.892 193.388 102.698 193.681 102.557 194.021C102.416 194.36 102.346 194.734 102.346 195.141C102.346 195.548 102.416 195.922 102.557 196.261C102.698 196.601 102.894 196.897 103.146 197.149C103.398 197.401 103.689 197.597 104.019 197.738C104.354 197.874 104.713 197.942 105.096 197.942ZM105.096 197.28C104.703 197.28 104.351 197.185 104.041 196.996C103.736 196.802 103.495 196.545 103.321 196.225C103.146 195.9 103.059 195.539 103.059 195.141C103.059 194.743 103.146 194.385 103.321 194.064C103.495 193.744 103.736 193.49 104.041 193.301C104.347 193.107 104.698 193.01 105.096 193.01C105.494 193.01 105.845 193.107 106.151 193.301C106.456 193.49 106.696 193.744 106.871 194.064C107.045 194.385 107.133 194.743 107.133 195.141C107.133 195.539 107.045 195.9 106.871 196.225C106.696 196.545 106.456 196.802 106.151 196.996C105.845 197.185 105.494 197.28 105.096 197.28ZM109.758 197.854H110.398L111.941 193.934H111.184L110.078 196.902L108.98 193.934H108.223L109.758 197.854ZM114.133 197.942C114.536 197.942 114.885 197.847 115.181 197.658C115.477 197.469 115.685 197.239 115.807 196.967L115.239 196.676C115.128 196.865 114.982 197.02 114.803 197.142C114.623 197.263 114.403 197.323 114.141 197.323C113.923 197.323 113.719 197.275 113.53 197.178C113.345 197.076 113.193 196.933 113.071 196.749C112.955 196.564 112.892 196.346 112.882 196.094H115.879C115.904 195.963 115.916 195.842 115.916 195.73C115.916 195.405 115.843 195.1 115.697 194.814C115.552 194.528 115.341 194.295 115.065 194.115C114.793 193.936 114.463 193.846 114.075 193.846C113.712 193.846 113.387 193.934 113.1 194.108C112.814 194.283 112.586 194.525 112.417 194.836C112.252 195.141 112.169 195.49 112.169 195.883C112.169 196.276 112.254 196.628 112.424 196.938C112.594 197.248 112.826 197.493 113.122 197.673C113.418 197.852 113.755 197.942 114.133 197.942ZM114.075 194.45C114.274 194.45 114.456 194.496 114.621 194.588C114.786 194.676 114.919 194.799 115.021 194.959C115.123 195.119 115.176 195.304 115.181 195.512H112.897C112.945 195.182 113.081 194.923 113.304 194.734C113.527 194.545 113.784 194.45 114.075 194.45ZM116.652 197.854H117.329V195.519C117.329 195.204 117.414 194.962 117.583 194.792C117.753 194.617 117.976 194.53 118.253 194.53H118.595V193.89H118.355C118.112 193.89 117.904 193.934 117.729 194.021C117.554 194.103 117.416 194.229 117.314 194.399V193.934H116.652V197.854ZM120.199 197.942C120.486 197.942 120.743 197.888 120.971 197.782C121.198 197.67 121.383 197.525 121.523 197.345V197.854H122.185V195.192C122.185 194.925 122.12 194.693 121.989 194.494C121.863 194.29 121.686 194.132 121.458 194.021C121.23 193.904 120.966 193.846 120.665 193.846C120.432 193.846 120.209 193.887 119.996 193.97C119.782 194.052 119.596 194.166 119.436 194.312C119.276 194.452 119.159 194.612 119.086 194.792L119.676 195.097C119.758 194.913 119.884 194.763 120.054 194.646C120.224 194.53 120.423 194.472 120.65 194.472C120.907 194.472 121.114 194.54 121.269 194.676C121.429 194.806 121.509 194.979 121.509 195.192V195.374L120.17 195.592C119.729 195.665 119.404 195.813 119.196 196.036C118.992 196.254 118.89 196.518 118.89 196.829C118.89 197.159 119.011 197.428 119.254 197.636C119.501 197.84 119.816 197.942 120.199 197.942ZM119.603 196.807C119.603 196.637 119.659 196.494 119.77 196.378C119.887 196.261 120.071 196.181 120.323 196.138L121.509 195.941V196.189C121.509 196.407 121.458 196.606 121.356 196.785C121.254 196.965 121.111 197.108 120.927 197.214C120.743 197.316 120.527 197.367 120.279 197.367C120.085 197.367 119.923 197.314 119.792 197.207C119.666 197.1 119.603 196.967 119.603 196.807ZM123.089 197.854H123.765V192.348H123.089V197.854ZM124.67 197.854H125.346V192.348H124.67V197.854ZM129.305 197.942C129.659 197.942 129.969 197.879 130.236 197.753C130.507 197.622 130.718 197.442 130.869 197.214C131.024 196.986 131.101 196.725 131.101 196.429C131.101 195.721 130.67 195.233 129.807 194.967L128.897 194.697C128.64 194.615 128.449 194.496 128.323 194.341C128.196 194.181 128.133 194.004 128.133 193.81C128.133 193.558 128.223 193.359 128.403 193.213C128.582 193.063 128.817 192.988 129.108 192.988C129.423 192.988 129.697 193.068 129.93 193.228C130.168 193.388 130.342 193.618 130.454 193.919L131.065 193.664C130.983 193.417 130.847 193.194 130.658 192.995C130.473 192.796 130.248 192.639 129.981 192.522C129.719 192.406 129.426 192.348 129.101 192.348C128.776 192.348 128.485 192.413 128.228 192.544C127.976 192.67 127.777 192.847 127.631 193.075C127.491 193.298 127.421 193.558 127.421 193.854C127.421 194.193 127.525 194.494 127.733 194.756C127.942 195.017 128.243 195.209 128.635 195.33L129.632 195.636C129.874 195.709 130.061 195.81 130.192 195.941C130.323 196.072 130.389 196.252 130.389 196.48C130.389 196.732 130.289 196.933 130.09 197.083C129.896 197.229 129.639 197.302 129.319 197.302C128.97 197.302 128.664 197.209 128.403 197.025C128.141 196.836 127.947 196.567 127.821 196.218L127.202 196.472C127.29 196.749 127.433 196.999 127.631 197.222C127.83 197.44 128.073 197.614 128.359 197.745C128.645 197.876 128.96 197.942 129.305 197.942ZM131.92 199.309H132.596V197.309C132.747 197.513 132.938 197.67 133.171 197.782C133.409 197.888 133.668 197.942 133.949 197.942C134.323 197.942 134.655 197.852 134.946 197.673C135.242 197.493 135.475 197.251 135.644 196.945C135.814 196.635 135.899 196.286 135.899 195.898C135.899 195.505 135.814 195.156 135.644 194.85C135.475 194.54 135.244 194.295 134.953 194.115C134.662 193.936 134.33 193.846 133.957 193.846C133.661 193.846 133.394 193.904 133.156 194.021C132.924 194.132 132.732 194.288 132.582 194.486V193.934H131.92V199.309ZM133.898 197.287C133.656 197.287 133.435 197.226 133.236 197.105C133.038 196.984 132.88 196.819 132.764 196.611C132.652 196.397 132.596 196.16 132.596 195.898C132.596 195.631 132.652 195.393 132.764 195.185C132.88 194.976 133.038 194.811 133.236 194.69C133.435 194.564 133.656 194.501 133.898 194.501C134.146 194.501 134.364 194.562 134.553 194.683C134.747 194.804 134.9 194.971 135.011 195.185C135.123 195.393 135.179 195.631 135.179 195.898C135.179 196.16 135.123 196.397 135.011 196.611C134.9 196.819 134.747 196.984 134.553 197.105C134.364 197.226 134.146 197.287 133.898 197.287ZM138.445 197.942C138.847 197.942 139.196 197.847 139.492 197.658C139.788 197.469 139.996 197.239 140.118 196.967L139.55 196.676C139.439 196.865 139.293 197.02 139.114 197.142C138.934 197.263 138.714 197.323 138.452 197.323C138.234 197.323 138.03 197.275 137.841 197.178C137.656 197.076 137.504 196.933 137.382 196.749C137.266 196.564 137.203 196.346 137.193 196.094H140.19C140.215 195.963 140.227 195.842 140.227 195.73C140.227 195.405 140.154 195.1 140.009 194.814C139.863 194.528 139.652 194.295 139.376 194.115C139.104 193.936 138.774 193.846 138.386 193.846C138.023 193.846 137.698 193.934 137.412 194.108C137.125 194.283 136.897 194.525 136.728 194.836C136.563 195.141 136.48 195.49 136.48 195.883C136.48 196.276 136.565 196.628 136.735 196.938C136.905 197.248 137.138 197.493 137.433 197.673C137.729 197.852 138.066 197.942 138.445 197.942ZM138.386 194.45C138.585 194.45 138.767 194.496 138.932 194.588C139.097 194.676 139.23 194.799 139.332 194.959C139.434 195.119 139.487 195.304 139.492 195.512H137.208C137.256 195.182 137.392 194.923 137.615 194.734C137.838 194.545 138.095 194.45 138.386 194.45ZM140.963 197.854H141.64V195.534C141.64 195.214 141.73 194.962 141.909 194.777C142.089 194.593 142.316 194.501 142.593 194.501C142.869 194.501 143.095 194.593 143.269 194.777C143.444 194.957 143.531 195.209 143.531 195.534V197.854H144.215V195.316C144.215 195.034 144.15 194.785 144.019 194.566C143.893 194.343 143.718 194.169 143.495 194.043C143.277 193.912 143.027 193.846 142.746 193.846C142.503 193.846 142.285 193.897 142.091 193.999C141.897 194.096 141.742 194.234 141.625 194.414V193.934H140.963V197.854ZM146.82 197.942C147.111 197.942 147.375 197.886 147.613 197.774C147.855 197.658 148.049 197.493 148.195 197.28V197.854H148.857V192.348H148.173V194.457C148.023 194.263 147.831 194.113 147.598 194.006C147.366 193.9 147.106 193.846 146.82 193.846C146.451 193.846 146.119 193.936 145.823 194.115C145.532 194.295 145.302 194.54 145.132 194.85C144.963 195.156 144.878 195.505 144.878 195.898C144.878 196.286 144.963 196.635 145.132 196.945C145.302 197.251 145.532 197.493 145.823 197.673C146.119 197.852 146.451 197.942 146.82 197.942ZM146.878 197.287C146.631 197.287 146.41 197.226 146.216 197.105C146.022 196.984 145.869 196.819 145.758 196.611C145.646 196.397 145.591 196.16 145.591 195.898C145.591 195.631 145.646 195.393 145.758 195.185C145.869 194.971 146.022 194.804 146.216 194.683C146.415 194.562 146.636 194.501 146.878 194.501C147.125 194.501 147.346 194.564 147.54 194.69C147.734 194.811 147.887 194.976 147.998 195.185C148.115 195.393 148.173 195.631 148.173 195.898C148.173 196.16 148.115 196.397 147.998 196.611C147.887 196.819 147.734 196.984 147.54 197.105C147.346 197.226 147.125 197.287 146.878 197.287ZM149.758 193.308H150.435V192.435H149.758V193.308ZM149.758 197.854H150.435V193.934H149.758V197.854ZM151.339 197.854H152.016V195.534C152.016 195.214 152.105 194.962 152.285 194.777C152.464 194.593 152.692 194.501 152.969 194.501C153.245 194.501 153.471 194.593 153.645 194.777C153.82 194.957 153.907 195.209 153.907 195.534V197.854H154.591V195.316C154.591 195.034 154.525 194.785 154.395 194.566C154.268 194.343 154.094 194.169 153.871 194.043C153.653 193.912 153.403 193.846 153.121 193.846C152.879 193.846 152.661 193.897 152.467 193.999C152.273 194.096 152.118 194.234 152.001 194.414V193.934H151.339V197.854ZM157.283 199.455C157.647 199.455 157.969 199.377 158.251 199.222C158.537 199.072 158.76 198.863 158.92 198.596C159.08 198.33 159.16 198.027 159.16 197.687V193.934H158.498V194.479C158.343 194.28 158.151 194.125 157.923 194.014C157.695 193.902 157.443 193.846 157.167 193.846C156.798 193.846 156.468 193.934 156.177 194.108C155.891 194.278 155.666 194.511 155.501 194.806C155.336 195.102 155.253 195.435 155.253 195.803C155.253 196.172 155.336 196.504 155.501 196.8C155.671 197.096 155.898 197.331 156.185 197.505C156.476 197.675 156.805 197.76 157.174 197.76C157.441 197.76 157.688 197.707 157.916 197.6C158.144 197.493 158.331 197.34 158.476 197.142V197.687C158.476 197.925 158.42 198.126 158.309 198.291C158.202 198.461 158.059 198.587 157.88 198.669C157.7 198.757 157.499 198.8 157.276 198.8C156.985 198.8 156.742 198.735 156.548 198.604C156.359 198.478 156.231 198.322 156.163 198.138L155.53 198.429C155.661 198.735 155.882 198.982 156.192 199.171C156.502 199.36 156.866 199.455 157.283 199.455ZM157.232 197.105C156.99 197.105 156.771 197.047 156.577 196.931C156.388 196.814 156.238 196.659 156.126 196.465C156.02 196.266 155.966 196.046 155.966 195.803C155.966 195.561 156.022 195.342 156.134 195.148C156.245 194.95 156.396 194.792 156.585 194.676C156.779 194.559 156.995 194.501 157.232 194.501C157.465 194.501 157.676 194.559 157.865 194.676C158.054 194.792 158.202 194.95 158.309 195.148C158.42 195.342 158.476 195.561 158.476 195.803C158.476 196.041 158.42 196.259 158.309 196.458C158.202 196.657 158.054 196.814 157.865 196.931C157.676 197.047 157.465 197.105 157.232 197.105Z" fill="#596780"/>
</g>
</g>
<defs>
<filter id="filter0_d_3801_39493" x="280.597" y="119.935" width="134.9" height="85.2071" filterUnits="userSpaceOnUse" color-interpolation-filters="sRGB">
<feFlood flood-opacity="0" result="BackgroundImageFix"/>
<feColorMatrix in="SourceAlpha" type="matrix" values="0 0 0 0 0 0 0 0 0 0 0 0 0 0 0 0 0 0 127 0" result="hardAlpha"/>
<feOffset dy="19.5266"/>
<feGaussianBlur stdDeviation="10.6509"/>
<feComposite in2="hardAlpha" operator="out"/>
<feColorMatrix type="matrix" values="0 0 0 0 0 0 0 0 0 0 0 0 0 0 0 0 0 0 0.25 0"/>
<feBlend mode="normal" in2="BackgroundImageFix" result="effect1_dropShadow_3801_39493"/>
<feBlend mode="normal" in="SourceGraphic" in2="effect1_dropShadow_3801_39493" result="shape"/>
</filter>
<filter id="filter1_d_3801_39493" x="2.66797" y="66.7168" width="283.335" height="410.637" filterUnits="userSpaceOnUse" color-interpolation-filters="sRGB">
<feFlood flood-opacity="0" result="BackgroundImageFix"/>
<feColorMatrix in="SourceAlpha" type="matrix" values="0 0 0 0 0 0 0 0 0 0 0 0 0 0 0 0 0 0 127 0" result="hardAlpha"/>
<feOffset dx="13.3333" dy="13.3333"/>
<feGaussianBlur stdDeviation="26.6667"/>
<feComposite in2="hardAlpha" operator="out"/>
<feColorMatrix type="matrix" values="0 0 0 0 0 0 0 0 0 0 0 0 0 0 0 0 0 0 0.15 0"/>
<feBlend mode="normal" in2="BackgroundImageFix" result="effect1_dropShadow_3801_39493"/>
<feBlend mode="normal" in="SourceGraphic" in2="effect1_dropShadow_3801_39493" result="shape"/>
</filter>
<clipPath id="clip0_3801_39493">
<path d="M0 10.0498C0 4.52697 4.47715 0.0498047 10 0.0498047H526V300.05H0V10.0498Z" fill="white"/>
</clipPath>
</defs>
</svg>
