<svg width="32" height="33" viewBox="0 0 32 33" fill="none" xmlns="http://www.w3.org/2000/svg">
<path d="M4.15699 16.6724C4.05394 16.4808 4 16.2667 4 16.0491C4 15.8315 4.05394 15.6174 4.15699 15.4258C6.67965 10.7604 11.3397 6.71643 15.9997 6.71643C20.6597 6.71643 25.3197 10.7604 27.8423 15.4271C27.9454 15.6187 27.9993 15.8329 27.9993 16.0504C27.9993 16.268 27.9454 16.4822 27.8423 16.6738C25.3197 21.3391 20.6597 25.3831 15.9997 25.3831C11.3397 25.3831 6.67965 21.3391 4.15699 16.6724Z" stroke="#8E92A8" stroke-width="2" stroke-linecap="round" stroke-linejoin="round"/>
<path d="M18.8298 13.2218C19.2182 13.5892 19.529 14.0307 19.7439 14.5203C19.9588 15.0098 20.0733 15.5375 20.0807 16.0721C20.0882 16.6067 19.9883 17.1374 19.7872 17.6327C19.586 18.1281 19.2876 18.5781 18.9095 18.9562C18.5315 19.3342 18.0815 19.6327 17.5861 19.8338C17.0907 20.035 16.5601 20.1348 16.0255 20.1274C15.4909 20.1199 14.9632 20.0054 14.4736 19.7905C13.984 19.5757 13.5425 19.2648 13.1751 18.8764C12.4686 18.1182 12.0839 17.1152 12.1022 16.079C12.1205 15.0427 12.5403 14.054 13.2731 13.3211C14.006 12.5882 14.9947 12.1684 16.031 12.1502C17.0673 12.1319 18.0702 12.5165 18.8285 13.2231" stroke="#8E92A8" stroke-width="1.90533" stroke-linecap="round" stroke-linejoin="round"/>
</svg>
