<svg width="32" height="33" viewBox="0 0 32 33" fill="none" xmlns="http://www.w3.org/2000/svg">
<path fill-rule="evenodd" clip-rule="evenodd" d="M17.5315 9.58463C17.3109 9.42264 17 9.57973 17 9.85375V22.2471C17 22.5196 17.3107 22.6775 17.5311 22.5152L25.9482 15.9798M15 9.85375C15 7.94118 17.1743 6.83962 18.7164 7.97342L27.1341 14.1697C28.4007 15.1027 28.401 16.9952 27.1344 17.9282L18.7169 24.1257C17.1773 25.2593 15 24.1612 15 22.2471V9.85375Z" fill="#8E92A8"/>
<path fill-rule="evenodd" clip-rule="evenodd" d="M6.53146 9.58463C6.31086 9.42264 6 9.57973 6 9.85375V22.2471C6 22.5196 6.31068 22.6775 6.53105 22.5152L14.9482 15.9798M4 9.85375C4 7.94118 6.1743 6.83962 7.71637 7.97342L16.1341 14.1697C17.4007 15.1027 17.401 16.9952 16.1344 17.9282L7.71695 24.1257C6.17733 25.2593 4 24.1612 4 22.2471V9.85375Z" fill="#8E92A8"/>
</svg>
