<svg width="32" height="33" viewBox="0 0 32 33" fill="none" xmlns="http://www.w3.org/2000/svg">
<path d="M28.0042 13.1238V9.12284C28.0042 8.68488 27.9179 8.25121 27.7503 7.84659C27.5827 7.44197 27.337 7.07432 27.0274 6.76464C26.7177 6.45496 26.35 6.2093 25.9454 6.0417C25.5408 5.8741 25.1071 5.78784 24.6692 5.78784H7.32916C6.44466 5.78784 5.59639 6.13921 4.97096 6.76464C4.34552 7.39007 3.99416 8.23834 3.99416 9.12284V11.1228M28.0032 19.7938V23.7958C28.0029 24.6802 27.6514 25.5282 27.026 26.1534C26.4006 26.7786 25.5525 27.1298 24.6682 27.1298H17.3322M2.66016 17.2598V26.3298C2.66216 27.5078 5.04916 28.4638 7.99616 28.4638C10.9422 28.4638 13.3302 27.5078 13.3312 26.3298V17.2598" stroke="#8E92A8" stroke-width="2" stroke-linecap="round" stroke-linejoin="round"/>
<path d="M13.3302 17.2598C13.3302 18.4378 10.9402 19.3938 7.99416 19.3938C5.04716 19.3938 2.66016 18.4378 2.66016 17.2598C2.66016 16.0798 5.05016 15.1248 7.99616 15.1248C10.9412 15.1248 13.3302 16.0808 13.3312 17.2598M2.66016 21.7948C2.66016 22.9728 5.04716 23.9288 7.99416 23.9288C10.9412 23.9288 13.3302 22.9728 13.3302 21.7948" stroke="#8E92A8" stroke-width="2" stroke-linecap="round" stroke-linejoin="round"/>
<path d="M24.6699 13.1248H28.0049C28.7419 13.1248 29.3389 13.7218 29.3389 14.4578V18.4598C29.3389 19.1968 28.7419 19.7938 28.0049 19.7938H24.6709C24.233 19.7938 23.7993 19.7075 23.3947 19.5399C22.9901 19.3723 22.6224 19.1266 22.3127 18.817C22.0031 18.5073 21.7574 18.1396 21.5898 17.735C21.4222 17.3304 21.3359 16.8967 21.3359 16.4588C21.3362 15.5744 21.6877 14.7264 22.3131 14.1012C22.9385 13.476 23.7856 13.1248 24.6699 13.1248Z" stroke="#8E92A8" stroke-width="2" stroke-linecap="round" stroke-linejoin="round"/>
</svg>
