<svg width="32" height="33" viewBox="0 0 32 33" fill="none" xmlns="http://www.w3.org/2000/svg">
<path fill-rule="evenodd" clip-rule="evenodd" d="M18.1213 13.9285C16.9497 12.7569 15.0502 12.7569 13.8786 13.9285C12.7071 15.1 12.7071 16.9995 13.8786 18.1711C15.0502 19.3427 16.9497 19.3427 18.1213 18.1711C19.2929 16.9995 19.2929 15.1 18.1213 13.9285ZM19.5355 12.5143C17.5829 10.5616 14.4172 10.5616 12.4645 12.5143C10.5118 14.4669 10.5118 17.6327 12.4645 19.5853C14.4172 21.5379 17.5829 21.5379 19.5355 19.5853C21.4881 17.6327 21.4881 14.4669 19.5355 12.5143Z" fill="#8E92A8"/>
<path fill-rule="evenodd" clip-rule="evenodd" d="M12.6 5.76847C12.6 4.37183 13.9054 3.0498 16 3.0498C17.772 3.0498 19.4 4.02317 19.4 5.76847C19.4 6.03612 19.5542 6.3225 19.8795 6.48958C20.2538 6.68182 20.6694 6.57683 20.8662 6.38003C21.9274 5.31884 23.6499 5.31884 24.7111 6.38003L25.6738 7.34269C26.735 8.40388 26.735 10.1264 25.6738 11.1876C25.4522 11.4091 25.3874 11.7399 25.5094 12.0292L25.5185 12.0516C25.5573 12.15 25.6767 12.319 25.8743 12.4668C26.0768 12.6181 26.2326 12.6525 26.28 12.6525C27.7816 12.6525 28.9987 13.8695 28.9987 15.3711V16.7325C28.9987 18.2341 27.7816 19.4511 26.28 19.4511C26.0152 19.4511 25.7318 19.6032 25.5641 19.9296C25.3719 20.3034 25.4768 20.7191 25.6738 20.916C26.735 21.9772 26.735 23.6997 25.6738 24.7609L24.7111 25.7236C23.6501 26.7846 21.9279 26.7848 20.8667 25.724C20.665 25.5234 20.2464 25.4202 19.8768 25.6113C19.5294 25.791 19.396 26.057 19.396 26.3285C19.396 27.8301 18.179 29.0471 16.6773 29.0471H15.316C13.8144 29.0471 12.5973 27.8301 12.5973 26.3285C12.5973 26.0636 12.4452 25.7803 12.1189 25.6126C11.745 25.4204 11.3294 25.5253 11.1324 25.7222C10.0712 26.7834 8.34875 26.7834 7.28756 25.7222L6.32489 24.7596C5.2637 23.6984 5.2637 21.9759 6.32489 20.9147C6.52187 20.7177 6.62672 20.3021 6.43458 19.9282C6.23763 19.545 6.01616 19.4498 5.808 19.4498C4.37231 19.4498 3 18.2965 3 16.7298V15.3685C3 13.8027 4.37283 12.6498 5.808 12.6498C6.01696 12.6498 6.23913 12.554 6.43603 12.1711C6.62835 11.7972 6.52331 11.3807 6.32623 11.1836C5.08816 9.94551 5.60662 8.02897 6.79289 6.84269C7.39628 6.2393 8.14904 5.8456 8.90801 5.72624C9.66231 5.60761 10.5146 5.75554 11.1351 6.37603C11.3434 6.58434 11.6274 6.66878 12.0179 6.5241C12.4436 6.36635 12.6 6.11714 12.6 5.76847ZM16 5.0498C14.7405 5.0498 14.6 5.72777 14.6 5.76847C14.6 7.0566 13.8219 7.98854 12.7128 8.3995C11.6575 8.79051 10.5312 8.6006 9.72089 7.79024C9.67071 7.74006 9.52686 7.65349 9.21873 7.70195C8.91529 7.74968 8.53938 7.92464 8.20711 8.25692C7.83452 8.62951 7.66982 9.00315 7.6299 9.27956C7.59069 9.55111 7.66816 9.69708 7.74044 9.76936C8.56202 10.5909 8.79804 11.9513 8.21463 13.0858C7.75821 13.9733 6.93238 14.6498 5.808 14.6498C5.3445 14.6498 5 15.0356 5 15.3685V16.7298C5 17.0645 5.34502 17.4498 5.808 17.4498C6.93318 17.4498 7.75778 18.1274 8.21342 19.014C8.79613 20.1479 8.5608 21.5072 7.73911 22.3289C7.45896 22.609 7.45896 23.0652 7.73911 23.3454L8.70177 24.308C8.98192 24.5882 9.43808 24.5882 9.71823 24.308C10.5399 23.4863 11.8992 23.251 13.0331 23.8337C13.9766 24.3186 14.5973 25.26 14.5973 26.3285C14.5973 26.7255 14.919 27.0471 15.316 27.0471H16.6773C17.0744 27.0471 17.396 26.7255 17.396 26.3285C17.396 25.2666 17.9853 24.338 18.9579 23.8349C20.0975 23.2455 21.4596 23.4907 22.2795 24.3084L22.2804 24.3094C22.5606 24.5895 23.0168 24.5895 23.2969 24.3094L24.2596 23.3467C24.5397 23.0666 24.5397 22.6104 24.2596 22.3302C23.4379 21.5085 23.2025 20.1492 23.7852 19.0154C24.2701 18.0719 25.2115 17.4511 26.28 17.4511C26.677 17.4511 26.9987 17.1295 26.9987 16.7325V15.3711C26.9987 14.9741 26.677 14.6525 26.28 14.6525C25.6607 14.6525 25.0926 14.3795 24.6767 14.0685C24.2591 13.7563 23.8686 13.3122 23.6621 12.7956C23.2302 11.7595 23.4652 10.5677 24.2596 9.77337C24.5397 9.49323 24.5397 9.03706 24.2596 8.75692L23.2969 7.79424C23.0168 7.5141 22.5606 7.5141 22.2804 7.79424C21.4586 8.61611 20.0995 8.85084 18.9658 8.26869C18.0176 7.78171 17.4 6.83415 17.4 5.76847C17.4 5.63761 17.3473 5.49245 17.1605 5.35162C16.9603 5.20071 16.5871 5.0498 16 5.0498Z" fill="#8E92A8"/>
</svg>
