<svg width="32" height="33" viewBox="0 0 32 33" fill="none" xmlns="http://www.w3.org/2000/svg">
<path d="M26.667 12.0498V6.7168C26.667 6.00947 26.386 5.33111 25.8859 4.83095C25.3857 4.33079 24.7073 4.0498 24 4.0498H6.667C5.95967 4.0498 5.28131 4.33079 4.78115 4.83095C4.28099 5.33111 4 6.00947 4 6.7168V25.3828C4 26.0901 4.28099 26.7685 4.78115 27.2687C5.28131 27.7688 5.95967 28.0498 6.667 28.0498H16" stroke="#8E92A8" stroke-width="2" stroke-linecap="round" stroke-linejoin="round"/>
<path d="M18.666 22.6458V19.0678C18.6645 18.9204 18.7186 18.7778 18.8176 18.6686C18.9166 18.5594 19.0532 18.4916 19.2 18.4788C20.6776 18.3799 22.094 17.8512 23.275 16.9578C23.4841 16.8017 23.7381 16.7173 23.999 16.7173C24.26 16.7173 24.5139 16.8017 24.723 16.9578C25.904 17.8513 27.3205 18.38 28.798 18.4788C28.9452 18.4914 29.0822 18.5593 29.1814 18.6687C29.2807 18.7781 29.3348 18.9211 29.333 19.0688V22.6458M18.666 22.7168C18.666 25.2568 21.832 27.1438 23.288 27.8768C23.734 28.1068 24.264 28.1068 24.71 27.8768C26.166 27.1438 29.332 25.2608 29.332 22.7168M9.33203 10.7168H21.332M9.33203 16.0498H14.666M9.33203 21.3828H11.999" stroke="#8E92A8" stroke-width="2" stroke-linecap="round" stroke-linejoin="round"/>
</svg>
